<?xml version="1.0" encoding="UTF-8"?>
<svg id="Layer_2" data-name="Layer 2" xmlns="http://www.w3.org/2000/svg" xmlns:xlink="http://www.w3.org/1999/xlink" viewBox="0 0 297.64 419.53">
  <defs>
    <style>
      .cls-1 {
        fill: none;
      }

      .cls-2 {
        clip-path: url(#clippath-1);
      }

      .cls-3 {
        clip-path: url(#clippath-3);
      }

      .cls-4 {
        clip-path: url(#clippath-4);
      }

      .cls-5 {
        clip-path: url(#clippath-2);
      }

      .cls-6 {
        clip-path: url(#clippath-6);
      }

      .cls-7 {
        clip-path: url(#clippath-5);
      }

      .cls-8 {
        fill: #9d9abd;
      }

      .cls-9 {
        fill: #e6be66;
      }

      .cls-10 {
        fill: #afbf8c;
      }

      .cls-11 {
        fill: #437d98;
      }

      .cls-12 {
        fill: #b07178;
      }

      .cls-13 {
        fill: #60959a;
      }

      .cls-14 {
        clip-path: url(#clippath);
      }
    </style>
    <clipPath id="clippath">
      <rect class="cls-1" width="297.64" height="419.53"/>
    </clipPath>
    <clipPath id="clippath-1">
      <path class="cls-1" d="M0,419.53h0Z"/>
    </clipPath>
    <clipPath id="clippath-2">
      <rect class="cls-1" width="297.64" height="419.53"/>
    </clipPath>
    <clipPath id="clippath-3">
      <rect class="cls-1" x="120.24" y="156.32" width="72.72" height="230.96"/>
    </clipPath>
    <clipPath id="clippath-4">
      <polygon class="cls-1" points="83.93 231.75 83.93 410.67 192.96 410.67 192.96 156.32 83.93 231.75"/>
    </clipPath>
    <clipPath id="clippath-5">
      <rect class="cls-1" width="297.64" height="419.53"/>
    </clipPath>
    <clipPath id="clippath-6">
      <rect class="cls-1" width="297.64" height="419.53"/>
    </clipPath>
  </defs>
  <g id="Layer_2-2" data-name="Layer 2">
    <g class="cls-14">
      <g class="cls-2">
        <path class="cls-10" d="M427.32,274.72h-107c-22.48,0-40.71-18.23-40.71-40.71s18.23-40.71,40.71-40.71h107c22.48,0,40.71,18.22,40.71,40.71s-18.23,40.71-40.71,40.71"/>
      </g>
      <g class="cls-5">
        <path class="cls-10" d="M109.68,274.72H2.68c-22.48,0-40.71-18.23-40.71-40.71s18.23-40.71,40.71-40.71h107c22.48,0,40.71,18.22,40.71,40.71s-18.22,40.71-40.71,40.71"/>
        <path class="cls-8" d="M281.33,381.63h-99.22c-22.48,0-40.71-18.22-40.71-40.71s18.23-40.7,40.71-40.7h99.22c22.48,0,40.71,18.22,40.71,40.7s-18.23,40.71-40.71,40.71"/>
      </g>
      <g class="cls-3">
        <path class="cls-9" d="M156.08,157.71c.97.14,1.82.61,2.76.76l.26-.02.18.09-.09.24.09-.24s.09.02.14.03c1.19.29,1.98,1.37,3.16,1.59l.24-.18c-.03-.73-.59-1.79-.45-2.41l.25-.03-.2-.18-.12.2.11-.2c.61,1.05.7,2.31,1.22,3.4.14-.4.27-.82.46-1.21-.05.6-.19,1.23.09,1.78.85.89,3.32.93,5.08,2.24-1.19-.23-2.39-.53-3.59-.65.45.33,1.54.92,1.7,1.41-.32-.11-.65-.22-.97-.34l-.13-.06.13.06c.62.64,1.26,1.28,1.72,2.04,2.43,4.08,2.48,9.57,2.45,14.18,0,.2-.03.1.15.27h.24c.52-.03,1.1-.1,1.51.29.62.57.79,1.62.81,2.43.04,2.48-1.2,5.93-2.96,7.69-.44.44-1.08.96-1.74.89-.37-.04-.75-.27-1.07-.43l-.17-.08c-.3,1.11-2.68,6.91-2.45,7.38.95,1.95,7.67,1.9,7.75,6.66,0,.2.01.39.01.59,6.13,3.09,9.04,5.49,11.24,12.18,2.83,8.7,5.85,17.32,9.08,25.88l-4.68,1.53c1.07,5.99,1.49,11.9,1.44,17.98-.03,3.15-.31,6.41-.14,9.54.16,2.88,1.56,5.51,1.48,8.44-.04,1.64-.34,3.73-1.32,5.1-1.06,1.49-4.44,3.49-6.23,3.72-.37.05-.57.02-.9-.15-.2-.4-.2-.61-.05-1.05.69-2.11,3.22-4.78,2.3-7.18-.34-.3-.35-.33-.82-.36-.52,1.24-.85,3.54-2.23,4.11-.27.11-.36.05-.64,0-.8-.82-.76-2.26-.75-3.34.02-2.32.48-4.98,1.18-7.18.56-1.78,1.48-3.52,1.55-5.41.12-3.24-1.23-6.98-2.12-10.06,0,4.13-.16,7.39-2.08,11.16.65,1.27,2.26,3.38,1.71,4.88-.38,1.02-1.43,1.48-2.35,1.91.32,1.57.59,3.15.79,4.74.21,1.59.35,3.19.43,4.79.38,6.54-.05,13.14.12,19.69.06,2.36.66,4.67.73,7.05.04,1.2.5,6.72.06,7.55-.65,1.21-4.53,1.93-5.82,2.24-.04,3.77.86,7.27,1.08,10.99.32,5.36-.52,10.72-1.25,16.02-.34,2.47-2.11,9.98-.26,11.76,1.08,1.03,4.73,2.44,4.79,4.3,0,.04,0,.09-.01.14h-.17c-1.05-1.22-1.8-2.35-3.41-2.82l-.34.09c.66,2.53,2.3,2.53,2.31,6.37,1.96,2.86,5.57,7.38,4.9,11-.19,1-.75,1.79-1.59,2.34-2.74,1.77-9.94,1.6-13.08.86-.89-.21-2.17-.55-2.66-1.39-.66-1.14-.31-2.96-.08-4.19-.6-.61-1.26-1.21-1.77-1.89-.57-3.98-1.21-11.75,1.27-15,.29-.38.64-.71,1.01-1.02.07-7.11-1.6-14.02-2.2-21.06-.25-2.91.36-6.02-.07-8.86-.39-2.59-1.5-5.02-1.97-7.6-.85-.16-1.86-.31-2.41-1.06-.57-.77-.46-1.78-.28-2.67.19-.91.55-1.83.61-2.76.13-1.94-.57-3.94-.69-5.87-.09-1.53.26-3.14.08-4.65-.08-.7-.35-1.42-.56-2.09-.47,2.34-1.07,4.78-1.22,7.16-.15,2.36,1.66,9.2-.42,10.68-1.01.72-2.53.91-3.72,1.14-.48,3.32-2.67,5.8-3.48,9.01-.95,3.74-.82,7.86-1.28,11.69-.45,3.77-3.47,15.74-1.22,18.58.72.91,2.49,1.45,2.35,2.8-.07.71-.65,1.28-1.16,1.72.32,1.5.59,3.08,1.23,4.49,1.37,3.05,6.69,9.99,4.52,13.28-.79,1.19-3.24,1.47-4.56,1.67-3.51.53-9.08,1.08-12.08-1.15-.35-.26-.68-.56-.89-.95-.4-.74-.38-1.68-.72-2.45-.47-1.07-1.42-1.92-1.59-3.1-.27-1.88.51-9.19,1.19-10.94.7-1.8,2.34-3.86,2.51-5.76.2-2.34-.23-4.96-.43-7.3-.43-5.1-.97-10.24-.91-15.36.03-2.7.24-5.45.79-8.1.69-3.37,1.67-6.41,1.97-9.87-.86-.25-1.74-.48-2.59-.79.49-2.94-.82-7.15,1.39-9.46-1.51-6.07-1.06-12.35-1.39-18.53-.14-2.66-.76-5.21-.6-7.9.14-2.34.77-4.71,1.55-6.91-1.38-.82-2.5-1.89-2.9-3.5-.3-1.21-.09-2.32.2-3.51-.6-1.07-1.22-2.13-1.88-3.17,1.15-6.04,2.21-12.1,3.17-18.18-.52.58-1.3,1.11-1.76,1.68-1.14,1.42-2.87,19.18-2.72,21.89.11,2.01,1.59,3.19,2.18,4.99.49,1.48.19,10.61-.25,12.15-.9.55-1.6.29-2.58.06l-.12-.03c.36.58,1.04,1.43.86,2.15-.09.37-.22.38-.54.55-1.84,0-4.57-2.35-5.85-3.62-1.44-1.42-1.95-3.19-1.94-5.17.03-3.5,1.52-6.66,1.62-10.11.16-5.94-.79-11.89-.84-17.83-.02-2.9.33-5.75.72-8.62-1.87-.74-2.99-1.57-4.26-3.12,1.37-3.3,3-6.49,4.46-9.75,1.56-3.55,3-7.14,4.33-10.78.97-2.63,1.4-5.38,2.29-8.02.51-1.53,1.24-3.08,2.21-4.37,2.05-2.74,5.3-4.04,8.27-5.51.4-2.23,1.44-3.47,3.27-4.76.91-.64,1.89-1.2,2.85-1.75-1.36-1.99-2.6-4.04-3.84-6.11-.55.39-1.16.94-1.89.77-1.37-.32-2.81-3.1-3.45-4.32-.78-1.49-1.89-3.82-1.3-5.55.13-.39.35-.68.73-.86.26-.12.55-.21.83-.3.03-1.13-.73-2.78-1.03-3.9-.32-1.24-.52-2.5-.6-3.77-.08-1.44-.07-3,.13-4.43.12-.83.75-2.04.67-2.8l-.84.71c.19-.67.51-1.27.85-1.87,2.98-5.19,7.6-8.3,13.28-9.81-.55-.44-1.05-.93-1.55-1.41,1.41.52,3.51,1.54,5.01,1.48.37-.02.66.03,1.02.1l.15.03.19.11-.19-.11v-.21ZM146.7,363.85c.4.83.61,1.56.87,2.43l.48.1c.21-.56.39-1.1.13-1.68-.16-.36-.54-.64-.9-.77-.18-.06-.39-.07-.58-.08M175.44,366.06c.26,1.05.43,2.38,1.34,3.06-.23-1.18-.42-2.19-1.34-3.06"/>
      </g>
      <g class="cls-4">
        <g class="cls-7">
          <path class="cls-12" d="M140.92,352.31l-.99.6c-1.42,5.07.14,6.98-.09,11.52-.1,2.05-.6,4.03-.85,6.05-.42,3.37-1.37,15.64-.66,18.49.34.28.76.58,1.04.92.76.94.52,3.41,1.32,4.04l.19-.06c.34.06.7.17,1.02.04.47-1.11.71-2.43,1.01-3.6.25-1.01.47-2.02.65-3.04.18-1.02.32-2.05.43-3.08.11-1.03.18-2.06.22-3.1.04-1.04.04-2.07,0-3.11-.09-2.67-.35-5.34-.31-8.01.03-2.57.6-9.03-.31-11.15-.43-1-1.29-1.77-1.72-2.78-.42-.99-.4-3.01-.97-3.74M154.57,266.65c-.15,2.13-.21,4.28-.52,6.39-.42,2.91-1.14,5.77-1.55,8.67-.14.94-.08,1.65.16,2.58.06.23.22.6.22.83,0,.23-.21.58-.31.77.41,1.35.76,2.71,1.11,4.07.54-1.02,1.06-2.06,1.62-3.06,1.75-3.24,3.77-6.51,5.1-9.94-.72-1.47-4.96-9.83-5.83-10.31M155.54,218.23c-.04.98-.07,1.9.71,2.63.03.03.07.06.11.09-.1-.85-.26-2.04-.81-2.72M129.18,243.86l.05.06c.62,1.41,1.57,2.97,2.66,4.05.8-.54,1.43-.88,2.39-1.03.09-.98.17-1.97.24-2.95-1.73-.43-2.82-.93-3.98-2.33-.54-.69-.98-1.45-1.43-2.2.11.49.23.97.37,1.45.76,2.79,1.99,3.55,4.33,4.9-1.72-.35-3.16-.84-4.57-1.9l-.05-.06ZM160.26,241.06l-.21.23-.03.04s-.09.09-.14.14c-2.11,2.17-1.82,3.83-5.34,4.53.38-.28.83-.54,1.14-.89-.16-.06-.47.1-.64.18-.04.02-.07.03-.11.05.29-.31.57-.63.86-.95l.04-.06-.04.06c-.85.34-1.7.67-2.6.85-.39.08-.71.14-1.06-.09.06-.17,1.21-1.03,1.48-1.4,1.58-2.14,2.3-4.52,2.93-7.07-1.29,2.34-2.53,3.96-5.01,5.05.28-.22.58-.44.85-.67,2.41-2.01,3.03-6.9,3.32-9.88-.35.82-.81,1.61-1.39,2.29-1.27,1.5-2.8,2.03-4.7,2.17-1.22,2-2.4,4.83-2.62,7.18-.08.82,0,1.64.05,2.45.44.05.94.09,1.31.35.47.33.55.92.64,1.45.84.44,1.64.95,2.49,1.36,1.78.87,3.88,1.53,5.35,2.9,2.06,1.92,4.6,6.52,5.57,9.24.22.61-.22,1.07.04,1.64.41.89.98,1.74,1.43,2.6,1.62,3.05,4.87,9.11,4.95,12.46.02.98-.23,1.86-.62,2.74-2.05,4.64-8.9,12.35-12.49,16.19,1.75,3.15,3.36,6.35,4.58,9.74,1.13,3.14,1.78,6.47,2.54,9.72,1.4,5.94,2.67,11.86,3.87,17.84.4,1.95.81,3.89,1.24,5.83.26,1.18.62,2.4.72,3.6.05.65-.03,1.11-.48,1.61-.92,1.02-2.62,1.05-3.89,1.13-.14.97-.43,1.64-1.21,2.28-2.44,1.99-6.84,1.68-9.77,1.4-.25,4.18.67,6.34,1.39,10.21.48,2.58.63,5.34.49,7.96-.44,8.3-4.39,16.12-4.17,24.46.28.37.52.74.69,1.18.38.98.39,2.03.58,3.05.34,1.76,1.37,4.95.53,6.65-.2.4-.55.73-.88,1.02-.87.74-1.93,1.26-2.83,1.97-1.28,1.02-2.31,2.31-3.7,3.19-.72.46-1.49.71-2.3.95-2.55.73-8.26,1.17-10.6-.21-.37-.22-.66-.53-.74-.96-.55-2.8,2.52-4.34,3.8-6.29.02-.04.05-.07.07-.11-.8.29-1.63.59-2.32,1.09-.63.46-1.11,1.09-1.65,1.65-1.11,1.16-2.85,1.72-4.39,1.97-2.49.41-5.49.24-7.59-1.27-.13-.42-.22-.88-.25-1.32-.2-3.07,2.06-4.71,4.28-6.28.51-.36,1.2-.76,1.61-1.23.44-.49.54-1.29.99-1.81.89-1.03,1.44-2.29,2.32-3.3.28-.09.59-.17.76-.42.84-1.24,1.11-3.32,1.13-4.79.02-1.66-.16-3.31-.31-4.96-.45-4.88-1.32-9.74-1.64-14.63-.13-2.06-.2-4.14-.14-6.2.08-2.63.41-5.19-.1-7.8-2.39-.39-5.26-.8-7.2-2.38-.98-.8-1.26-1.63-1.36-2.84-1.01-.29-2.01-.68-2.96-1.12-2.15-.99-3.74-2.1-4.58-4.39.21-1.86.8-3.7,1.04-5.57.45-3.55.73-7.13,1.21-10.68.3-2.32.68-4.62,1.13-6.91.45-2.29.98-4.57,1.58-6.82-.83-.63-1.97-2.26-1.98-3.33,0-.47.3-.85.15-1.32-.96-.98-.4-1.5.24-2.45.89-1.31,2.43-3.56,2.76-5.11.49-2.33.22-5.02.19-7.4-.04-2.53.04-5.06.24-7.59.28-3.32,1.33-6.4,1.98-9.64.61-3.04.86-8.52.76-11.63-.43-.28-.84-.58-1.24-.89.45-2.89.71-6.18,1.84-8.88,1.91-4.56,5.44-4.55,9.45-6.18l.13-.05c-2.26-.99-3.69-3.13-5.02-5.1.49,1.56,1.03,2.68,1.96,4.02-.33-.26-.64-.54-.94-.84-.29-.3-.57-.61-.83-.95-4.36-5.57-4.49-13.42-2.67-19.96.42-1.51,1.3-2.86,1.63-4.4.29-1.35.07-2.8.25-4.18.38-2.88,2.2-5.59,4.47-7.33,2.51-1.92,5.23-2.63,8.35-2.2,2.45-1.07,4.71-.93,7.23-.13,3.71,1.18,6.79,3.55,8.58,7.02,1.07.1,2.01.33,2.93.89,3.16,1.91,4.69,6.43,5.49,9.81,1.04,4.38,1.78,11.69-.67,15.68.51-1.74.69-3.31.7-5.12-.77,2.41-.97,5.82-2.9,7.65.46-1.4.69-2.86,1.05-4.29-1.15,2.44-1.02,4.4-3.37,6.24.69-1.13,1.57-2.18,2.04-3.43l.03-.04.21-.23.05-.16-.05.16Z"/>
          <path class="cls-11" d="M143.01,323.38c-.88-.79-1.66-1.65-2.49-2.46-2.3-2.22-3.38-5.25-5.51-7.63-2.61-2.91-3.9-6.67-4.75-10.6-.9-4.21-3.16-6.38-7.68-6.16-.93.04-1.83-.11-2.72-.38-.63-.19-.8-.46-.49-1.13.61-1.33,1.08-2.72,1.65-4.07.23-.53,1.51-2.49,1.92-5.39.2-1.4.84-2.28.36-3.51-.33-.86-.76-1.71-.68-2.65.24-2.63-.94-4.84-2.15-7-.55-.99-1.34-1.86-2.3-2.54-1.67-1.19-3.56-1.96-5.46-2.62-1.5-.52-3.17-.96-4.66-.09-1.17.68-2.33,1.35-3.56,1.92-2.22,1.04-3.81,2.68-4.85,4.91-1.47,3.15-1.66,6.37-.75,9.7.06.23.22,3.19.74,3.84.97,1.23,1.2,2.77,1.97,4.04.8,1.2,2.14,1.08,2.44,1.91.12.34.3.67.36,1.02.14.81,1.47,1.32.73,2.3-.53.7-1.44.98-2.21,1.41-.4.22-.84.24-1.28.28-4.58.42-7.04,2.78-7.45,7.38-.19,2.15-.59,4.12-2.33,5.76-.09-1.54-1.32-2.42-1.79-3.7-.17-.48-.71-.65-1.23-.49-1.99.62-3.81,1.53-4.95,3.37-.74,1.19-.99,2.44,0,3.67.57.71,1.08,1.49,1.66,2.19,1.03,1.22,1.67,2.73,2.89,3.82,1.94,1.74,5.73,2.27,7.62.96,1.49-1.04,2.79-2.27,3.38-4.08.18-.54.45-1.06.73-1.68.63.72.53,1.45.59,2.09.16,1.71.92,3.53.39,5.09-.91,2.66-.89,5.43-1.5,8.11-.32,1.42-1.23,6.98-1.27,7.88-.02.5-.11.98-.36,1.37-1.06,1.67-1.34,3.5-1.19,5.42.4,5.23-.53,10.36-1.06,15.52-.25,2.47-1.13,4.83-1.12,7.35,0,4.59,1.85,8.88,2.21,13.42.17,2.07.85,4.09-.74,5.91-.28.32-.41.78-.56,1.19-.75,2-.19,3.11,1.87,3.73,1.71.52,3.49.39,5.24.54,2.03.17,3.15-1.16,2.61-3.16-.14-.52-.11-1.01-.08-1.54.15-3.06.71-6.09.19-9.2-.28-1.67-.65-3.4-.28-5.18.4-1.92.7-3.87.82-5.82.13-2,4.69-11.96,4.79-14.51.04-1.07,1.07-.99,1.78-.77.66.2,1.16.67.78,1.56-.29.66-.32,1.38-.17,2.12.32,1.53-.39,3.17.48,4.66.06.11-.06.4-.17.54-1.6,1.96-2.04,4.31-2.3,6.72-.41,3.73-2.47,6.97-2.96,10.7-.33,2.52.59,4.55,3.07,5.1,1.14.25,2.24.58,3.32,1,1.92.75,3.96.94,5.98,1.17.82.09,1.58-.18,2.33-.49.81-.34,1.32-1,1.37-1.83.05-.89-.22-1.8-1.13-2.22-1.34-.62-2.53-1.52-3.92-2.06-1.89-.73-1.91-.84-1.34-2.75.07-.22.1-.48.06-.71-.09-.53.07-.92.45-1.29.7-.67,1.14-1.54,1.63-2.36,2.46-4.14,3.34-8.88,5.1-13.29.54-1.35.41-2.87.96-4.2,1.58-3.86,2.08-7.87,1.88-12-.05-1.12-.28-2.2-.64-3.24,0,0,0,0,0,0,.1-1.4-1.73-4.62-1.73-4.62-.34-.36.31-3.11.45-3.53,1.35-4.16,2.47-8.36,2.17-12.86,2.13,2.71,4.55,5,7.6,6.57.99.51,1.51,1.49,2.26,2.21,1.35,1.29,1.5,2.4.85,4.1-.51,1.31.46,2.09,1.66,1.46,1.77-.92,3.52-1.89,3.78-4.25.24-2.15.5-4.31-1.31-5.93"/>
        </g>
      </g>
      <g class="cls-6">
        <path class="cls-13" d="M91,52.7c.08.07.13.19.13.35,0,.21-.08.42-.23.6s-.42.27-.81.27c-.72,0-1.3-.1-1.75-.31s-.78-.56-.99-1.06c-.44.1-.87.15-1.28.15-.58,0-1.08-.08-1.52-.24-.43-.16-.76-.38-1-.66-.23-.28-.35-.62-.35-1.01,0-.43.15-.88.46-1.34.31-.46.75-.89,1.35-1.29.59-.4,1.29-.73,2.11-.98v-.83l1.21-.55.12.03v5.28c0,.43.07.75.2.96.14.2.34.34.62.41.28.07.67.1,1.18.1.27,0,.45.04.54.11M85.33,44.72l-1.38-.97.83-1.29,1.38.95-.83,1.31ZM87.12,51.29v-2.73c-.76.24-1.4.54-1.92.89-.52.36-.82.71-.91,1.06.09.29.32.5.7.65.38.15.76.22,1.16.22.32,0,.64-.04.97-.1M87.7,44.72l-1.38-.97.87-1.29,1.38.95-.87,1.31Z"/>
        <path class="cls-13" d="M90.43,52.61h1.36c.27,0,.46.04.55.11s.14.18.14.33c0,.22-.07.42-.22.6-.15.18-.41.27-.8.27h-1.36l.32-1.31Z"/>
        <path class="cls-13" d="M91.79,52.61h1.36c.27,0,.46.04.55.11s.14.18.14.33c0,.22-.07.42-.22.6-.15.18-.41.27-.8.27h-1.36l.32-1.31Z"/>
        <path class="cls-13" d="M98.68,52.71c.1.08.15.19.15.34,0,.21-.07.41-.22.6-.15.18-.42.27-.8.27-.43,0-.84-.07-1.24-.22-.39-.15-.7-.41-.93-.78-.27.36-.64.62-1.1.77-.46.15-1.03.23-1.71.23l.34-1.33c.36,0,.67-.02.93-.06.26-.04.48-.13.67-.26.08-.36.12-.81.12-1.35v-8.31l1.19-.31.14.05v8.36c0,.56.08.97.23,1.24.15.27.36.44.62.52.26.08.61.12,1.06.12.27,0,.46.04.55.12"/>
        <path class="cls-13" d="M98.12,52.61h1.36c.27,0,.46.04.55.11s.14.18.14.33c0,.22-.07.42-.22.6-.15.18-.41.27-.8.27h-1.36l.32-1.31Z"/>
        <path class="cls-13" d="M99.49,52.61h1.36c.27,0,.46.04.55.11s.14.18.14.33c0,.22-.07.42-.22.6-.15.18-.41.27-.8.27h-1.36l.32-1.31Z"/>
        <path class="cls-13" d="M108.58,50.26c.51.19.96.3,1.37.32l-.32,1.23c-.71.08-1.42.21-2.14.39-.72.18-1.54.43-2.46.75-1.07.36-1.93.61-2.59.76-.66.14-1.29.21-1.91.21l.32-1.33c.55,0,1.09-.05,1.64-.16.55-.11,1.28-.3,2.19-.59,1.07-.34,1.97-.58,2.71-.72-.41-.18-.81-.39-1.19-.61-.65-.38-1.18-.64-1.61-.78-.43-.15-.83-.22-1.22-.22-.51,0-1.08.11-1.7.32l-.05-.07.51-1.23c.21-.1.44-.18.72-.25.27-.06.53-.09.78-.09.36,0,.77.08,1.21.26.44.17,1.05.46,1.82.89.77.42,1.41.73,1.92.92"/>
        <path class="cls-13" d="M116.8,52.71c.1.08.15.19.15.34,0,.21-.07.41-.22.6-.15.18-.42.27-.8.27-.61,0-1.09-.15-1.43-.46-.18.52-.5,1.02-.96,1.49-.46.47-1.04.88-1.75,1.23-.7.35-1.5.6-2.39.76l-.71-.99.07-.14c1.53-.3,2.68-.73,3.43-1.3.75-.57,1.22-1.23,1.4-1.98-.21-.59-.64-1.54-1.31-2.86l.99-1.06h.17c.26.73.54,1.45.83,2.18l.17.44c.16.41.3.7.43.89.13.18.29.31.49.38.2.07.49.1.88.1.27,0,.46.04.55.12"/>
        <path class="cls-13" d="M116.25,52.61h1.36c.27,0,.46.04.55.11s.14.18.14.33c0,.22-.07.42-.22.6-.15.18-.41.27-.8.27h-1.36l.32-1.31Z"/>
        <path class="cls-13" d="M117.61,52.61h1.36c.27,0,.46.04.55.11s.15.18.15.33c0,.22-.07.42-.22.6-.15.18-.41.27-.8.27h-1.36l.32-1.31Z"/>
        <path class="cls-13" d="M128.57,52.7c.11.07.17.19.17.35,0,.26-.1.47-.29.63-.19.16-.45.24-.77.24-.36,0-.68-.05-.96-.14-.28-.09-.53-.23-.76-.43-.12.26-.29.45-.51.58s-.49.19-.82.19c-.49,0-1.04-.12-1.65-.35-.61-.23-1.19-.55-1.74-.95-.24.31-.47.54-.68.69-.21.15-.47.26-.76.32-.29.06-.67.09-1.15.09l.36-1.33c.24,0,.44-.03.59-.08.15-.06.29-.16.43-.31.13-.15.29-.37.49-.67.14-.2.26-.41.36-.63.28-.51.54-.93.76-1.25.22-.32.49-.61.82-.85.32-.24.69-.37,1.1-.37s.76.12,1.04.35c.28.23.52.51.71.83.19.32.44.81.76,1.46.22.44.4.77.57.98s.35.35.55.43c.2.07.49.11.85.11.25,0,.43.04.54.11M124.87,52.71c.15-.07.27-.18.36-.32l-.14-.31c-.35-.84-.65-1.44-.89-1.79-.24-.35-.47-.53-.7-.53-.27,0-.54.18-.8.54-.26.36-.55.86-.87,1.51.44.3.89.54,1.35.72.46.19.84.28,1.13.28.22,0,.4-.03.54-.1"/>
        <path class="cls-13" d="M128.04,52.61h1.36c.27,0,.46.04.55.11s.15.18.15.33c0,.22-.07.42-.22.6-.15.18-.41.27-.8.27h-1.36l.32-1.31Z"/>
        <path class="cls-13" d="M129.4,52.61h1.36c.27,0,.46.04.55.11s.14.18.14.33c0,.22-.07.42-.22.6-.15.18-.41.27-.8.27h-1.36l.32-1.31Z"/>
        <path class="cls-13" d="M130.78,52.59c.36,0,.67-.02.93-.06.26-.04.48-.13.67-.26.08-.36.12-.81.12-1.35v-8.31l1.19-.31.14.05v8.42c0,.81-.13,1.44-.4,1.9-.27.46-.65.78-1.13.97-.49.19-1.11.28-1.86.28l.34-1.33Z"/>
        <path class="cls-13" d="M143.55,48.9c.46.48.79.93.99,1.35.2.41.3.85.3,1.32s-.12.87-.37,1.24c-.24.37-.58.67-1,.89-.43.21-.91.32-1.44.32-.76,0-1.36-.19-1.79-.56-.43-.37-.65-.9-.65-1.58,0-.42.12-.9.37-1.43.24-.53.64-1.16,1.18-1.89l-.36-.27.65-1.17.14-.07c.86.76,1.53,1.38,1.98,1.86M141.09,45.55l-1.38-.97.84-1.29,1.38.95-.83,1.31ZM143.19,52.4c.24-.19.37-.47.37-.82s-.13-.72-.38-1.09c-.26-.38-.63-.78-1.13-1.21-.46.49-.78.92-.97,1.29-.19.37-.29.71-.29,1.01,0,.34.12.61.37.81.25.2.59.3,1.01.3.44,0,.79-.1,1.03-.29M143.45,45.55l-1.38-.97.87-1.29,1.38.95-.87,1.31Z"/>
        <path class="cls-13" d="M147.4,53.95c-.4-.03-.75-.08-1.03-.15l.19-1.24.08-.07c.24.06.55.1.93.13.38.03.7.04.95.04.61,0,1.19-.06,1.75-.18.55-.12.9-.27,1.06-.47-.1-.62-.39-1.29-.86-2-.47-.71-1.06-1.41-1.78-2.09l.72-1.26h.12c1.92,2.01,2.88,3.63,2.88,4.87,0,1.65-1.35,2.47-4.04,2.47-.24,0-.56-.02-.96-.05"/>
        <path class="cls-13" d="M161.25,52.71c.1.08.15.19.15.34,0,.22-.08.41-.23.6-.15.18-.42.27-.81.27h-1.26c-.19.56-.5,1.06-.93,1.5-.43.44-.98.8-1.66,1.07-.68.27-1.48.42-2.39.44l-.71-.99.09-.14c1.06-.04,1.96-.23,2.72-.55s1.3-.77,1.64-1.34h-.51c-1.03,0-1.81-.19-2.33-.57-.52-.38-.77-.92-.77-1.61,0-.52.11-1.04.34-1.56.23-.52.53-.94.92-1.26.38-.32.8-.49,1.24-.49.5,0,.95.18,1.35.55.4.37.7.87.92,1.49.21.63.32,1.3.32,2.03v.08h1.35c.27,0,.46.04.56.12M158.26,52.59v-.1c0-.48-.07-.93-.22-1.35-.15-.42-.34-.76-.59-1.01s-.49-.37-.74-.37c-.21,0-.43.08-.64.23-.21.15-.38.37-.52.65-.14.28-.21.59-.21.94s.17.59.51.76c.34.16.9.25,1.67.25h.73Z"/>
        <path class="cls-13" d="M160.71,52.61h1.36c.27,0,.46.04.55.11s.14.18.14.33c0,.22-.07.42-.22.6-.15.18-.41.27-.8.27h-1.36l.32-1.31Z"/>
        <path class="cls-13" d="M162.07,52.61h1.36c.27,0,.46.04.55.11s.14.18.14.33c0,.22-.07.42-.22.6-.15.18-.41.27-.8.27h-1.36l.32-1.31Z"/>
        <path class="cls-13" d="M174.32,52.71c.09.08.14.19.14.34,0,.22-.07.41-.2.6-.14.18-.4.27-.78.27-.75,0-1.38-.06-1.89-.18-.51-.12-.92-.3-1.24-.54-.31-.24-.57-.54-.78-.9-.58.17-1.23.38-1.94.63-1.1.38-1.97.63-2.61.77-.64.14-1.27.21-1.91.21l.32-1.33c.56,0,1.11-.05,1.66-.16.55-.11,1.27-.3,2.17-.59,1.06-.35,1.95-.6,2.69-.73-.33-.15-.72-.35-1.17-.6-.68-.38-1.23-.64-1.64-.78-.41-.15-.81-.22-1.18-.22-.53,0-1.1.11-1.7.34l-.05-.07.51-1.24c.2-.1.44-.18.71-.25.27-.06.53-.09.78-.09.35,0,.75.09,1.18.26.44.17,1.04.45,1.81.85.83.44,1.49.76,1.98.94.49.18.94.28,1.35.31l-.31,1.23c-.53.07-.96.13-1.28.19.25.24.59.4,1.03.49.44.09,1.04.14,1.81.14.26,0,.44.04.53.12M167.8,57.48l-1.4-.97.87-1.28,1.4.94-.87,1.31Z"/>
        <path class="cls-13" d="M173.76,52.61h1.36c.27,0,.46.04.55.11s.15.18.15.33c0,.22-.07.42-.22.6-.15.18-.41.27-.8.27h-1.36l.32-1.31Z"/>
        <path class="cls-13" d="M175.12,52.61h1.36c.27,0,.46.04.55.11s.14.18.14.33c0,.22-.07.42-.22.6-.15.18-.41.27-.8.27h-1.36l.32-1.31Z"/>
        <path class="cls-13" d="M176.5,52.59c.36,0,.67-.02.93-.06.26-.04.48-.13.67-.26.08-.36.12-.81.12-1.35v-8.31l1.19-.31.14.05v8.42c0,.81-.13,1.44-.4,1.9-.27.46-.65.78-1.13.97-.49.19-1.11.28-1.86.28l.34-1.33Z"/>
        <polygon class="cls-13" points="181.87 54 181.76 53.95 181.76 42.61 183.01 42.28 183.09 42.35 183.08 53.75 181.87 54"/>
        <path class="cls-13" d="M187.13,55.95l.07-.14c1.02-.18,1.89-.45,2.61-.8.72-.35,1.25-.73,1.61-1.14.36-.41.54-.78.54-1.12-.02-.33-.15-.78-.38-1.35-.23-.57-.51-1.15-.85-1.75l.99-1.04h.14c.36.67.66,1.35.89,2.05.23.7.34,1.29.34,1.78,0,.29-.04.58-.12.88-.08.3-.19.59-.34.86-.23.41-.57.8-1.02,1.17-.45.37-1,.69-1.64.97-.64.28-1.34.49-2.1.62l-.72-.99Z"/>
        <path class="cls-13" d="M195.99,53.29c-.52-.42-.78-1.15-.78-2.18v-8.5l1.23-.31.1.05v8.6c0,.44.06.78.2,1.01.13.23.33.39.61.48.28.09.67.14,1.17.14.26,0,.44.04.54.12.1.08.15.19.15.34,0,.21-.08.41-.23.6-.15.18-.42.27-.81.27-.93,0-1.66-.21-2.18-.63"/>
        <path class="cls-13" d="M198.51,52.61h1.36c.27,0,.46.04.55.11s.14.18.14.33c0,.22-.07.42-.22.6-.15.18-.41.27-.8.27h-1.36l.32-1.31Z"/>
        <path class="cls-13" d="M199.87,52.61h1.36c.27,0,.46.04.55.11s.15.18.15.33c0,.22-.07.42-.22.6-.15.18-.41.27-.8.27h-1.36l.32-1.31Z"/>
        <path class="cls-13" d="M209.38,48.6c.39.26.69.59.92,1.01.23.42.34.86.34,1.33s-.09.89-.28,1.26c-.19.38-.43.69-.72.94-.26.22-.58.38-.96.49-.38.11-.84.19-1.38.23-.54.04-1.24.06-2.09.06h-4.29l.34-1.33h.7l.82-.8v-9.18l1.23-.31.1.05v8.21c.88-.78,1.63-1.37,2.27-1.76.64-.39,1.22-.59,1.75-.59.46,0,.87.13,1.26.38M209.33,51.74c.06-.19.09-.39.09-.6,0-.24-.07-.48-.2-.73-.13-.25-.31-.46-.53-.63-.22-.17-.46-.26-.72-.26-.48,0-1.06.26-1.76.78-.69.52-1.56,1.28-2.59,2.29h1.48c1.27,0,2.18-.02,2.73-.08.55-.05.97-.15,1.27-.3.09-.12.17-.28.22-.48"/>
        <path class="cls-13" d="M215.02,57.99c-.9.11-1.98.19-3.25.24l-.09-.92c.34,0,.6,0,.77-.02-.2-.32-.31-.65-.31-1.01,0-.41.12-.74.37-.98.24-.24.59-.37,1.03-.37.38,0,.77.08,1.19.24l-.24.9c-.34-.12-.61-.19-.8-.19-.21,0-.36.06-.47.19-.11.12-.16.28-.16.46,0,.27.11.51.34.71.47-.03.98-.08,1.53-.14l.09.87ZM212.78,54l-.1-.05v-11.35l1.24-.32.08.07-.02,11.4-1.21.25Z"/>
        <path class="cls-13" d="M87.84,69.34c.46.48.79.93.99,1.35.2.42.3.86.3,1.32s-.12.87-.36,1.24c-.25.37-.58.67-1.01.89-.43.21-.91.32-1.44.32-.76,0-1.36-.19-1.79-.56-.43-.37-.65-.9-.65-1.58,0-.42.12-.9.37-1.43.24-.53.64-1.16,1.18-1.89l-.36-.27.65-1.18.14-.07c.86.76,1.53,1.38,1.98,1.87M85.38,66l-1.38-.97.83-1.29,1.38.95-.83,1.31ZM87.48,72.84c.25-.19.37-.47.37-.82s-.13-.71-.38-1.09c-.25-.38-.63-.78-1.13-1.21-.46.49-.78.92-.97,1.29-.19.37-.29.71-.29,1.01,0,.34.12.61.37.81.25.2.58.3,1,.3.44,0,.79-.1,1.03-.29M87.74,66l-1.38-.97.87-1.29,1.38.95-.87,1.31Z"/>
        <path class="cls-13" d="M96.51,73.15c.1.08.14.19.14.34,0,.21-.07.41-.22.6-.15.18-.41.27-.8.27-.61,0-1.09-.15-1.43-.46-.18.52-.5,1.02-.96,1.49-.46.47-1.04.88-1.75,1.23-.7.35-1.5.6-2.39.76l-.71-.99.07-.14c1.53-.3,2.68-.73,3.43-1.3.75-.57,1.22-1.23,1.4-1.98-.21-.59-.64-1.54-1.31-2.86l.99-1.06h.17c.26.73.54,1.45.83,2.18l.17.44c.16.41.3.7.43.88.13.18.3.31.49.38.2.07.49.1.88.1.27,0,.46.04.55.12"/>
        <path class="cls-13" d="M95.95,73.05h1.36c.27,0,.46.04.55.11s.14.18.14.33c0,.22-.07.41-.22.6-.15.18-.41.27-.8.27h-1.36l.32-1.31Z"/>
        <path class="cls-13" d="M97.32,73.05h1.36c.27,0,.46.04.55.11s.14.18.14.33c0,.22-.07.41-.22.6-.15.18-.41.27-.8.27h-1.36l.32-1.31Z"/>
        <path class="cls-13" d="M98.68,73.05h1.36c.27,0,.46.04.55.11s.14.18.14.33c0,.22-.07.41-.22.6-.15.18-.41.27-.8.27h-1.36l.32-1.31Z"/>
        <path class="cls-13" d="M100.04,73.05h1.36c.27,0,.46.04.55.11s.15.18.15.33c0,.22-.07.41-.22.6-.15.18-.41.27-.8.27h-1.36l.32-1.31Z"/>
        <path class="cls-13" d="M110.34,73.15c.1.08.14.19.14.34,0,.21-.07.41-.22.6-.15.18-.42.27-.8.27-.9,0-1.7-.42-2.42-1.26-.19.35-.49.62-.9.8-.41.18-.92.3-1.53.37-.61.06-1.4.09-2.39.09h-1.14l.32-1.33h1.77c1.07,0,1.82-.06,2.27-.19.44-.12.74-.3.89-.51-.28-.45-.82-1.06-1.62-1.83-.8-.76-1.61-1.5-2.45-2.2l-.07-.1.36-1.74,5.59-3.16.12.05-.44,1.67-4.36,2.43c.86.81,1.57,1.5,2.13,2.06.56.57,1.1,1.14,1.62,1.71.42.48.75.83.99,1.07.24.23.49.41.74.54.26.13.54.2.86.2.27,0,.46.04.55.12"/>
        <path class="cls-13" d="M109.79,73.05h1.36c.27,0,.46.04.55.11s.14.18.14.33c0,.22-.07.41-.22.6-.15.18-.41.27-.8.27h-1.36l.32-1.31Z"/>
        <path class="cls-13" d="M111.15,73.05h1.36c.27,0,.46.04.55.11s.14.18.14.33c0,.22-.07.41-.22.6-.15.18-.41.27-.8.27h-1.36l.32-1.31Z"/>
        <path class="cls-13" d="M112.51,73.05h1.36c.27,0,.46.04.55.11s.14.18.14.33c0,.22-.07.41-.22.6-.15.18-.41.27-.8.27h-1.36l.32-1.31Z"/>
        <path class="cls-13" d="M113.87,73.05h1.36c.27,0,.46.04.55.11s.14.18.14.33c0,.22-.07.41-.22.6-.15.18-.41.27-.8.27h-1.36l.32-1.31Z"/>
        <path class="cls-13" d="M121.17,73.15c.1.08.15.19.15.34,0,.22-.07.41-.22.6-.15.18-.42.27-.8.27-.43,0-.87-.07-1.3-.2-.44-.13-.83-.34-1.17-.64-.28.28-.63.49-1.05.63-.41.14-.92.2-1.51.2h-.36l.34-1.33h.38c.67,0,1.15-.11,1.43-.32.12-.18.25-.47.37-.86.12-.39.27-.97.45-1.73l1.31-.32.17.1c-.25,1.14-.52,2.01-.82,2.61.24.16.52.29.85.38.33.1.74.14,1.24.14.26,0,.44.04.54.12M118.2,77.92l-1.4-.97.87-1.28,1.4.94-.87,1.31Z"/>
        <path class="cls-13" d="M120.62,73.05h1.36c.27,0,.46.04.55.11s.15.18.15.33c0,.22-.07.41-.22.6-.15.18-.41.27-.8.27h-1.36l.32-1.31Z"/>
        <path class="cls-13" d="M121.98,73.05h1.36c.27,0,.46.04.55.11s.15.18.15.33c0,.22-.07.41-.22.6-.15.18-.41.27-.8.27h-1.36l.32-1.31Z"/>
        <path class="cls-13" d="M123.34,73.05h1.36c.27,0,.46.04.55.11s.15.18.15.33c0,.22-.07.41-.22.6-.15.18-.41.27-.8.27h-1.36l.32-1.31Z"/>
        <path class="cls-13" d="M124.71,73.05h1.36c.27,0,.46.04.55.11s.15.18.15.33c0,.22-.07.41-.22.6-.15.18-.41.27-.8.27h-1.36l.32-1.31Z"/>
        <path class="cls-13" d="M135.66,73.14c.11.07.17.19.17.35,0,.26-.1.47-.29.63-.19.16-.45.24-.77.24-.36,0-.68-.04-.96-.14-.28-.09-.53-.23-.76-.43-.12.26-.29.45-.51.58-.22.12-.49.19-.82.19-.49,0-1.04-.12-1.65-.35-.61-.23-1.19-.55-1.74-.95-.24.31-.47.54-.68.69-.21.15-.47.26-.76.32-.29.06-.67.08-1.15.08l.36-1.33c.24,0,.44-.03.59-.09.15-.06.29-.16.43-.31.13-.15.29-.37.49-.67.14-.2.26-.41.36-.63.28-.51.54-.93.76-1.25.22-.32.49-.61.82-.85.32-.24.69-.37,1.1-.37s.76.12,1.04.35c.28.23.52.51.71.83.19.32.44.81.76,1.46.22.44.41.77.57.98s.35.35.55.43c.2.07.49.11.85.11.25,0,.43.04.54.11M131.96,73.15c.15-.07.27-.18.36-.32l-.14-.31c-.35-.84-.65-1.44-.89-1.79-.24-.35-.47-.53-.7-.53-.27,0-.54.18-.8.54-.26.36-.55.86-.87,1.51.44.3.9.54,1.35.72.46.19.84.28,1.13.28.22,0,.4-.03.54-.1"/>
        <path class="cls-13" d="M135.13,73.05h1.36c.27,0,.46.04.55.11s.14.18.14.33c0,.22-.07.41-.22.6-.15.18-.41.27-.8.27h-1.36l.32-1.31Z"/>
        <path class="cls-13" d="M136.49,73.05h1.36c.27,0,.46.04.55.11s.14.18.14.33c0,.22-.07.41-.22.6-.15.18-.41.27-.8.27h-1.36l.32-1.31Z"/>
        <path class="cls-13" d="M137.86,73.05h1.36c.27,0,.46.04.55.11s.15.18.15.33c0,.22-.07.41-.22.6-.15.18-.41.27-.8.27h-1.36l.32-1.31Z"/>
        <path class="cls-13" d="M139.22,73.05h1.36c.27,0,.46.04.55.11s.14.18.14.33c0,.22-.07.41-.22.6-.15.18-.41.27-.8.27h-1.36l.32-1.31Z"/>
        <path class="cls-13" d="M140.6,73.03c.36,0,.67-.02.93-.06.26-.04.48-.13.67-.26.08-.36.12-.81.12-1.35v-8.31l1.19-.31.14.05v8.42c0,.81-.13,1.44-.4,1.9-.27.46-.65.78-1.13.97-.49.19-1.11.28-1.86.28l.34-1.33Z"/>
        <polygon class="cls-13" points="145.97 74.44 145.86 74.39 145.86 63.05 147.11 62.72 147.19 62.79 147.18 74.19 145.97 74.44"/>
        <path class="cls-13" d="M160.69,73.14c.09.07.13.19.13.35,0,.21-.08.42-.23.6s-.42.27-.81.27c-.72,0-1.3-.1-1.76-.31-.45-.2-.78-.56-.99-1.06-.44.1-.87.15-1.28.15-.58,0-1.08-.08-1.52-.24-.43-.16-.76-.38-1-.66-.23-.28-.35-.62-.35-1.01,0-.43.15-.88.46-1.34.31-.46.76-.89,1.35-1.29.59-.4,1.29-.73,2.11-.98v-.83l1.21-.55.12.03v5.28c0,.43.07.75.2.96.14.2.34.34.62.41.28.07.67.1,1.18.1.27,0,.45.04.54.11M155.03,65.16l-1.38-.97.83-1.29,1.38.95-.83,1.31ZM156.82,71.74v-2.72c-.76.24-1.4.54-1.92.89-.52.36-.82.71-.91,1.06.09.29.32.5.7.65.38.15.76.22,1.16.22.32,0,.64-.04.97-.1M157.4,65.16l-1.38-.97.87-1.29,1.38.95-.87,1.31Z"/>
        <path class="cls-13" d="M160.14,73.03c.36,0,.67-.02.93-.06.26-.04.48-.13.67-.26.08-.36.12-.81.12-1.35v-8.31l1.19-.31.14.05v8.42c0,.81-.13,1.44-.4,1.9-.27.46-.65.78-1.13.97-.49.19-1.11.28-1.86.28l.34-1.33Z"/>
        <path class="cls-13" d="M172.47,73.15c.1.08.15.19.15.34,0,.22-.08.42-.23.6-.15.18-.42.27-.81.27h-1.26c-.19.56-.5,1.06-.93,1.5-.43.44-.98.8-1.66,1.07-.68.27-1.48.42-2.39.44l-.71-.99.09-.14c1.06-.04,1.96-.23,2.72-.55s1.3-.77,1.64-1.34h-.51c-1.03,0-1.81-.19-2.33-.57-.52-.38-.77-.92-.77-1.61,0-.52.11-1.04.34-1.56.23-.52.53-.94.92-1.26.38-.32.8-.49,1.24-.49.5,0,.95.18,1.35.55.4.37.7.87.92,1.49.21.63.32,1.3.32,2.03v.08h1.35c.27,0,.46.04.56.12M169.47,73.03v-.1c0-.48-.07-.93-.22-1.35-.15-.42-.34-.76-.59-1.01s-.49-.37-.74-.37c-.21,0-.43.08-.64.23-.21.15-.38.37-.52.65-.14.28-.21.59-.21.94s.17.59.51.76c.34.16.9.25,1.67.25h.73Z"/>
        <path class="cls-13" d="M171.93,73.05h1.36c.27,0,.46.04.55.11s.14.18.14.33c0,.22-.07.41-.22.6-.15.18-.41.27-.8.27h-1.36l.32-1.31Z"/>
        <path class="cls-13" d="M173.29,73.05h1.36c.27,0,.46.04.55.11s.15.18.15.33c0,.22-.07.41-.22.6-.15.18-.41.27-.8.27h-1.36l.32-1.31Z"/>
        <path class="cls-13" d="M174.65,73.05h1.36c.27,0,.46.04.55.11s.15.18.15.33c0,.22-.07.41-.22.6-.15.18-.41.27-.8.27h-1.36l.32-1.31Z"/>
        <path class="cls-13" d="M176.01,73.05h1.36c.27,0,.46.04.55.11s.15.18.15.33c0,.22-.07.41-.22.6-.15.18-.41.27-.8.27h-1.36l.32-1.31Z"/>
        <path class="cls-13" d="M185.48,73.15c.1.08.14.19.14.34,0,.22-.08.41-.23.6-.15.18-.42.27-.81.27h-1.07c-.4,0-.82-.04-1.25-.13-.44-.08-.86-.2-1.27-.35-.87.32-1.9.48-3.07.48h-.87l.34-1.33h1.62c.2,0,.35,0,.44-.02-.31-.26-.55-.55-.72-.86s-.25-.65-.25-1.01c0-.49.13-.97.38-1.45.26-.48.59-.87,1.01-1.17.42-.31.86-.46,1.31-.46.39,0,.76.13,1.11.39.35.26.64.59.85,1,.21.4.32.81.32,1.22,0,.93-.31,1.69-.94,2.28.42.06.82.08,1.21.08h1.18c.27,0,.46.04.55.12M179.98,71.83c.26.29.62.53,1.09.72.4-.2.71-.45.94-.75.23-.3.34-.61.34-.95,0-.24-.07-.47-.2-.7-.14-.23-.31-.41-.52-.55-.21-.14-.42-.21-.62-.21-.22,0-.43.08-.66.23-.22.15-.4.35-.54.59-.14.24-.21.48-.21.71,0,.32.13.62.39.91M181.43,66.11l-1.4-.97.87-1.29,1.4.95-.87,1.31Z"/>
        <path class="cls-13" d="M184.92,73.05h1.36c.27,0,.46.04.55.11s.15.18.15.33c0,.22-.07.41-.22.6-.15.18-.41.27-.8.27h-1.36l.32-1.31Z"/>
        <path class="cls-13" d="M186.29,73.05h1.36c.27,0,.46.04.55.11s.15.18.15.33c0,.22-.07.41-.22.6-.15.18-.41.27-.8.27h-1.36l.32-1.31Z"/>
        <path class="cls-13" d="M187.65,73.05h1.36c.27,0,.46.04.55.11s.14.18.14.33c0,.22-.07.41-.22.6-.15.18-.41.27-.8.27h-1.36l.32-1.31Z"/>
        <path class="cls-13" d="M189.01,73.05h1.36c.27,0,.46.04.55.11s.15.18.15.33c0,.22-.07.41-.22.6-.15.18-.41.27-.8.27h-1.36l.32-1.31Z"/>
        <path class="cls-13" d="M201.88,73.15c.1.08.14.19.14.34,0,.22-.07.42-.22.6-.15.18-.41.27-.8.27s-.8-.06-1.22-.17c-.42-.11-.78-.3-1.1-.55-.39.28-.9.47-1.55.57-.65.1-1.58.15-2.79.15h-4.29l.34-1.33h.7l.82-.8v-9.18l1.23-.31.1.05v8.21c.88-.78,1.63-1.37,2.27-1.76.64-.39,1.22-.59,1.75-.59.45,0,.87.13,1.26.38.39.26.69.59.92,1.01.23.42.34.86.34,1.33s-.1.9-.29,1.26c.5.26,1.12.39,1.86.39.26,0,.44.04.54.12M196.98,72.95c.55-.05.97-.15,1.27-.3.09-.12.17-.28.22-.48.06-.19.09-.39.09-.6,0-.24-.07-.48-.2-.73-.13-.25-.31-.46-.53-.63-.22-.17-.46-.26-.72-.26-.48,0-1.06.26-1.76.78-.69.52-1.56,1.28-2.59,2.29h1.48c1.27,0,2.18-.03,2.73-.08"/>
        <path class="cls-13" d="M201.33,73.05h1.36c.27,0,.46.04.55.11s.15.18.15.33c0,.22-.07.41-.22.6-.15.18-.41.27-.8.27h-1.36l.32-1.31Z"/>
        <path class="cls-13" d="M202.69,73.05h1.36c.27,0,.46.04.55.11s.14.18.14.33c0,.22-.07.41-.22.6-.15.18-.41.27-.8.27h-1.36l.32-1.31Z"/>
        <path class="cls-13" d="M204.05,73.05h1.36c.27,0,.46.04.55.11s.15.18.15.33c0,.22-.07.41-.22.6-.15.18-.41.27-.8.27h-1.36l.32-1.31Z"/>
        <path class="cls-13" d="M205.42,73.05h1.36c.27,0,.46.04.55.11.1.07.14.18.14.33,0,.22-.07.41-.22.6-.15.18-.41.27-.8.27h-1.36l.32-1.31Z"/>
        <path class="cls-13" d="M206.8,73.03c.36,0,.67-.02.93-.06.26-.04.48-.13.67-.26.08-.36.12-.81.12-1.35v-8.31l1.19-.31.14.05v8.42c0,.81-.13,1.44-.4,1.9-.27.46-.65.78-1.13.97-.49.19-1.11.28-1.86.28l.34-1.33Z"/>
        <polygon class="cls-13" points="212.16 74.44 212.06 74.39 212.06 63.05 213.3 62.72 213.39 62.79 213.37 74.19 212.16 74.44"/>
        <polygon class="cls-13" points="88.88 83.76 88.88 85.13 85.06 85.13 85.06 94.8 83.49 94.8 83.49 85.13 79.66 85.13 79.66 83.76 88.88 83.76"/>
        <path class="cls-13" d="M96.2,87.68c.41.36.61.95.61,1.77v5.35h-1.47v-4.75c0-.42-.04-.75-.13-.98-.09-.23-.23-.4-.43-.5-.2-.1-.47-.15-.81-.15s-.7.05-1.08.14c-.38.09-.74.22-1.06.38v5.88h-1.47v-11.72l1.47-.17v4.96c.93-.49,1.83-.73,2.69-.73.7,0,1.26.18,1.67.55"/>
        <path class="cls-13" d="M105.19,91.33h-5.19c0,.85.22,1.47.62,1.86.4.39.92.58,1.56.58.45,0,.85-.06,1.18-.17.33-.11.71-.29,1.11-.53l.56,1.04c-.93.6-1.91.9-2.93.9-1.09,0-1.96-.3-2.61-.91-.65-.61-.98-1.57-.98-2.89,0-.75.14-1.43.41-2.04.27-.61.68-1.1,1.22-1.47.54-.37,1.2-.55,1.98-.55.66,0,1.22.13,1.69.4.47.27.82.63,1.06,1.1.24.46.36,1,.36,1.6l-.03,1.09ZM100.74,88.8c-.33.35-.55.84-.66,1.45h3.71v-.07c0-.64-.14-1.11-.43-1.43-.29-.32-.7-.48-1.24-.48-.59,0-1.05.18-1.39.53"/>
        <polygon class="cls-13" points="112.88 93.47 118.29 93.47 118.29 94.8 111.31 94.8 111.31 83.76 118.21 83.76 118.21 85.09 112.88 85.09 112.88 88.53 117.54 88.53 117.37 89.83 112.88 89.83 112.88 93.47"/>
        <path class="cls-13" d="M125.34,87.73c.44.4.65,1.02.65,1.87v5.2h-1.33l-.08-.65c-.78.57-1.69.85-2.71.85-.43,0-.82-.08-1.16-.25-.34-.17-.6-.4-.79-.7-.19-.3-.28-.64-.28-1.03,0-.62.22-1.14.67-1.56.44-.41,1.03-.72,1.77-.91.74-.19,1.56-.3,2.45-.32v-.38c0-.51-.1-.88-.31-1.12-.21-.23-.55-.35-1.04-.35-.83,0-1.69.3-2.59.89l-.65-1.02c1.09-.75,2.23-1.12,3.42-1.12.87,0,1.53.2,1.97.6M121.47,93.54c.18.15.44.22.79.22.77,0,1.53-.23,2.27-.68v-1.77c-.99.04-1.79.2-2.4.46-.61.26-.92.63-.92,1.11,0,.3.09.52.26.66"/>
        <path class="cls-13" d="M132.47,87.17c.16.02.33.06.51.1l-.27,1.52c-.39-.14-.74-.2-1.06-.2-.36,0-.7.08-1.01.24-.31.16-.6.46-.89.9v5.08h-1.46v-7.48l1.46-.15v1.07c.28-.36.61-.64.99-.83.38-.19.77-.28,1.19-.28.19,0,.37.01.53.03"/>
        <polygon class="cls-13" points="134.43 94.8 134.43 83.08 135.89 82.91 135.89 94.8 134.43 94.8"/>
        <path class="cls-13" d="M144.56,87.34v.1l-2.84,7.89c-.25.69-.52,1.25-.8,1.66-.28.42-.6.72-.96.9-.36.19-.78.28-1.27.28s-.99-.09-1.48-.26l.39-1.12c.33.1.65.15.97.15.26,0,.48-.04.66-.12.18-.08.36-.23.54-.46.18-.23.35-.57.52-1.02l.21-.54h-.39l-2.86-7.36v-.1h1.55l1.75,4.77.19.51.27.8.43-1.31,1.64-4.77h1.5Z"/>
        <path class="cls-13" d="M151.82,94.31c-.76-.46-1.33-1.12-1.7-1.98-.37-.85-.55-1.86-.55-3.01,0-1.34.24-2.44.71-3.3.47-.86,1.09-1.48,1.85-1.87.76-.39,1.6-.59,2.5-.59.69,0,1.33.08,1.92.26.59.17,1.14.42,1.68.75l-.68,1.19c-.89-.56-1.84-.83-2.85-.83-1.18,0-2.05.39-2.62,1.16-.56.77-.84,1.82-.84,3.15s.29,2.45.89,3.24c.59.78,1.46,1.17,2.61,1.17.58,0,1.1-.07,1.57-.22.47-.15.93-.36,1.4-.63l.63,1.14c-.6.35-1.19.62-1.76.8-.57.18-1.21.27-1.9.27-1.13,0-2.08-.23-2.84-.7"/>
        <path class="cls-13" d="M165.58,87.68c.41.36.61.95.61,1.77v5.35h-1.46v-4.75c0-.42-.04-.75-.13-.98-.09-.23-.23-.4-.43-.5-.2-.1-.47-.15-.81-.15s-.7.05-1.08.14c-.38.09-.74.22-1.07.38v5.88h-1.46v-11.72l1.46-.17v4.96c.93-.49,1.83-.73,2.69-.73.7,0,1.26.18,1.67.55"/>
        <path class="cls-13" d="M168.7,85.68c-.16-.1-.29-.22-.38-.38-.1-.16-.15-.33-.15-.51,0-.19.05-.37.15-.53.1-.16.23-.29.38-.38.16-.1.33-.14.51-.14.19,0,.37.05.53.14.16.1.29.22.38.38.1.16.15.33.15.53,0,.18-.05.35-.15.51-.1.16-.22.29-.38.38-.16.1-.34.15-.53.15-.18,0-.35-.05-.51-.15M168.49,94.8v-7.46l1.46-.17v7.63h-1.46Z"/>
        <polygon class="cls-13" points="172.34 94.8 172.34 83.08 173.81 82.91 173.81 94.8 172.34 94.8"/>
        <path class="cls-13" d="M182.53,82.91v11.89h-1.33l-.07-.54c-.41.24-.82.42-1.24.55-.42.13-.81.2-1.18.2-.66,0-1.22-.15-1.69-.45-.47-.3-.82-.73-1.06-1.3-.24-.56-.37-1.22-.37-1.98,0-.86.17-1.61.5-2.23.34-.62.79-1.1,1.37-1.42.58-.32,1.24-.49,1.98-.49.49,0,1.03.07,1.62.22v-4.28l1.47-.17ZM177.68,93.13c.34.41.82.61,1.45.61.66,0,1.31-.19,1.94-.56v-4.63c-.51-.17-1.01-.26-1.5-.26s-.88.1-1.24.32c-.36.21-.64.54-.85.98-.21.44-.32.99-.32,1.65,0,.85.17,1.48.51,1.89"/>
        <path class="cls-13" d="M190.74,87.68c.41.36.61.95.61,1.77v5.35h-1.47v-4.75c0-.42-.04-.75-.13-.98-.09-.23-.23-.4-.43-.5-.2-.1-.47-.15-.81-.15s-.7.05-1.08.14c-.38.09-.74.22-1.07.38v5.88h-1.46v-11.72l1.46-.17v4.96c.93-.49,1.83-.73,2.69-.73.7,0,1.26.18,1.67.55"/>
        <path class="cls-13" d="M194.64,94.49c-.53-.35-.93-.82-1.19-1.41-.26-.6-.39-1.27-.39-2.02,0-.91.17-1.65.51-2.24.34-.59.8-1.01,1.38-1.28.58-.27,1.24-.4,1.98-.4.79,0,1.46.17,1.99.52.53.35.93.82,1.19,1.4.26.59.39,1.26.39,2.01,0,.92-.17,1.67-.51,2.26-.34.59-.8,1.01-1.38,1.28-.58.27-1.24.4-1.98.4-.79,0-1.46-.17-1.99-.52M198.97,91.05c0-.83-.18-1.49-.54-1.98-.36-.49-.89-.74-1.61-.74-.79,0-1.37.24-1.71.72-.35.48-.52,1.15-.52,2s.18,1.51.55,2.01c.36.5.91.75,1.63.75,1.46,0,2.2-.92,2.2-2.76"/>
        <path class="cls-13" d="M203.28,94.49c-.53-.35-.93-.82-1.19-1.41-.26-.6-.39-1.27-.39-2.02,0-.91.17-1.65.51-2.24.34-.59.8-1.01,1.38-1.28.58-.27,1.24-.4,1.98-.4.79,0,1.46.17,1.99.52.53.35.93.82,1.19,1.4.26.59.39,1.26.39,2.01,0,.92-.17,1.67-.51,2.26-.34.59-.8,1.01-1.38,1.28-.58.27-1.24.4-1.98.4-.79,0-1.46-.17-1.99-.52M207.6,91.05c0-.83-.18-1.49-.54-1.98-.36-.49-.89-.74-1.61-.74-.79,0-1.37.24-1.71.72-.35.48-.52,1.15-.52,2s.18,1.51.54,2.01c.36.5.91.75,1.64.75,1.46,0,2.2-.92,2.2-2.76"/>
        <path class="cls-13" d="M217.26,82.91v11.89h-1.33l-.07-.54c-.41.24-.82.42-1.24.55-.42.13-.81.2-1.18.2-.66,0-1.22-.15-1.69-.45-.47-.3-.82-.73-1.07-1.3-.24-.56-.37-1.22-.37-1.98,0-.86.17-1.61.5-2.23.34-.62.79-1.1,1.37-1.42.58-.32,1.24-.49,1.98-.49.49,0,1.03.07,1.62.22v-4.28l1.46-.17ZM212.41,93.13c.34.41.82.61,1.45.61.66,0,1.31-.19,1.94-.56v-4.63c-.51-.17-1.01-.26-1.5-.26s-.88.1-1.24.32c-.36.21-.64.54-.85.98-.21.44-.32.99-.32,1.65,0,.85.17,1.48.51,1.89"/>
        <path class="cls-13" d="M94.02,117.68l-3.87-2.3c-.27.04-.58.07-.94.07-1.1,0-2.04-.24-2.81-.72-.77-.48-1.35-1.16-1.75-2.02s-.59-1.87-.59-3.02c0-1.27.24-2.33.72-3.19.48-.85,1.11-1.48,1.91-1.89.79-.41,1.67-.61,2.64-.61,1.1,0,2.04.24,2.81.72.77.48,1.36,1.16,1.75,2.02.39.86.59,1.87.59,3.02,0,1.25-.25,2.3-.75,3.17-.5.86-1.17,1.51-2.01,1.94l3.13,1.55-.83,1.26ZM86.09,112c.25.66.64,1.18,1.17,1.56.52.38,1.18.56,1.96.56s1.48-.18,2.02-.55c.54-.37.94-.88,1.21-1.52.27-.65.4-1.4.4-2.27s-.13-1.66-.38-2.33c-.26-.66-.64-1.18-1.17-1.56-.52-.38-1.18-.56-1.96-.56s-1.48.18-2.02.55c-.54.37-.94.88-1.21,1.52-.27.65-.4,1.4-.4,2.27s.13,1.66.38,2.33"/>
        <path class="cls-13" d="M102.76,107.61v7.63h-1.31l-.08-.56c-.88.51-1.76.77-2.66.77-.69,0-1.26-.2-1.69-.59s-.65-.98-.65-1.78v-5.3l1.46-.17v5.04c0,.38.05.67.14.89.09.22.24.38.44.48.21.1.49.14.85.14.54,0,1.23-.21,2.04-.63v-5.76l1.47-.17Z"/>
        <path class="cls-13" d="M110.16,108.17c.44.4.65,1.02.65,1.87v5.2h-1.33l-.08-.65c-.78.57-1.69.85-2.71.85-.43,0-.82-.08-1.16-.25-.34-.17-.61-.4-.79-.7-.19-.3-.28-.64-.28-1.03,0-.62.22-1.14.67-1.56.44-.41,1.03-.72,1.77-.91.74-.19,1.56-.3,2.45-.32v-.38c0-.51-.1-.88-.31-1.12-.21-.23-.55-.35-1.04-.35-.83,0-1.69.3-2.59.89l-.65-1.02c1.09-.75,2.23-1.12,3.42-1.12.87,0,1.53.2,1.97.6M106.29,113.98c.18.15.44.22.79.22.77,0,1.53-.23,2.27-.68v-1.77c-.99.04-1.79.2-2.4.46-.61.26-.92.63-.92,1.11,0,.3.09.52.26.66"/>
        <polygon class="cls-13" points="113.12 115.24 113.12 103.52 114.58 103.35 114.58 115.24 113.12 115.24"/>
        <path class="cls-13" d="M117.17,106.12c-.16-.1-.29-.22-.38-.38-.1-.16-.14-.33-.14-.51,0-.19.05-.37.14-.53.1-.16.23-.29.38-.38.16-.1.33-.14.51-.14.19,0,.37.05.53.14.16.1.29.22.38.38.1.16.14.33.14.53,0,.18-.05.35-.14.51-.1.16-.22.29-.38.38-.16.1-.33.15-.53.15-.18,0-.35-.05-.51-.15M116.96,115.24v-7.46l1.47-.17v7.63h-1.47Z"/>
        <path class="cls-13" d="M125.53,114.97c-.59.32-1.21.48-1.87.48-.7,0-1.26-.2-1.67-.6-.41-.4-.61-1.01-.61-1.81v-4.09h-1.5v-1.16h1.5v-1.69l1.46-.24v1.93h2.52l-.15,1.16h-2.37v3.85c0,.95.35,1.43,1.06,1.43.2,0,.4-.02.6-.07.19-.05.4-.12.63-.22l.41,1.04Z"/>
        <path class="cls-13" d="M133.27,107.78v.1l-2.84,7.89c-.25.69-.52,1.25-.8,1.66-.28.42-.6.72-.96.9-.36.19-.78.28-1.27.28s-.99-.09-1.48-.26l.39-1.12c.33.1.65.15.97.15.26,0,.48-.04.66-.12.18-.08.36-.23.54-.46s.35-.57.52-1.02l.21-.55h-.39l-2.86-7.36v-.1h1.55l1.75,4.77.19.51.27.8.43-1.31,1.64-4.77h1.5Z"/>
        <polygon class="cls-13" points="145.8 105.53 140.47 105.53 140.47 109.25 145.12 109.25 144.95 110.57 140.47 110.57 140.47 115.24 138.91 115.24 138.91 104.2 145.8 104.2 145.8 105.53"/>
        <path class="cls-13" d="M151.41,107.61c.16.02.33.06.51.1l-.27,1.52c-.39-.14-.74-.2-1.06-.2-.36,0-.7.08-1.01.24-.31.16-.6.46-.89.9v5.08h-1.46v-7.48l1.46-.15v1.07c.28-.36.61-.64.99-.83.38-.19.77-.28,1.19-.28.19,0,.37.01.53.03"/>
        <path class="cls-13" d="M158.13,108.17c.44.4.65,1.02.65,1.87v5.2h-1.33l-.09-.65c-.78.57-1.69.85-2.71.85-.43,0-.82-.08-1.16-.25-.34-.17-.6-.4-.79-.7-.19-.3-.28-.64-.28-1.03,0-.62.22-1.14.66-1.56.44-.41,1.03-.72,1.77-.91.74-.19,1.55-.3,2.45-.32v-.38c0-.51-.1-.88-.31-1.12-.21-.23-.55-.35-1.04-.35-.83,0-1.69.3-2.59.89l-.65-1.02c1.09-.75,2.23-1.12,3.42-1.12.87,0,1.53.2,1.97.6M154.26,113.98c.18.15.44.22.79.22.77,0,1.53-.23,2.27-.68v-1.77c-.99.04-1.79.2-2.4.46-.61.26-.92.63-.92,1.11,0,.3.09.52.26.66"/>
        <path class="cls-13" d="M171.34,108.12c.39.36.58.95.58,1.77v5.35h-1.47v-4.75c0-.42-.04-.75-.12-.98-.08-.23-.2-.4-.37-.5-.17-.1-.41-.15-.72-.15-.33,0-.68.05-1.04.14-.36.1-.7.22-1.02.38.02.23.03.4.03.51v5.35h-1.46v-4.75c0-.42-.04-.75-.11-.98-.07-.23-.2-.4-.37-.5-.17-.1-.41-.15-.71-.15s-.65.05-1.01.14c-.35.1-.69.22-1.01.37v5.88h-1.47v-7.46l1.47-.17v.71c.87-.5,1.73-.75,2.56-.75s1.43.28,1.77.84c.41-.24.87-.44,1.39-.6.52-.16,1.02-.24,1.52-.24.65,0,1.16.18,1.55.55"/>
        <path class="cls-13" d="M180.3,111.77h-5.19c0,.85.22,1.47.62,1.86.4.39.92.58,1.56.58.45,0,.85-.06,1.18-.17.33-.11.71-.29,1.12-.53l.56,1.04c-.93.6-1.91.9-2.93.9-1.09,0-1.96-.3-2.61-.91-.65-.61-.98-1.57-.98-2.89,0-.75.14-1.43.41-2.04.27-.61.68-1.1,1.22-1.47.54-.37,1.2-.55,1.98-.55.66,0,1.22.13,1.69.4.47.27.82.63,1.06,1.1.24.46.36,1,.36,1.6l-.03,1.09ZM175.84,109.25c-.33.35-.55.84-.66,1.45h3.71v-.07c0-.64-.15-1.11-.43-1.43-.29-.32-.7-.48-1.24-.48-.59,0-1.05.18-1.39.53"/>
        <path class="cls-13" d="M191.93,107.78v.1l-2.25,7.36h-1.47l-1.36-4.56c-.18-.64-.3-1.09-.36-1.35-.04.25-.16.7-.34,1.35l-1.36,4.56h-1.38l-2.45-7.36v-.1h1.6l1.35,4.68c.06.19.14.54.26,1.04.07-.4.15-.74.24-1.04l1.36-4.68h1.6l1.36,4.68c.09.32.19.72.29,1.21.08-.48.16-.88.24-1.21l1.24-4.68h1.43Z"/>
        <path class="cls-13" d="M194.06,114.93c-.53-.35-.93-.82-1.19-1.41-.26-.6-.39-1.27-.39-2.02,0-.91.17-1.65.51-2.24.34-.59.8-1.01,1.38-1.28.58-.27,1.24-.4,1.98-.4.79,0,1.46.17,1.99.52.53.35.93.82,1.19,1.4.26.59.39,1.26.39,2.01,0,.92-.17,1.67-.51,2.26-.34.59-.8,1.01-1.38,1.28-.58.27-1.24.4-1.98.4-.79,0-1.46-.17-1.99-.52M198.39,111.49c0-.83-.18-1.49-.54-1.98-.36-.49-.89-.74-1.61-.74-.79,0-1.37.24-1.71.72-.35.48-.52,1.15-.52,2s.18,1.51.54,2.01c.36.5.91.75,1.64.75,1.46,0,2.2-.92,2.2-2.76"/>
        <path class="cls-13" d="M205.88,107.61c.16.02.33.06.51.1l-.27,1.52c-.39-.14-.74-.2-1.06-.2-.36,0-.7.08-1,.24-.31.16-.6.46-.89.9v5.08h-1.46v-7.48l1.46-.15v1.07c.28-.36.61-.64.99-.83.38-.19.77-.28,1.19-.28.19,0,.37.01.53.03"/>
        <polygon class="cls-13" points="210.99 111.26 214.25 115.14 214.25 115.24 212.46 115.24 209.31 111.34 209.31 115.24 207.84 115.24 207.84 103.52 209.31 103.35 209.31 111.22 212.48 107.78 214.1 107.78 214.1 107.88 210.99 111.26"/>
      </g>
    </g>
  </g>
</svg>