<?xml version="1.0" encoding="UTF-8"?>
<svg id="Layer_2" data-name="Layer 2" xmlns="http://www.w3.org/2000/svg" xmlns:xlink="http://www.w3.org/1999/xlink" viewBox="0 0 297.64 419.53">
  <defs>
    <style>
      .cls-1 {
        fill: none;
      }

      .cls-2 {
        clip-path: url(#clippath-17);
      }

      .cls-3 {
        clip-path: url(#clippath-19);
      }

      .cls-4 {
        clip-path: url(#clippath-11);
      }

      .cls-5 {
        clip-path: url(#clippath-16);
      }

      .cls-6 {
        clip-path: url(#clippath-18);
      }

      .cls-7 {
        clip-path: url(#clippath-10);
      }

      .cls-8 {
        clip-path: url(#clippath-15);
      }

      .cls-9 {
        clip-path: url(#clippath-13);
      }

      .cls-10 {
        clip-path: url(#clippath-14);
      }

      .cls-11 {
        clip-path: url(#clippath-12);
      }

      .cls-12 {
        clip-path: url(#clippath-20);
      }

      .cls-13 {
        clip-path: url(#clippath-21);
      }

      .cls-14 {
        clip-path: url(#clippath-22);
      }

      .cls-15 {
        clip-path: url(#clippath-1);
      }

      .cls-16 {
        clip-path: url(#clippath-3);
      }

      .cls-17 {
        clip-path: url(#clippath-4);
      }

      .cls-18 {
        clip-path: url(#clippath-2);
      }

      .cls-19 {
        clip-path: url(#clippath-7);
      }

      .cls-20 {
        clip-path: url(#clippath-6);
      }

      .cls-21 {
        clip-path: url(#clippath-9);
      }

      .cls-22 {
        clip-path: url(#clippath-8);
      }

      .cls-23 {
        clip-path: url(#clippath-5);
      }

      .cls-24 {
        fill: #437d98;
      }

      .cls-25 {
        fill: #a53563;
      }

      .cls-26 {
        fill: #e7c060;
      }

      .cls-27 {
        clip-path: url(#clippath);
      }

      .cls-28 {
        fill: #b57078;
      }
    </style>
    <clipPath id="clippath">
      <rect class="cls-1" width="297.64" height="419.53"/>
    </clipPath>
    <clipPath id="clippath-1">
      <path class="cls-1" d="M126.12,62.61v12.24c0,3.38,2.74,6.13,6.12,6.13h3.68c1.69,0,3.06-1.37,3.06-3.07v-3.06h-3.67c-1.69,0-3.06-1.37-3.06-3.06v-6.13c0-1.69-1.37-3.06-3.06-3.06h-3.07Z"/>
    </clipPath>
    <clipPath id="clippath-2">
      <rect class="cls-1" width="297.64" height="419.53"/>
    </clipPath>
    <clipPath id="clippath-3">
      <path class="cls-1" d="M156.74,56.49c1.69,0,3.06,1.37,3.06,3.06s-1.37,3.06-3.06,3.06h-9.8c-1.69,0-3.06,1.37-3.06,3.06v3.06h12.86c5.07,0,9.18-4.11,9.18-9.19s-4.11-9.18-9.18-9.18v6.12h0Z"/>
    </clipPath>
    <clipPath id="clippath-4">
      <rect class="cls-1" width="297.64" height="419.53"/>
    </clipPath>
    <clipPath id="clippath-5">
      <path class="cls-1" d="M155.08,70.06h0v1.68c0,.93.75,1.69,1.68,1.69s1.68-.76,1.68-1.69-.75-1.68-1.68-1.68h-1.68Z"/>
    </clipPath>
    <clipPath id="clippath-6">
      <path class="cls-1" d="M135.84,82.17v1.68c0,.93.76,1.68,1.68,1.68s1.68-.75,1.68-1.68-.75-1.68-1.68-1.68h-1.68Z"/>
    </clipPath>
    <clipPath id="clippath-7">
      <path class="cls-1" d="M131.32,82.17v1.68c0,.93.75,1.68,1.68,1.68s1.68-.75,1.68-1.68-.75-1.68-1.68-1.68h-1.68Z"/>
    </clipPath>
    <clipPath id="clippath-8">
      <rect class="cls-1" width="297.64" height="419.53"/>
    </clipPath>
    <clipPath id="clippath-9">
      <path class="cls-1" d="M178.18,62.62h-6.13c-1.69,0-3.06,1.37-3.06,3.06v3.06h9.19c1.69,0,3.06-1.37,3.06-3.06v-6.12c0,1.69-1.37,3.06-3.06,3.06Z"/>
    </clipPath>
    <clipPath id="clippath-10">
      <rect class="cls-1" width="297.64" height="419.53"/>
    </clipPath>
    <clipPath id="clippath-11">
      <rect class="cls-1" width="297.64" height="419.53"/>
    </clipPath>
    <clipPath id="clippath-12">
      <path class="cls-1" d="M126.12,62.61v12.24c0,3.38,2.74,6.13,6.12,6.13h3.68c1.69,0,3.06-1.37,3.06-3.07v-3.06h-3.67c-1.69,0-3.06-1.37-3.06-3.06v-6.13c0-1.69-1.37-3.06-3.06-3.06h-3.07Z"/>
    </clipPath>
    <clipPath id="clippath-13">
      <rect class="cls-1" width="297.64" height="419.53"/>
    </clipPath>
    <clipPath id="clippath-14">
      <path class="cls-1" d="M156.74,56.49c1.69,0,3.06,1.37,3.06,3.06s-1.37,3.06-3.06,3.06h-9.8c-1.69,0-3.06,1.37-3.06,3.06v3.06h12.86c5.07,0,9.18-4.11,9.18-9.19s-4.11-9.18-9.18-9.18v6.12h0Z"/>
    </clipPath>
    <clipPath id="clippath-15">
      <rect class="cls-1" width="297.64" height="419.53"/>
    </clipPath>
    <clipPath id="clippath-16">
      <path class="cls-1" d="M155.08,70.06h0v1.68c0,.93.75,1.69,1.68,1.69s1.68-.76,1.68-1.69-.75-1.68-1.68-1.68h-1.68Z"/>
    </clipPath>
    <clipPath id="clippath-17">
      <path class="cls-1" d="M135.84,82.17v1.68c0,.93.76,1.68,1.68,1.68s1.68-.75,1.68-1.68-.75-1.68-1.68-1.68h-1.68Z"/>
    </clipPath>
    <clipPath id="clippath-18">
      <path class="cls-1" d="M131.32,82.17v1.68c0,.93.75,1.68,1.68,1.68s1.68-.75,1.68-1.68-.75-1.68-1.68-1.68h-1.68Z"/>
    </clipPath>
    <clipPath id="clippath-19">
      <rect class="cls-1" width="297.64" height="419.53"/>
    </clipPath>
    <clipPath id="clippath-20">
      <path class="cls-1" d="M178.18,62.62h-6.13c-1.69,0-3.06,1.37-3.06,3.06v3.06h9.19c1.69,0,3.06-1.37,3.06-3.06v-6.12c0,1.69-1.37,3.06-3.06,3.06Z"/>
    </clipPath>
    <clipPath id="clippath-21">
      <rect class="cls-1" width="297.64" height="419.53"/>
    </clipPath>
    <clipPath id="clippath-22">
      <rect class="cls-1" width="297.64" height="419.53"/>
    </clipPath>
  </defs>
  <g id="Layer_2-2" data-name="Layer 2">
    <g id="Layer_1-2" data-name="Layer 1-2">
      <g>
        <g class="cls-27">
          <g>
            <path class="cls-25" d="M117.55,71.8h-.61c0,1.69-1.37,3.06-3.06,3.06h-3.06v-24.49h-6.12v30.62h9.8c1.69,0,3.06-1.37,3.06-3.06v-6.12h-.01Z"/>
            <path class="cls-25" d="M116.94,77.92c0,1.69-1.37,3.06-3.06,3.06h3.06c3.38,0,6.12-2.74,6.12-6.12v-18.37c0-3.39-2.74-6.12-6.12-6.12h-12.25v3.06c0,1.69,1.37,3.07,3.06,3.07h6.12c1.69,0,3.06,1.37,3.06,3.06v18.37h.01Z"/>
            <path class="cls-25" d="M190.43,80.98v-27.56c0-1.69,1.37-3.06,3.06-3.06h3.06v27.56c0,1.69-1.37,3.06-3.06,3.06h-3.06Z"/>
            <path class="cls-25" d="M164.21,67.02c-1.43,1.43-3.19,2.39-5.11,2.83.44.53.7,1.21.7,1.95,0,1.69-1.37,3.06-3.06,3.06s-3.07-1.37-3.07-3.06v-1.68h-6.12v7.81c0,1.69,1.37,3.06,3.06,3.06h6.13c5.07,0,9.18-4.11,9.18-9.19,0-1.85-.55-3.57-1.49-5.01-.07.08-.15.16-.23.24"/>
            <path class="cls-25" d="M153.68,59.55c0-1.2.69-2.23,1.68-2.73v-6.45h-7.81v10.87h6.12v-1.68h.01Z"/>
            <path class="cls-25" d="M132.25,62.46v-12.1h-3.06c-1.69,0-3.06,1.37-3.06,3.06v7.81h3.06c1.19,0,2.27.47,3.06,1.23"/>
            <path class="cls-25" d="M144.49,61.23v-7.81c0-1.69-1.37-3.06-3.06-3.06h-3.06v12.1c.8-.76,1.88-1.23,3.06-1.23h3.06Z"/>
            <path class="cls-25" d="M168.99,80.98h3.06c1.69,0,3.06-1.37,3.06-3.06v-7.81h-6.12s0,10.87,0,10.87Z"/>
            <path class="cls-25" d="M175.11,61.23v-3.37h0v-4.44c0-1.19.47-2.26,1.23-3.06h-1.23c-3.38,0-6.12,2.74-6.12,6.13v5.97c.8-.76,1.88-1.23,3.06-1.23,0,0,3.06,0,3.06,0Z"/>
            <path class="cls-25" d="M181.35,70.11h-.11v7.81c0,1.69,1.37,3.06,3.06,3.06h3.07v-14.04c-1.34,1.89-3.54,3.14-6.01,3.17"/>
            <path class="cls-25" d="M126.12,62.61v12.24c0,3.38,2.74,6.13,6.12,6.13h3.68c1.69,0,3.06-1.37,3.06-3.06v-3.06h-3.67c-1.69,0-3.06-1.37-3.06-3.06v-6.13c0-1.69-1.37-3.06-3.06-3.06h-3.07Z"/>
          </g>
        </g>
        <g class="cls-15">
          <rect class="cls-25" x="120.96" y="65.46" width="9.76" height="13.94"/>
        </g>
        <g class="cls-18">
          <path class="cls-25" d="M156.74,56.49c1.69,0,3.06,1.37,3.06,3.06s-1.37,3.06-3.06,3.06h-9.8c-1.69,0-3.06,1.37-3.06,3.06v3.06h12.86c5.07,0,9.18-4.11,9.18-9.18s-4.11-9.19-9.18-9.19v6.12h0Z"/>
        </g>
        <g class="cls-16">
          <rect class="cls-25" x="134.44" y="56.17" width="16.73" height="13.94"/>
        </g>
        <g class="cls-17">
          <g>
            <path class="cls-25" d="M147.55,62.61h-6.12c-1.69,0-3.06,1.37-3.06,3.06v12.25c0,1.69-1.37,3.06-3.06,3.06h3.06c3.38,0,6.12-2.74,6.12-6.13v-9.18c0-1.69,1.37-3.06,3.06-3.06"/>
            <path class="cls-25" d="M155.08,70.06h0v1.68c0,.93.75,1.69,1.68,1.69s1.68-.76,1.68-1.69-.75-1.68-1.68-1.68h-1.68Z"/>
          </g>
        </g>
        <g class="cls-23">
          <rect class="cls-25" x="142.41" y="70.59" width="3.62" height="3.62" transform="translate(-8.95 123.19) rotate(-45)"/>
        </g>
        <g class="cls-20">
          <rect class="cls-25" x="127.8" y="79.77" width="3.62" height="3.62" transform="translate(-19.73 115.54) rotate(-45)"/>
        </g>
        <g class="cls-19">
          <rect class="cls-25" x="124.37" y="79.79" width="3.61" height="3.61" transform="translate(-20.74 113.12) rotate(-45)"/>
        </g>
        <g class="cls-22">
          <g>
            <path class="cls-25" d="M168.99,65.67c0-1.69,1.37-3.06,3.06-3.06h6.12c1.69,0,3.06-1.37,3.06-3.06s-1.37-3.06-3.06-3.06h-1.69v-3.06c0-1.69,1.37-3.06,3.06-3.06h1.69c3.38,0,6.13,2.74,6.13,6.12v6.12c0,3.38-2.74,6.12-6.13,6.12h.11-12.36v-3.06h.01Z"/>
            <path class="cls-25" d="M178.18,62.62h-6.12c-1.69,0-3.06,1.37-3.06,3.06v3.06h9.19c1.69,0,3.06-1.37,3.06-3.06v-6.12c0,1.69-1.37,3.06-3.06,3.06"/>
          </g>
        </g>
        <g class="cls-21">
          <rect class="cls-25" x="153.49" y="63.14" width="9.3" height="6.97"/>
        </g>
        <g class="cls-7">
          <g>
            <path class="cls-25" d="M104.86,88.6h.64c.35,0,.54.01.54.55v2.51h.7l2.25-3.06h1.34l-2.65,3.65,2.87,3.8s-.24.28-.88.28c-.32,0-.43-.07-.64-.37l-2.33-3.08h-.67v3.43h-.64c-.35,0-.54-.01-.54-.55v-7.15h.01Z"/>
            <path class="cls-25" d="M115.71,96.3h-.64c-.35,0-.54-.01-.54-.55v-2.74c0-1.03-.25-1.2-1.02-1.2-.98,0-1.14.32-1.15,1.09v3.41h-.64c-.35,0-.54-.01-.54-.55v-4.95h.41c.55,0,.59.13.59.71.25-.42.72-.77,1.56-.77,1.62,0,1.97.76,1.97,2.42v3.14h0Z"/>
            <path class="cls-25" d="M120.2,93.53c0-1.28-.12-1.73-1.13-1.73s-1.13.44-1.13,1.73c0,1.56.25,1.77,1.13,1.77s1.13-.22,1.13-1.77M116.76,93.52c0-1.94.74-2.78,2.33-2.78,1.7,0,2.3.84,2.3,2.78,0,2.14-.88,2.84-2.31,2.84-1.61,0-2.32-.71-2.32-2.84"/>
            <path class="cls-25" d="M128.29,96.31s-.24.05-.82.05c-.85,0-1.05-.16-1.21-.86l-.6-2.59-.83,3.41s-.25.05-.85.05c-.85,0-1.02-.16-1.13-.86l-.73-4.7h1.15l.69,4.51h.05l1.03-4.18h1.22l1.03,4.18h.05l.68-4.51h1.17l-.92,5.52.02-.02Z"/>
            <path class="cls-25" d="M130.21,88.54h.63c.35,0,.54.01.54.55v7.21h-.63c-.35,0-.54-.01-.54-.55v-7.21Z"/>
            <path class="cls-25" d="M133.64,93.05h2.27c-.02-1-.25-1.24-1.09-1.24s-1.11.23-1.17,1.24M136.98,96.01s-.82.35-2.03.35c-1.67,0-2.52-.71-2.52-2.84,0-2.01.97-2.78,2.39-2.78s2.21.59,2.21,2.59c0,.28-.04.71-.04.71h-3.36c.06,1.06.41,1.27,1.44,1.27,1.13,0,1.79-.25,1.79-.25l.12.96h0Z"/>
            <path class="cls-25" d="M141.38,93.53c0-1.28-.02-1.73-1.09-1.73-1.01,0-1.1.44-1.1,1.73,0,1.56.24,1.77,1.1,1.77.99,0,1.09-.22,1.09-1.77M138,93.52c0-1.94.65-2.78,2.32-2.78.47,0,.8.1,1.04.28v-2.47h.63c.35,0,.54.01.54.55v7.21h-.41c-.48,0-.56-.16-.59-.57-.28.49-.73.62-1.35.62-1.56,0-2.19-.71-2.19-2.84"/>
            <path class="cls-25" d="M146.94,93.53c0-1.28-.04-1.73-1.1-1.73s-1.1.44-1.1,1.73c0,1.56.23,1.77,1.1,1.77,1,0,1.1-.22,1.1-1.77M143.54,93.52c0-1.94.74-2.78,2.33-2.78.62,0,1.01.15,1.24.49.04-.31.15-.43.57-.43h.41v5.49c0,1.83-1.04,2.23-2.6,2.23-1.04,0-1.5-.19-1.68-.29l-.08-1.07c.13.06.76.29,1.68.29,1.42,0,1.5-.31,1.51-1.46-.27.29-.67.37-1.17.37-1.56,0-2.2-.71-2.2-2.84"/>
            <path class="cls-25" d="M150.28,93.05h2.27c-.02-1-.25-1.24-1.09-1.24s-1.12.23-1.18,1.24M153.63,96.01s-.82.35-2.03.35c-1.67,0-2.52-.71-2.52-2.84,0-2.01.97-2.78,2.39-2.78s2.21.59,2.21,2.59c0,.28-.04.71-.04.71h-3.36c.06,1.06.41,1.27,1.44,1.27,1.13,0,1.79-.25,1.79-.25l.12.96h0Z"/>
            <path class="cls-25" d="M161.88,88.59c.42,0,.62.22.62.62s-.2.62-.62.62-.64-.22-.64-.62.22-.62.64-.62M160.41,88.59c.42,0,.64.22.64.62s-.22.62-.64.62-.62-.22-.62-.62.2-.62.62-.62M161.35,93.26v-1.01c-1.29.35-1.6.4-1.6,1.01s.12.69.72.69c.72,0,.85-.22.88-.69M162.43,94.35c0,.57.17.71,1.03.71l.19.04v1.13l-.19.04c-1.37,0-1.99-.3-2.03-1.86-.11.5-.43.75-1.15.75-1.4,0-1.53-.98-1.53-1.76,0-1.55,1.19-1.65,2.6-2.13v-.14c0-.54.19-.55.54-.55h.54v3.79-.02Z"/>
            <rect class="cls-25" x="163.33" y="95.06" width="1.91" height="1.2"/>
            <rect class="cls-25" x="165.01" y="95.06" width="1.91" height="1.2"/>
            <rect class="cls-25" x="166.68" y="95.06" width="1.91" height="1.2"/>
            <path class="cls-25" d="M170.71,88.81c.46,0,.64.22.64.62s-.18.62-.64.62-.63-.22-.63-.62.18-.62.63-.62M169.81,92.77c0,.43.03.62.82.62.59,0,.88-.08,1.02-.23,0-.72,0-1.2-.92-1.2-.74,0-.91.23-.91.8M168.3,96.22v-1.13l.19-.03h1.4c1.74,0,1.76-.33,1.76-1.05-.13.31-.43.53-1.11.53-1.62,0-1.69-.92-1.69-1.68,0-.97.43-2.1,1.91-2.1,1.31,0,1.92.77,1.92,2.84v.22c0,2.08-1.04,2.43-2.96,2.43h-1.22l-.19-.04h0Z"/>
            <path class="cls-25" d="M172.99,98.2l.19-1.22s.28.06.56.06c.85,0,1.17-.16,1.17-1.82,0-.54-.06-1.35-.19-2.48l1.09-.14c.06.51.08,1.49.23,2.03.07.28.29.44,1.01.44l.19.04v1.13l-.19.04c-.55,0-.9-.17-1.13-.43-.15,1.61-.83,2.49-2.16,2.49-.65,0-.78-.12-.78-.12"/>
            <rect class="cls-25" x="176.92" y="95.06" width="1.91" height="1.2"/>
            <path class="cls-25" d="M181.43,92.64c-.6,0-1.09.12-1.42.23.42.52,1.19,1.44,1.51,1.75.89-.43,1.15-.92,1.15-1.33s-.26-.65-1.25-.65M178.73,96.26l-.18-.04v-1.13l.18-.04h.16c.69,0,1.17-.04,1.52-.1-.35-.42-.9-1.05-1.37-1.71l.27-1.14c.34-.24,1.25-.55,2.19-.55,1.58,0,2.15.47,2.15,1.55,0,.65-.29,1.33-1.12,1.89.25.04.56.06.97.06h.48l.19.04v1.13l-.19.04h-.68c-.95,0-1.5-.16-1.97-.44-.56.27-1.24.44-2.42.44h-.18Z"/>
            <path class="cls-25" d="M186.57,95.09c.67,0,1.09-.05,1.33-.16-.32-1.16-.41-1.67-1.24-1.67-.62,0-.98.17-.98.98,0,.56,0,.84.89.84M183.98,95.06c.37,0,.65-.05.79-.23,0-.16-.02-.33-.02-.5,0-1.45.85-2.25,1.99-2.25,1.34,0,1.56.79,1.91,1.87.19.61.26,1.11.79,1.11l.19.04v1.13l-.19.04c-.59,0-.95-.21-1.18-.5-.23.42-.73.55-1.71.55-.77,0-1.28-.22-1.56-.74-.12.43-.4.7-1.01.7l-.19-.04v-1.13l.19-.04h0Z"/>
            <rect class="cls-25" x="189.3" y="95.06" width="1.91" height="1.2"/>
            <path class="cls-25" d="M193.32,88.5v5.5c0,1.21-.64,2.26-2.21,2.26l-.19-.04v-1.13l.19-.04c.64,0,1.1-.01,1.1-.65v-5.36c0-.54.19-.55.54-.55h.57Z"/>
            <path class="cls-25" d="M196.59,95.7c0,.54-.19.55-.54.55h-.56v-7.21c0-.54.19-.55.54-.55h.56v7.21Z"/>
          </g>
        </g>
        <g class="cls-4">
          <g>
            <rect class="cls-26" x="288.87" width="8.77" height="274.21"/>
            <rect class="cls-28" x="-2.24" width="291.12" height="7.77"/>
            <polygon class="cls-24" points="51.12 151.79 51.12 152.85 48.14 152.85 48.14 160.39 46.92 160.39 46.92 152.85 43.94 152.85 43.94 151.79 51.12 151.79"/>
            <path class="cls-24" d="M56.83,154.84c.32.28.48.74.48,1.38v4.17h-1.14v-3.7c0-.33-.03-.58-.1-.76s-.18-.31-.33-.39-.36-.12-.63-.12-.55.03-.84.11c-.3.07-.57.17-.83.29v4.58h-1.14v-9.13l1.14-.13v3.86c.73-.38,1.42-.57,2.1-.57.55,0,.98.14,1.3.42"/>
            <path class="cls-24" d="M63.84,157.68h-4.05c0,.66.17,1.15.48,1.45s.72.45,1.22.45c.35,0,.66-.04.92-.13.26-.09.55-.23.87-.41l.44.81c-.73.47-1.49.7-2.28.7-.85,0-1.53-.24-2.04-.71-.51-.47-.76-1.22-.76-2.25,0-.58.11-1.12.32-1.59.21-.48.53-.86.95-1.15.42-.29.94-.43,1.55-.43.51,0,.95.1,1.31.31.36.21.64.49.82.86.19.36.28.78.28,1.25l-.03.85h0ZM60.36,155.71c-.26.27-.43.65-.51,1.13h2.89v-.05c0-.5-.11-.87-.34-1.12-.22-.25-.55-.37-.96-.37-.46,0-.82.14-1.08.41"/>
            <polygon class="cls-24" points="69.82 159.35 74.04 159.35 74.04 160.39 68.6 160.39 68.6 151.79 73.98 151.79 73.98 152.82 69.82 152.82 69.82 155.5 73.46 155.5 73.33 156.51 69.82 156.51 69.82 159.35"/>
            <path class="cls-24" d="M79.53,154.88c.34.31.51.8.51,1.46v4.05h-1.04l-.07-.5c-.61.44-1.31.66-2.11.66-.34,0-.64-.06-.9-.19s-.47-.31-.62-.54-.22-.5-.22-.8c0-.49.17-.89.52-1.21.34-.32.81-.56,1.38-.71.58-.15,1.21-.24,1.91-.25v-.29c0-.4-.08-.69-.24-.87-.16-.18-.43-.27-.81-.27-.65,0-1.32.23-2.02.69l-.5-.8c.85-.58,1.74-.88,2.67-.88.68,0,1.19.15,1.53.46M76.52,159.41c.14.11.34.17.62.17.6,0,1.19-.18,1.77-.53v-1.38c-.77.04-1.39.15-1.87.36-.48.2-.72.49-.72.86,0,.23.07.4.21.52"/>
            <path class="cls-24" d="M85.09,154.44c.12.02.26.04.4.08l-.21,1.18c-.3-.11-.58-.16-.82-.16-.28,0-.54.06-.78.19-.24.12-.47.36-.69.7v3.96h-1.14v-5.83l1.14-.12v.84c.22-.28.48-.5.77-.64.29-.15.6-.22.93-.22.15,0,.29,0,.41.03"/>
            <polygon class="cls-24" points="86.62 160.39 86.62 151.25 87.76 151.12 87.76 160.39 86.62 160.39"/>
            <path class="cls-24" d="M94.52,154.57v.08l-2.22,6.15c-.19.54-.4.97-.62,1.29-.22.32-.47.56-.75.7-.28.15-.61.22-.99.22s-.77-.07-1.15-.2l.31-.88c.26.08.51.12.76.12.2,0,.38-.03.52-.09s.28-.18.42-.36.27-.44.4-.8l.16-.42h-.31l-2.23-5.74v-.08h1.21l1.37,3.72.15.4.21.62.33-1.02,1.28-3.72h1.17-.02Z"/>
            <path class="cls-24" d="M100.17,160c-.59-.36-1.03-.88-1.32-1.54-.29-.66-.43-1.45-.43-2.35,0-1.04.18-1.9.55-2.57.37-.67.85-1.15,1.44-1.46.59-.3,1.24-.46,1.95-.46.54,0,1.04.07,1.49.2s.89.33,1.31.58l-.53.93c-.69-.43-1.43-.65-2.22-.65-.92,0-1.6.3-2.04.9-.44.6-.66,1.42-.66,2.46s.23,1.91.69,2.52,1.14.92,2.03.92c.45,0,.86-.06,1.22-.17s.73-.28,1.09-.49l.49.89c-.47.27-.93.48-1.37.62-.45.14-.94.21-1.48.21-.89,0-1.62-.18-2.22-.54"/>
            <path class="cls-24" d="M110.9,154.84c.32.28.48.74.48,1.38v4.17h-1.14v-3.7c0-.33-.03-.58-.1-.76s-.18-.31-.33-.39-.36-.12-.63-.12-.55.03-.84.11c-.3.07-.57.17-.83.29v4.58h-1.14v-9.13l1.14-.13v3.86c.73-.38,1.43-.57,2.1-.57.55,0,.98.14,1.3.42"/>
            <path class="cls-24" d="M113.33,153.28c-.12-.07-.22-.17-.3-.3-.08-.12-.11-.26-.11-.4,0-.15.04-.29.11-.41.07-.12.17-.22.3-.3.12-.08.26-.11.4-.11.15,0,.29.04.41.11s.22.17.3.3c.08.12.11.26.11.41,0,.14-.04.27-.11.4-.07.12-.17.22-.3.3-.12.08-.26.11-.41.11-.14,0-.28-.04-.4-.11M113.17,160.39v-5.82l1.14-.13v5.95h-1.14Z"/>
            <polygon class="cls-24" points="116.17 160.39 116.17 151.25 117.31 151.12 117.31 160.39 116.17 160.39"/>
            <path class="cls-24" d="M124.11,151.12v9.27h-1.03l-.05-.42c-.32.19-.64.33-.97.43-.33.1-.63.15-.92.15-.51,0-.95-.12-1.31-.35-.36-.23-.64-.57-.83-1.01-.19-.44-.29-.95-.29-1.55,0-.67.13-1.25.39-1.74s.62-.86,1.07-1.11.96-.38,1.54-.38c.38,0,.8.06,1.26.17v-3.33l1.14-.13h0ZM120.32,159.09c.26.32.64.48,1.13.48s1.02-.15,1.51-.44v-3.61c-.4-.13-.79-.2-1.17-.2s-.68.08-.96.24-.5.42-.66.76-.25.77-.25,1.29c0,.66.13,1.15.4,1.47"/>
            <path class="cls-24" d="M130.51,154.84c.32.28.48.74.48,1.38v4.17h-1.14v-3.7c0-.33-.03-.58-.1-.76s-.18-.31-.33-.39c-.15-.08-.37-.12-.63-.12s-.55.03-.84.11c-.3.07-.57.17-.83.29v4.58h-1.14v-9.13l1.14-.13v3.86c.73-.38,1.42-.57,2.1-.57.55,0,.98.14,1.3.42"/>
            <path class="cls-24" d="M133.55,160.14c-.42-.27-.73-.64-.93-1.1s-.31-.99-.31-1.57c0-.71.13-1.29.4-1.75.26-.45.62-.79,1.07-.99.45-.21.96-.31,1.54-.31.62,0,1.14.14,1.55.4.42.27.73.64.93,1.1s.31.98.31,1.57c0,.72-.13,1.3-.4,1.76-.27.46-.62.79-1.08,1-.45.21-.96.31-1.54.31-.62,0-1.14-.13-1.55-.4M136.92,157.47c0-.65-.14-1.16-.42-1.55s-.7-.58-1.26-.58c-.62,0-1.06.19-1.33.56-.27.38-.4.9-.4,1.56s.14,1.18.43,1.57c.28.39.71.58,1.27.58,1.14,0,1.71-.72,1.71-2.15"/>
            <path class="cls-24" d="M140.28,160.14c-.42-.27-.73-.64-.93-1.1s-.31-.99-.31-1.57c0-.71.13-1.29.4-1.75.27-.45.62-.79,1.08-.99.45-.21.96-.31,1.54-.31.62,0,1.14.14,1.55.4.42.27.73.64.93,1.1s.31.98.31,1.57c0,.72-.13,1.3-.4,1.76-.27.46-.62.79-1.08,1-.45.21-.96.31-1.54.31-.62,0-1.14-.13-1.55-.4M143.65,157.47c0-.65-.14-1.16-.42-1.55s-.7-.58-1.26-.58c-.62,0-1.06.19-1.33.56-.27.38-.4.9-.4,1.56s.14,1.18.43,1.57c.28.39.71.58,1.27.58,1.14,0,1.71-.72,1.71-2.15"/>
            <path class="cls-24" d="M151.18,151.12v9.27h-1.04l-.05-.42c-.32.19-.64.33-.97.43-.33.1-.63.15-.92.15-.51,0-.95-.12-1.32-.35-.36-.23-.64-.57-.83-1.01-.19-.44-.29-.95-.29-1.55,0-.67.13-1.25.39-1.74s.62-.86,1.07-1.11c.45-.25.96-.38,1.54-.38.38,0,.8.06,1.26.17v-3.33l1.14-.13h.02ZM147.39,159.09c.27.32.64.48,1.13.48s1.02-.15,1.51-.44v-3.61c-.4-.13-.79-.2-1.17-.2s-.68.08-.96.24c-.28.16-.5.42-.66.76s-.24.77-.24,1.29c0,.66.13,1.15.4,1.47"/>
            <path class="cls-24" d="M163.64,162.29l-3.01-1.79c-.21.04-.46.05-.73.05-.86,0-1.59-.19-2.19-.56-.6-.38-1.06-.9-1.36-1.57-.31-.67-.46-1.46-.46-2.35,0-.99.19-1.82.56-2.48.37-.66.87-1.15,1.49-1.47.62-.32,1.31-.48,2.06-.48.86,0,1.59.19,2.19.56.6.38,1.06.9,1.36,1.57.31.67.46,1.46.46,2.35,0,.97-.19,1.8-.58,2.47s-.91,1.18-1.57,1.51l2.44,1.21-.65.98h-.01ZM157.46,157.86c.2.52.5.92.91,1.21s.92.44,1.53.44,1.15-.14,1.57-.43c.42-.29.74-.68.94-1.19.21-.5.31-1.09.31-1.76s-.1-1.3-.3-1.81c-.2-.52-.5-.92-.91-1.21-.41-.29-.92-.44-1.53-.44s-1.15.14-1.57.43c-.42.29-.74.68-.94,1.19-.21.51-.31,1.09-.31,1.77s.1,1.29.3,1.81"/>
            <path class="cls-24" d="M170.45,154.44v5.95h-1.02l-.07-.44c-.68.4-1.37.6-2.07.6-.54,0-.98-.15-1.32-.46-.34-.3-.51-.77-.51-1.39v-4.13l1.14-.13v3.93c0,.29.04.52.11.7.07.17.19.3.35.37.16.08.38.11.66.11.43,0,.96-.16,1.59-.49v-4.49l1.14-.13h0Z"/>
            <path class="cls-24" d="M176.22,154.88c.34.31.51.8.51,1.46v4.05h-1.04l-.07-.5c-.61.44-1.31.66-2.11.66-.34,0-.64-.06-.9-.19s-.47-.31-.62-.54-.22-.5-.22-.8c0-.49.17-.89.52-1.21s.8-.56,1.38-.71c.58-.15,1.21-.24,1.91-.25v-.29c0-.4-.08-.69-.24-.87s-.43-.27-.81-.27c-.65,0-1.32.23-2.02.69l-.5-.8c.85-.58,1.74-.88,2.67-.88.68,0,1.19.15,1.53.46M173.21,159.41c.14.11.34.17.62.17.6,0,1.19-.18,1.77-.53v-1.38c-.77.04-1.39.15-1.87.36-.48.2-.72.49-.72.86,0,.23.07.4.21.52"/>
            <polygon class="cls-24" points="178.52 160.39 178.52 151.25 179.67 151.12 179.67 160.39 178.52 160.39"/>
            <path class="cls-24" d="M181.68,153.28c-.12-.07-.22-.17-.3-.3-.08-.12-.11-.26-.11-.4,0-.15.04-.29.11-.41.08-.12.17-.22.3-.3.12-.08.26-.11.4-.11.15,0,.29.04.41.11.12.07.22.17.3.3.07.12.11.26.11.41,0,.14-.04.27-.11.4-.08.12-.18.22-.3.3-.12.08-.26.11-.41.11-.14,0-.27-.04-.4-.11M181.52,160.39v-5.82l1.14-.13v5.95h-1.14Z"/>
            <path class="cls-24" d="M188.2,160.18c-.46.25-.95.37-1.46.37-.55,0-.98-.16-1.3-.47s-.48-.79-.48-1.41v-3.19h-1.17v-.9h1.17v-1.32l1.14-.19v1.5h1.97l-.12.9h-1.85v3c0,.74.28,1.11.82,1.11.16,0,.31-.02.46-.05.15-.04.31-.09.49-.17l.32.81h0Z"/>
            <path class="cls-24" d="M194.23,154.57v.08l-2.22,6.15c-.2.54-.4.97-.62,1.29-.22.32-.47.56-.75.7-.28.15-.61.22-.99.22s-.77-.07-1.15-.2l.31-.88c.26.08.51.12.76.12.2,0,.38-.03.52-.09s.28-.18.42-.36.27-.44.4-.8l.16-.42h-.3l-2.23-5.74v-.08h1.21l1.37,3.72.15.4.21.62.33-1.02,1.27-3.72h1.17-.02Z"/>
            <polygon class="cls-24" points="204 152.82 199.84 152.82 199.84 155.71 203.47 155.71 203.34 156.75 199.84 156.75 199.84 160.39 198.62 160.39 198.62 151.79 204 151.79 204 152.82"/>
            <path class="cls-24" d="M208.37,154.44c.12.02.26.04.4.08l-.21,1.18c-.3-.11-.58-.16-.82-.16-.28,0-.55.06-.78.19-.24.12-.47.36-.69.7v3.96h-1.14v-5.83l1.14-.12v.84c.22-.28.48-.5.77-.64.29-.15.6-.22.93-.22.15,0,.29,0,.41.03"/>
            <path class="cls-24" d="M213.6,154.88c.34.31.51.8.51,1.46v4.05h-1.04l-.07-.5c-.61.44-1.31.66-2.11.66-.34,0-.64-.06-.9-.19s-.47-.31-.62-.54-.22-.5-.22-.8c0-.49.17-.89.52-1.21s.8-.56,1.38-.71c.58-.15,1.21-.24,1.91-.25v-.29c0-.4-.08-.69-.24-.87s-.43-.27-.81-.27c-.65,0-1.32.23-2.02.69l-.5-.8c.85-.58,1.74-.88,2.67-.88.68,0,1.19.15,1.53.46M210.59,159.41c.14.11.34.17.62.17.6,0,1.19-.18,1.77-.53v-1.38c-.77.04-1.39.15-1.87.36-.48.2-.72.49-.72.86,0,.23.07.4.21.52"/>
            <path class="cls-24" d="M223.9,154.84c.3.28.45.74.45,1.38v4.17h-1.14v-3.7c0-.33-.03-.58-.09-.76s-.16-.31-.29-.39c-.13-.08-.32-.12-.56-.12-.26,0-.53.04-.81.11-.28.08-.55.18-.8.3.02.18.03.31.03.4v4.17h-1.14v-3.7c0-.33-.03-.58-.09-.76s-.15-.31-.29-.39c-.13-.08-.32-.12-.56-.12s-.51.04-.78.11c-.27.08-.54.17-.78.29v4.58h-1.14v-5.82l1.14-.13v.56c.68-.39,1.35-.58,1.99-.58s1.11.22,1.38.65c.32-.19.68-.34,1.08-.47.4-.12.8-.19,1.19-.19.5,0,.91.14,1.21.42"/>
            <path class="cls-24" d="M230.88,157.68h-4.05c0,.66.17,1.15.48,1.45s.72.45,1.21.45c.35,0,.66-.04.92-.13.26-.09.55-.23.87-.41l.44.81c-.73.47-1.49.7-2.28.7-.85,0-1.53-.24-2.04-.71s-.76-1.22-.76-2.25c0-.58.11-1.12.32-1.59s.53-.86.95-1.15.94-.43,1.55-.43c.51,0,.95.1,1.31.31.36.21.64.49.82.86.19.36.28.78.28,1.25l-.03.85h0ZM227.41,155.71c-.26.27-.43.65-.51,1.13h2.89v-.05c0-.5-.11-.87-.34-1.12s-.55-.37-.96-.37c-.46,0-.82.14-1.08.41"/>
            <path class="cls-24" d="M239.95,154.57v.08l-1.75,5.74h-1.14l-1.06-3.56c-.14-.5-.24-.85-.28-1.05-.04.2-.12.54-.26,1.05l-1.06,3.56h-1.08l-1.91-5.74v-.08h1.25l1.05,3.65c.04.15.11.42.2.81.05-.31.12-.58.19-.81l1.06-3.65h1.25l1.06,3.65c.07.25.15.56.23.94.06-.37.12-.68.19-.94l.97-3.65h1.12-.03Z"/>
            <path class="cls-24" d="M241.61,160.14c-.42-.27-.73-.64-.93-1.1s-.31-.99-.31-1.57c0-.71.13-1.29.4-1.75.26-.45.62-.79,1.07-.99.45-.21.96-.31,1.54-.31.62,0,1.14.14,1.55.4.42.27.73.64.93,1.1s.31.98.31,1.57c0,.72-.13,1.3-.4,1.76-.27.46-.62.79-1.08,1-.45.21-.96.31-1.54.31-.62,0-1.14-.13-1.55-.4M244.98,157.47c0-.65-.14-1.16-.42-1.55s-.7-.58-1.26-.58c-.62,0-1.06.19-1.33.56-.27.38-.4.9-.4,1.56s.14,1.18.43,1.57c.28.39.71.58,1.27.58,1.14,0,1.71-.72,1.71-2.15"/>
            <path class="cls-24" d="M250.82,154.44c.12.02.26.04.4.08l-.21,1.18c-.3-.11-.58-.16-.82-.16-.28,0-.55.06-.78.19-.24.12-.47.36-.69.7v3.96h-1.14v-5.83l1.14-.12v.84c.22-.28.48-.5.77-.64.29-.15.6-.22.93-.22.15,0,.29,0,.41.03"/>
            <polygon class="cls-24" points="254.8 157.28 257.34 160.31 257.34 160.39 255.95 160.39 253.49 157.35 253.49 160.39 252.35 160.39 252.35 151.25 253.49 151.12 253.49 157.25 255.96 154.57 257.22 154.57 257.22 154.65 254.8 157.28"/>
            <path class="cls-24" d="M48.24,140.04c.36.38.61.73.77,1.05s.23.67.23,1.03-.1.68-.28.97c-.19.29-.45.52-.78.69s-.71.25-1.12.25c-.59,0-1.06-.15-1.39-.44-.34-.29-.51-.7-.51-1.24,0-.33.1-.7.29-1.11.19-.42.5-.91.92-1.47l-.28-.21.5-.92.11-.05c.67.59,1.19,1.08,1.55,1.45M46.32,137.43l-1.08-.76.65-1.01,1.08.74-.65,1.02h0ZM47.96,142.77c.19-.15.29-.36.29-.64s-.1-.56-.3-.85c-.2-.29-.49-.61-.88-.94-.35.38-.61.71-.76,1-.15.29-.22.55-.22.79,0,.26.1.47.29.63.19.15.45.23.78.23s.61-.08.8-.23M48.16,137.43l-1.08-.76.68-1.01,1.07.74-.68,1.02h.01Z"/>
            <path class="cls-24" d="M54.99,143.01c.08.06.11.15.11.27,0,.17-.06.32-.17.46-.11.14-.32.21-.62.21-.48,0-.85-.12-1.12-.36-.14.41-.39.79-.75,1.16-.36.37-.81.68-1.36.95s-1.17.47-1.86.59l-.56-.77.05-.11c1.19-.23,2.09-.57,2.67-1.01.59-.45.95-.96,1.1-1.55-.16-.46-.5-1.2-1.02-2.23l.77-.82h.13c.2.57.42,1.13.65,1.7l.13.35c.12.32.24.55.34.69s.23.24.38.29c.16.05.38.08.68.08.21,0,.36.03.43.09"/>
            <path class="cls-24" d="M54.56,142.93h1.06c.21,0,.36.03.43.09.08.06.11.14.11.26,0,.17-.06.32-.17.46-.11.14-.32.21-.62.21h-1.06s.25-1.02.25-1.02Z"/>
            <path class="cls-24" d="M55.62,142.93h1.06c.21,0,.36.03.43.09.08.06.11.14.11.26,0,.17-.06.32-.17.46-.12.14-.32.21-.62.21h-1.06s.25-1.02.25-1.02Z"/>
            <path class="cls-24" d="M56.69,142.93h1.06c.21,0,.36.03.43.09.08.06.11.14.11.26,0,.17-.06.32-.17.46-.11.14-.32.21-.62.21h-1.06s.25-1.02.25-1.02Z"/>
            <path class="cls-24" d="M64.71,143.01c.07.06.11.15.11.27,0,.17-.06.32-.17.46-.12.14-.32.21-.62.21-.7,0-1.33-.33-1.89-.98-.15.27-.38.48-.7.62s-.72.24-1.19.29c-.47.05-1.1.07-1.87.07h-.89l.25-1.03h1.38c.83,0,1.42-.05,1.76-.15.35-.1.58-.23.69-.4-.22-.36-.64-.83-1.26-1.42s-1.26-1.17-1.91-1.72l-.05-.08.28-1.35,4.35-2.46.09.04-.35,1.3-3.4,1.89c.67.63,1.23,1.17,1.66,1.61s.85.89,1.26,1.33c.33.37.58.65.77.83.19.18.38.32.58.42.2.1.42.15.67.15.21,0,.36.03.43.09"/>
            <path class="cls-24" d="M64.28,142.93h1.06c.21,0,.36.03.43.09.08.06.11.14.11.26,0,.17-.06.32-.17.46s-.32.21-.62.21h-1.06l.25-1.02Z"/>
            <path class="cls-24" d="M65.34,142.93h1.06c.21,0,.36.03.43.09.08.06.11.14.11.26,0,.17-.06.32-.17.46s-.32.21-.62.21h-1.06l.25-1.02Z"/>
            <path class="cls-24" d="M66.4,142.93h1.06c.21,0,.36.03.43.09.08.06.11.14.11.26,0,.17-.06.32-.17.46s-.32.21-.62.21h-1.06l.25-1.02Z"/>
            <path class="cls-24" d="M72.09,143.01c.07.06.11.15.11.27,0,.17-.06.32-.17.46-.12.14-.32.21-.62.21-.34,0-.68-.05-1.02-.15-.34-.1-.64-.27-.91-.5-.22.22-.49.38-.82.49-.32.11-.71.16-1.17.16h-.28l.26-1.04h.29c.52,0,.89-.08,1.12-.25.1-.14.19-.36.29-.67.09-.3.21-.75.35-1.35l1.02-.25.13.08c-.19.88-.41,1.56-.64,2.03.18.12.41.22.66.3.26.08.58.11.97.11.2,0,.34.03.42.09M69.78,146.72l-1.09-.76.68-1,1.09.73-.68,1.02h0Z"/>
            <path class="cls-24" d="M71.66,142.93h1.06c.21,0,.36.03.43.09.08.06.11.14.11.26,0,.17-.06.32-.17.46s-.32.21-.62.21h-1.06l.25-1.02Z"/>
            <path class="cls-24" d="M72.72,142.93h1.06c.21,0,.36.03.43.09.08.06.11.14.11.26,0,.17-.06.32-.17.46s-.32.21-.62.21h-1.06l.25-1.02Z"/>
            <path class="cls-24" d="M73.79,142.93h1.06c.21,0,.36.03.43.09.08.06.11.14.11.26,0,.17-.06.32-.17.46s-.32.21-.62.21h-1.06l.25-1.02Z"/>
            <path class="cls-24" d="M82.32,143c.09.06.13.15.13.27,0,.2-.08.37-.23.49-.15.12-.35.18-.6.18-.28,0-.53-.03-.75-.11-.22-.07-.41-.18-.59-.33-.1.2-.23.36-.4.45-.17.1-.38.15-.64.15-.38,0-.81-.09-1.29-.27-.48-.18-.93-.43-1.35-.74-.19.24-.36.42-.53.54s-.36.2-.59.24c-.23.04-.53.07-.9.07l.28-1.03c.19,0,.34-.02.46-.07s.23-.12.33-.24c.1-.11.23-.29.38-.52.11-.16.2-.32.28-.49.22-.4.42-.72.59-.98.17-.25.39-.47.64-.66s.54-.29.86-.29.59.09.81.27.4.4.55.65.34.63.59,1.14c.17.35.32.6.44.76.13.16.27.27.43.33s.38.09.66.09c.19,0,.34.03.42.09M79.44,143.01c.11-.05.21-.14.28-.25l-.11-.24c-.27-.65-.5-1.12-.69-1.39s-.37-.41-.54-.41c-.21,0-.42.14-.62.42-.2.28-.43.67-.68,1.17.35.23.7.42,1.06.56.36.15.65.22.88.22.17,0,.31-.03.43-.08"/>
            <path class="cls-24" d="M81.91,142.93h1.06c.21,0,.36.03.43.09.08.06.11.14.11.26,0,.17-.06.32-.17.46s-.32.21-.62.21h-1.06l.25-1.02Z"/>
            <path class="cls-24" d="M82.97,142.93h1.06c.21,0,.36.03.43.09.08.06.11.14.11.26,0,.17-.06.32-.17.46s-.32.21-.62.21h-1.06l.25-1.02Z"/>
            <path class="cls-24" d="M84.03,142.93h1.06c.21,0,.36.03.43.09.08.06.11.14.11.26,0,.17-.06.32-.17.46s-.32.21-.62.21h-1.06l.25-1.02Z"/>
            <path class="cls-24" d="M85.11,142.91c.28,0,.52-.02.72-.05.2-.03.37-.1.53-.21.06-.28.09-.63.09-1.05v-6.48l.93-.24.11.04v6.56c0,.63-.1,1.12-.31,1.48s-.5.61-.88.76-.86.22-1.45.22l.27-1.04h-.01Z"/>
            <polygon class="cls-24" points="89.29 144.02 89.21 143.98 89.21 135.14 90.18 134.88 90.25 134.94 90.23 143.82 89.29 144.02"/>
            <path class="cls-24" d="M100.77,143c.07.06.1.15.1.27,0,.17-.06.32-.18.46s-.33.21-.63.21c-.56,0-1.01-.08-1.37-.24-.35-.16-.61-.43-.77-.82-.35.08-.68.12-1,.12-.45,0-.85-.06-1.18-.19-.34-.12-.6-.3-.78-.52s-.27-.48-.27-.78c0-.34.12-.68.36-1.04s.59-.69,1.05-1.01c.46-.31,1.01-.57,1.65-.76v-.65l.94-.42.09.03v4.12c0,.34.05.58.16.74s.27.27.49.32.52.08.92.08c.21,0,.35.03.42.09M96.35,136.78l-1.08-.76.65-1.01,1.07.74-.65,1.02h.01ZM97.75,141.91v-2.12c-.59.19-1.09.42-1.49.7s-.64.56-.71.83c.07.22.25.39.54.5.29.12.59.17.9.17.25,0,.5-.03.76-.08M98.2,136.78l-1.07-.76.68-1.01,1.08.74-.68,1.02h-.01Z"/>
            <path class="cls-24" d="M100.32,142.93h1.06c.21,0,.36.03.43.09.08.06.11.14.11.26,0,.17-.06.32-.17.46s-.32.21-.62.21h-1.06l.25-1.02Z"/>
            <path class="cls-24" d="M101.39,142.93h1.06c.21,0,.36.03.43.09.08.06.11.14.11.26,0,.17-.06.32-.17.46s-.32.21-.62.21h-1.06l.25-1.02Z"/>
            <path class="cls-24" d="M102.45,142.93h1.06c.21,0,.36.03.43.09.08.06.11.14.11.26,0,.17-.06.32-.17.46s-.32.21-.62.21h-1.06l.25-1.02Z"/>
            <path class="cls-24" d="M103.52,142.91c.28,0,.52-.02.72-.05.2-.03.37-.1.53-.21.06-.28.09-.63.09-1.05v-6.48l.93-.24.11.04v6.56c0,.63-.1,1.12-.31,1.48s-.5.61-.88.76-.86.22-1.45.22l.27-1.04h-.01Z"/>
            <path class="cls-24" d="M113.13,143.01c.08.06.12.15.12.27,0,.17-.06.32-.18.46s-.33.21-.63.21h-.98c-.15.43-.39.82-.72,1.17s-.76.62-1.29.84c-.53.21-1.15.33-1.86.35l-.56-.77.07-.11c.82-.04,1.53-.18,2.12-.43.59-.25,1.01-.6,1.28-1.04h-.4c-.81,0-1.41-.15-1.81-.45s-.6-.71-.6-1.26c0-.41.09-.81.27-1.21.18-.4.42-.73.72-.98s.62-.38.97-.38c.39,0,.74.14,1.05.43.31.29.55.68.72,1.16s.25,1.01.25,1.58v.07h1.05c.21,0,.36.03.44.09M110.8,142.91v-.08c0-.37-.06-.72-.17-1.05-.12-.33-.27-.59-.46-.78s-.38-.29-.58-.29c-.17,0-.33.06-.5.18-.16.12-.3.29-.4.5-.11.22-.16.46-.16.74s.13.46.4.59c.27.13.7.19,1.3.19h.57Z"/>
            <path class="cls-24" d="M112.71,142.93h1.06c.21,0,.36.03.43.09.08.06.11.14.11.26,0,.17-.06.32-.17.46s-.32.21-.62.21h-1.06l.25-1.02Z"/>
            <path class="cls-24" d="M113.77,142.93h1.06c.21,0,.36.03.43.09.08.06.11.14.11.26,0,.17-.06.32-.17.46s-.32.21-.62.21h-1.06l.25-1.02Z"/>
            <path class="cls-24" d="M114.83,142.93h1.06c.21,0,.36.03.43.09.08.06.11.14.11.26,0,.17-.06.32-.17.46s-.32.21-.62.21h-1.06l.25-1.02Z"/>
            <path class="cls-24" d="M122.21,143.01c.07.06.11.15.11.26,0,.17-.06.32-.18.47-.12.14-.33.21-.63.21h-.84c-.31,0-.64-.03-.98-.1-.34-.07-.67-.16-.99-.27-.68.25-1.48.37-2.39.37h-.68l.27-1.03h1.26c.16,0,.27,0,.35,0-.24-.2-.42-.43-.56-.67-.13-.24-.2-.51-.2-.79,0-.38.1-.76.3-1.13s.46-.68.79-.92.67-.36,1.02-.36c.3,0,.59.1.86.31.27.2.5.46.66.78.17.32.25.63.25.95,0,.72-.24,1.32-.73,1.78.33.04.64.07.94.07h.92c.21,0,.36.03.43.09M117.93,141.98c.2.23.49.41.85.56.31-.16.55-.35.73-.58s.27-.48.27-.74c0-.19-.05-.37-.16-.55-.11-.18-.24-.32-.4-.43-.16-.11-.33-.17-.49-.17-.17,0-.34.06-.51.18-.17.12-.31.27-.42.46s-.17.37-.17.56c0,.25.1.48.31.71M119.06,137.52l-1.09-.76.68-1.01,1.09.74-.68,1.02h0Z"/>
            <path class="cls-24" d="M121.78,142.93h1.06c.21,0,.36.03.43.09.08.06.11.14.11.26,0,.17-.06.32-.17.46s-.32.21-.62.21h-1.06l.25-1.02Z"/>
            <path class="cls-24" d="M122.84,142.93h1.06c.21,0,.36.03.43.09.08.06.11.14.11.26,0,.17-.06.32-.17.46s-.32.21-.62.21h-1.06l.25-1.02Z"/>
            <path class="cls-24" d="M123.9,142.93h1.06c.21,0,.36.03.43.09.08.06.11.14.11.26,0,.17-.06.32-.17.46s-.32.21-.62.21h-1.06l.25-1.02Z"/>
            <path class="cls-24" d="M133.93,143.01c.07.06.11.15.11.26,0,.17-.06.32-.17.46-.12.14-.32.21-.62.21s-.63-.04-.95-.13c-.32-.09-.61-.23-.86-.42-.3.22-.7.37-1.21.44-.5.08-1.23.11-2.18.11h-3.35l.27-1.04h.54l.64-.62v-7.16l.95-.24.08.04v6.4c.68-.61,1.27-1.07,1.77-1.37.5-.31.95-.46,1.36-.46.35,0,.68.1.98.3s.54.46.72.79c.18.33.27.67.27,1.04s-.08.7-.23.98c.39.2.87.31,1.45.31.2,0,.34.03.42.09M130.11,142.85c.43-.04.76-.12.99-.23.07-.1.13-.22.17-.37s.07-.3.07-.46c0-.19-.05-.38-.15-.57-.1-.19-.24-.36-.41-.49s-.36-.2-.56-.2c-.37,0-.83.2-1.37.6-.54.4-1.21,1-2.02,1.79h1.16c.99,0,1.7-.02,2.13-.06"/>
            <path class="cls-24" d="M133.5,142.93h1.06c.21,0,.36.03.43.09.08.06.11.14.11.26,0,.17-.06.32-.17.46-.12.14-.32.21-.62.21h-1.06l.25-1.02Z"/>
            <path class="cls-24" d="M134.56,142.93h1.06c.21,0,.36.03.43.09.08.06.11.14.11.26,0,.17-.06.32-.17.46-.12.14-.32.21-.62.21h-1.06l.25-1.02Z"/>
            <path class="cls-24" d="M135.62,142.93h1.06c.21,0,.36.03.43.09.08.06.11.14.11.26,0,.17-.06.32-.17.46-.12.14-.32.21-.62.21h-1.06l.25-1.02Z"/>
            <path class="cls-24" d="M136.7,142.91c.28,0,.52-.02.72-.05s.37-.1.52-.21c.06-.28.09-.63.09-1.05v-6.48l.93-.24.11.04v6.56c0,.63-.1,1.12-.31,1.48-.21.36-.5.61-.88.76s-.86.22-1.45.22l.26-1.04h.01Z"/>
            <polygon class="cls-24" points="140.88 144.02 140.8 143.98 140.8 135.14 141.77 134.88 141.84 134.94 141.82 143.82 140.88 144.02"/>
            <path class="cls-24" d="M152.36,143c.07.06.1.15.1.27,0,.17-.06.32-.18.46s-.33.21-.63.21c-.56,0-1.01-.08-1.37-.24s-.61-.43-.77-.82c-.34.08-.68.12-.99.12-.45,0-.85-.06-1.18-.19-.34-.12-.6-.3-.78-.52s-.27-.48-.27-.78c0-.34.12-.68.36-1.04s.59-.69,1.05-1.01c.46-.31,1.01-.57,1.65-.76v-.65l.94-.42.09.03v4.12c0,.34.05.58.16.74s.27.27.49.32.52.08.92.08c.21,0,.35.03.42.09M147.94,136.78l-1.08-.76.65-1.01,1.07.74-.65,1.02h0ZM149.34,141.91v-2.12c-.59.19-1.09.42-1.49.7-.4.28-.64.56-.71.83.07.22.25.39.54.5.29.12.59.17.9.17.25,0,.5-.03.76-.08M149.79,136.78l-1.07-.76.68-1.01,1.07.74-.68,1.02h0Z"/>
            <path class="cls-24" d="M151.91,142.93h1.06c.21,0,.36.03.43.09.08.06.11.14.11.26,0,.17-.06.32-.17.46-.12.14-.32.21-.62.21h-1.06l.25-1.02Z"/>
            <path class="cls-24" d="M152.97,142.93h1.06c.21,0,.36.03.43.09.08.06.11.14.11.26,0,.17-.06.32-.17.46-.12.14-.32.21-.62.21h-1.06l.25-1.02Z"/>
            <path class="cls-24" d="M154.04,142.93h1.06c.21,0,.36.03.43.09.08.06.11.14.11.26,0,.17-.06.32-.17.46-.12.14-.32.21-.62.21h-1.06l.25-1.02Z"/>
            <path class="cls-24" d="M159.41,143.01c.07.06.11.15.11.27,0,.17-.06.32-.17.46-.12.14-.32.21-.62.21-.34,0-.66-.06-.96-.17-.31-.11-.55-.32-.72-.61-.21.28-.5.49-.86.6-.36.12-.8.18-1.33.18l.26-1.03c.28,0,.52-.02.72-.05s.37-.1.52-.2c.06-.28.09-.63.09-1.05v-6.48l.93-.24.11.04v6.52c0,.43.06.75.18.96s.28.34.49.4c.2.06.48.09.82.09.21,0,.36.03.43.09"/>
            <path class="cls-24" d="M158.97,142.93h1.06c.21,0,.36.03.43.09.08.06.11.14.11.26,0,.17-.06.32-.17.46-.12.14-.32.21-.62.21h-1.06l.25-1.02Z"/>
            <path class="cls-24" d="M160.04,142.93h1.06c.21,0,.36.03.43.09.08.06.11.14.11.26,0,.17-.06.32-.17.46-.12.14-.32.21-.62.21h-1.06l.25-1.02Z"/>
            <path class="cls-24" d="M161.1,142.93h1.06c.21,0,.36.03.43.09.08.06.11.14.11.26,0,.17-.06.32-.17.46-.12.14-.32.21-.62.21h-1.06l.25-1.02Z"/>
            <path class="cls-24" d="M168.18,141.1c.39.15.75.23,1.07.25l-.25.96c-.55.06-1.1.16-1.67.3-.56.14-1.2.34-1.92.58-.83.28-1.5.48-2.02.59-.51.11-1.01.17-1.49.17l.25-1.04c.42,0,.85-.04,1.28-.13.43-.08,1-.24,1.71-.46.83-.27,1.54-.45,2.11-.56-.32-.14-.63-.3-.93-.48-.5-.29-.92-.49-1.25-.61-.33-.11-.65-.17-.95-.17-.4,0-.84.08-1.33.25l-.04-.05.4-.96c.16-.08.35-.14.56-.19.21-.05.42-.07.61-.07.28,0,.6.07.94.2.35.13.82.36,1.42.69.6.33,1.1.57,1.49.72"/>
            <path class="cls-24" d="M174.59,143.01c.07.06.11.15.11.27,0,.17-.06.32-.17.46-.12.14-.32.21-.62.21-.48,0-.85-.12-1.11-.36-.14.41-.39.79-.75,1.16-.36.37-.81.68-1.36.95s-1.17.47-1.86.59l-.56-.77.05-.11c1.19-.23,2.09-.57,2.67-1.01.59-.45.95-.96,1.1-1.55-.16-.46-.5-1.2-1.02-2.23l.77-.82h.13c.2.57.42,1.13.65,1.7l.13.35c.12.32.24.55.34.69.1.14.23.24.38.29s.38.08.68.08c.21,0,.36.03.43.09"/>
            <path class="cls-24" d="M174.16,142.93h1.06c.21,0,.36.03.43.09.08.06.11.14.11.26,0,.17-.06.32-.17.46-.12.14-.32.21-.62.21h-1.06l.25-1.02Z"/>
            <path class="cls-24" d="M175.22,142.93h1.06c.21,0,.36.03.43.09.08.06.11.14.11.26,0,.17-.06.32-.17.46-.12.14-.32.21-.62.21h-1.06l.25-1.02Z"/>
            <path class="cls-24" d="M176.29,142.93h1.06c.21,0,.36.03.43.09.08.06.11.14.11.26,0,.17-.06.32-.17.46-.12.14-.32.21-.62.21h-1.06l.25-1.02Z"/>
            <path class="cls-24" d="M184.82,143c.09.06.13.15.13.27,0,.2-.08.37-.23.49-.15.12-.35.18-.6.18-.28,0-.53-.03-.75-.11-.22-.07-.41-.18-.59-.33-.1.2-.23.36-.4.45-.17.1-.38.15-.64.15-.38,0-.81-.09-1.29-.27-.48-.18-.93-.43-1.35-.74-.19.24-.36.42-.53.54s-.37.2-.59.24c-.23.04-.52.07-.9.07l.28-1.03c.19,0,.34-.02.46-.07.12-.05.23-.12.33-.24.1-.11.23-.29.38-.52.11-.16.2-.32.28-.49.22-.4.42-.72.59-.98.17-.25.39-.47.64-.66s.54-.29.86-.29.59.09.81.27c.22.18.4.4.55.65.15.25.34.63.59,1.14.17.35.32.6.44.76.13.16.27.27.43.33.16.06.38.09.66.09.2,0,.34.03.43.09M181.94,143.01c.12-.05.21-.14.28-.25l-.11-.24c-.28-.65-.51-1.12-.69-1.39-.18-.27-.37-.41-.54-.41-.21,0-.42.14-.62.42s-.43.67-.68,1.17c.35.23.7.42,1.06.56.36.15.65.22.88.22.17,0,.31-.03.43-.08"/>
            <path class="cls-24" d="M184.41,142.93h1.06c.21,0,.36.03.43.09.08.06.11.14.11.26,0,.17-.06.32-.17.46-.12.14-.32.21-.62.21h-1.06l.25-1.02Z"/>
            <path class="cls-24" d="M185.47,142.93h1.06c.21,0,.36.03.43.09.08.06.11.14.11.26,0,.17-.06.32-.17.46-.12.14-.32.21-.62.21h-1.06l.25-1.02Z"/>
            <path class="cls-24" d="M186.54,142.93h1.06c.21,0,.36.03.43.09.08.06.11.14.11.26,0,.17-.06.32-.17.46-.12.14-.32.21-.62.21h-1.06l.25-1.02Z"/>
            <path class="cls-24" d="M187.61,142.91c.28,0,.52-.02.72-.05s.37-.1.52-.21c.06-.28.09-.63.09-1.05v-6.48l.93-.24.11.04v6.56c0,.63-.1,1.12-.31,1.48-.21.36-.5.61-.88.76s-.86.22-1.45.22l.26-1.04h.01Z"/>
            <path class="cls-24" d="M197.56,140.04c.36.38.62.73.77,1.05.15.32.23.67.23,1.03s-.1.68-.29.97c-.19.29-.45.52-.78.69s-.71.25-1.12.25c-.59,0-1.06-.15-1.39-.44-.34-.29-.5-.7-.5-1.24,0-.33.09-.7.29-1.11.19-.42.5-.91.92-1.47l-.28-.21.5-.92.11-.05c.67.59,1.19,1.08,1.55,1.45M195.64,137.43l-1.08-.76.65-1.01,1.07.74-.65,1.02h0ZM197.28,142.77c.19-.15.29-.36.29-.64s-.1-.56-.3-.85c-.2-.29-.49-.61-.88-.94-.35.38-.61.71-.76,1s-.23.55-.23.79c0,.26.1.47.29.63.19.15.46.23.78.23.35,0,.61-.08.8-.23M197.49,137.43l-1.07-.76.68-1.01,1.07.74-.68,1.02h0Z"/>
            <path class="cls-24" d="M200.56,143.98c-.31-.03-.58-.07-.8-.12l.15-.97.07-.05c.19.05.43.08.72.1.3.02.54.03.74.03.48,0,.93-.05,1.36-.14.43-.09.71-.21.83-.36-.08-.49-.3-1.01-.67-1.56s-.83-1.1-1.39-1.63l.56-.98h.09c1.49,1.57,2.24,2.83,2.24,3.8,0,1.28-1.05,1.93-3.15,1.93-.19,0-.44,0-.75-.04"/>
            <path class="cls-24" d="M211.36,143.01c.08.06.12.15.12.27,0,.17-.06.32-.18.46s-.33.21-.63.21h-.98c-.15.43-.39.82-.72,1.17s-.76.62-1.29.84c-.53.21-1.15.33-1.86.35l-.56-.77.07-.11c.82-.04,1.53-.18,2.12-.43s1.01-.6,1.28-1.04h-.4c-.81,0-1.41-.15-1.81-.45s-.6-.71-.6-1.26c0-.41.09-.81.27-1.21.18-.4.42-.73.72-.98s.62-.38.97-.38c.39,0,.74.14,1.05.43s.55.68.72,1.16.25,1.01.25,1.58v.07h1.05c.21,0,.36.03.44.09M209.02,142.91v-.08c0-.37-.06-.72-.17-1.05-.12-.33-.27-.59-.46-.78s-.38-.29-.58-.29c-.17,0-.33.06-.5.18-.16.12-.3.29-.4.5-.11.22-.16.46-.16.74s.13.46.4.59c.27.13.7.19,1.3.19h.57Z"/>
            <path class="cls-24" d="M210.94,142.93h1.06c.21,0,.36.03.43.09.08.06.11.14.11.26,0,.17-.06.32-.17.46-.12.14-.32.21-.62.21h-1.06l.25-1.02Z"/>
            <path class="cls-24" d="M212,142.93h1.06c.21,0,.36.03.43.09.08.06.11.14.11.26,0,.17-.06.32-.17.46-.12.14-.32.21-.62.21h-1.06l.25-1.02Z"/>
            <path class="cls-24" d="M213.06,142.93h1.06c.21,0,.36.03.43.09.08.06.11.14.11.26,0,.17-.06.32-.17.46-.12.14-.32.21-.62.21h-1.06l.25-1.02Z"/>
            <path class="cls-24" d="M222.61,143.01c.07.06.11.15.11.27,0,.17-.05.32-.16.46s-.31.21-.61.21c-.58,0-1.08-.05-1.47-.14-.4-.09-.72-.23-.96-.42s-.45-.42-.6-.7c-.45.13-.96.3-1.51.49-.86.29-1.54.49-2.03.61-.5.11-.99.17-1.49.17l.25-1.04c.43,0,.86-.04,1.29-.13.43-.08.99-.24,1.69-.46.82-.27,1.52-.46,2.1-.57-.26-.11-.56-.27-.92-.46-.53-.29-.96-.49-1.28-.61-.32-.11-.63-.17-.92-.17-.42,0-.86.09-1.33.27l-.04-.05.4-.97c.16-.08.35-.14.56-.19.21-.05.42-.07.61-.07.27,0,.58.07.92.2s.81.35,1.41.66c.65.35,1.16.59,1.54.73.38.14.73.22,1.05.24l-.24.96c-.42.05-.75.1-1,.15.2.19.46.31.8.39.34.07.81.11,1.41.11.2,0,.34.03.41.09M217.52,146.72l-1.09-.76.68-1,1.09.73-.68,1.02h0Z"/>
            <path class="cls-24" d="M222.17,142.93h1.06c.21,0,.36.03.43.09.08.06.11.14.11.26,0,.17-.06.32-.17.46-.12.14-.32.21-.62.21h-1.06l.25-1.02Z"/>
            <path class="cls-24" d="M223.23,142.93h1.06c.21,0,.36.03.43.09.08.06.11.14.11.26,0,.17-.06.32-.17.46-.12.14-.32.21-.62.21h-1.06l.25-1.02Z"/>
            <path class="cls-24" d="M224.29,142.93h1.06c.21,0,.36.03.43.09.08.06.11.14.11.26,0,.17-.06.32-.17.46-.12.14-.32.21-.62.21h-1.06l.25-1.02Z"/>
            <path class="cls-24" d="M225.37,142.91c.28,0,.52-.02.72-.05s.37-.1.52-.21c.06-.28.09-.63.09-1.05v-6.48l.93-.24.11.04v6.56c0,.63-.1,1.12-.31,1.48-.21.36-.5.61-.88.76s-.86.22-1.45.22l.27-1.04h0Z"/>
            <polygon class="cls-24" points="229.55 144.02 229.47 143.98 229.47 135.14 230.44 134.88 230.5 134.94 230.49 143.82 229.55 144.02"/>
            <path class="cls-24" d="M233.65,145.53l.05-.11c.8-.14,1.47-.35,2.03-.62.56-.27.98-.57,1.26-.89.28-.32.42-.61.42-.88-.02-.26-.12-.61-.29-1.05-.18-.44-.4-.9-.66-1.37l.77-.81h.11c.28.52.51,1.05.69,1.6.18.54.26,1.01.26,1.39,0,.22-.03.45-.09.68s-.15.46-.26.67c-.18.32-.44.62-.8.91-.35.29-.78.54-1.28.76s-1.05.38-1.64.48l-.56-.77h-.01Z"/>
            <path class="cls-24" d="M240.55,143.46c-.41-.33-.61-.89-.61-1.7v-6.62l.96-.24.08.04v6.7c0,.35.05.61.15.79.1.18.26.31.48.38s.52.11.91.11c.2,0,.35.03.43.09.08.06.12.15.12.26,0,.17-.06.32-.18.46s-.33.21-.63.21c-.73,0-1.29-.16-1.7-.49"/>
            <path class="cls-24" d="M242.52,142.93h1.06c.21,0,.36.03.43.09.08.06.11.14.11.26,0,.17-.06.32-.17.46-.12.14-.32.21-.62.21h-1.06l.25-1.02Z"/>
            <path class="cls-24" d="M243.58,142.93h1.06c.21,0,.36.03.43.09.08.06.11.14.11.26,0,.17-.06.32-.17.46-.12.14-.32.21-.62.21h-1.06l.25-1.02Z"/>
            <path class="cls-24" d="M244.64,142.93h1.06c.21,0,.36.03.43.09.08.06.11.14.11.26,0,.17-.06.32-.17.46-.12.14-.32.21-.62.21h-1.06l.25-1.02Z"/>
            <path class="cls-24" d="M252.05,139.8c.3.2.54.46.72.79.18.33.26.67.26,1.04s-.07.69-.22.98-.33.54-.56.73c-.2.17-.45.3-.75.39s-.65.15-1.08.18c-.42.03-.96.05-1.63.05h-3.35l.26-1.04h.54l.64-.62v-7.16l.96-.24.08.04v6.4c.68-.61,1.27-1.07,1.77-1.37.5-.3.95-.46,1.36-.46.35,0,.68.1.98.3M252.01,142.25c.04-.15.07-.3.07-.46,0-.19-.05-.38-.15-.57-.1-.19-.24-.36-.41-.49s-.36-.2-.56-.2c-.37,0-.83.2-1.37.6-.54.4-1.21,1-2.02,1.79h1.15c.99,0,1.7-.02,2.13-.06.43-.04.76-.12.99-.23.07-.1.13-.22.17-.37"/>
            <path class="cls-24" d="M256.44,147.12c-.7.09-1.54.15-2.54.19l-.07-.72c.27,0,.47,0,.6,0-.16-.25-.24-.51-.24-.78,0-.32.1-.57.29-.76s.46-.29.8-.29c.29,0,.6.06.93.19l-.18.7c-.27-.1-.47-.15-.62-.15-.16,0-.28.05-.36.15-.09.1-.13.22-.13.36,0,.21.09.4.27.56.36-.03.76-.06,1.19-.11l.07.68h-.01ZM254.71,144.02l-.08-.04v-8.84l.97-.25.07.05v8.88l-.96.2h0Z"/>
            <path class="cls-25" d="M117.55,71.8h-.61c0,1.69-1.37,3.06-3.06,3.06h-3.06v-24.49h-6.12v30.62h9.8c1.69,0,3.06-1.37,3.06-3.06v-6.12h-.01Z"/>
            <path class="cls-25" d="M116.94,77.92c0,1.69-1.37,3.06-3.06,3.06h3.06c3.38,0,6.12-2.74,6.12-6.12v-18.37c0-3.39-2.74-6.12-6.12-6.12h-12.25v3.06c0,1.69,1.37,3.07,3.06,3.07h6.12c1.69,0,3.06,1.37,3.06,3.06v18.37h.01Z"/>
            <path class="cls-25" d="M190.43,80.98v-27.56c0-1.69,1.37-3.06,3.06-3.06h3.06v27.56c0,1.69-1.37,3.06-3.06,3.06h-3.06Z"/>
            <path class="cls-25" d="M164.21,67.02c-1.43,1.43-3.19,2.39-5.11,2.83.44.53.7,1.21.7,1.95,0,1.69-1.37,3.06-3.06,3.06s-3.07-1.37-3.07-3.06v-1.68h-6.12v7.81c0,1.69,1.37,3.06,3.06,3.06h6.13c5.07,0,9.18-4.11,9.18-9.19,0-1.85-.55-3.57-1.49-5.01-.07.08-.15.16-.23.24"/>
            <path class="cls-25" d="M153.68,59.55c0-1.2.69-2.23,1.68-2.73v-6.45h-7.81v10.87h6.12v-1.68h.01Z"/>
            <path class="cls-25" d="M132.25,62.46v-12.1h-3.06c-1.69,0-3.06,1.37-3.06,3.06v7.81h3.06c1.19,0,2.27.47,3.06,1.23"/>
            <path class="cls-25" d="M144.49,61.23v-7.81c0-1.69-1.37-3.06-3.06-3.06h-3.06v12.1c.8-.76,1.88-1.23,3.06-1.23h3.06Z"/>
            <path class="cls-25" d="M168.99,80.98h3.06c1.69,0,3.06-1.37,3.06-3.06v-7.81h-6.12s0,10.87,0,10.87Z"/>
            <path class="cls-25" d="M175.11,61.23v-3.37h0v-4.44c0-1.19.47-2.26,1.23-3.06h-1.23c-3.38,0-6.12,2.74-6.12,6.13v5.97c.8-.76,1.88-1.23,3.06-1.23,0,0,3.06,0,3.06,0Z"/>
            <path class="cls-25" d="M181.35,70.11h-.11v7.81c0,1.69,1.37,3.06,3.06,3.06h3.07v-14.04c-1.34,1.89-3.54,3.14-6.01,3.17"/>
            <path class="cls-25" d="M126.12,62.61v12.24c0,3.38,2.74,6.13,6.12,6.13h3.68c1.69,0,3.06-1.37,3.06-3.06v-3.06h-3.67c-1.69,0-3.06-1.37-3.06-3.06v-6.13c0-1.69-1.37-3.06-3.06-3.06h-3.07Z"/>
          </g>
        </g>
        <g class="cls-11">
          <rect class="cls-25" x="120.96" y="65.46" width="9.76" height="13.94"/>
        </g>
        <g class="cls-9">
          <path class="cls-25" d="M156.74,56.49c1.69,0,3.06,1.37,3.06,3.06s-1.37,3.06-3.06,3.06h-9.8c-1.69,0-3.06,1.37-3.06,3.06v3.06h12.86c5.07,0,9.18-4.11,9.18-9.18s-4.11-9.19-9.18-9.19v6.12h0Z"/>
        </g>
        <g class="cls-10">
          <rect class="cls-25" x="134.44" y="56.17" width="16.73" height="13.94"/>
        </g>
        <g class="cls-8">
          <g>
            <path class="cls-25" d="M147.55,62.61h-6.12c-1.69,0-3.06,1.37-3.06,3.06v12.25c0,1.69-1.37,3.06-3.06,3.06h3.06c3.38,0,6.12-2.74,6.12-6.13v-9.18c0-1.69,1.37-3.06,3.06-3.06"/>
            <path class="cls-25" d="M155.08,70.06h0v1.68c0,.93.75,1.69,1.68,1.69s1.68-.76,1.68-1.69-.75-1.68-1.68-1.68h-1.68Z"/>
          </g>
        </g>
        <g class="cls-5">
          <rect class="cls-25" x="142.41" y="70.59" width="3.62" height="3.62" transform="translate(-8.95 123.19) rotate(-45)"/>
        </g>
        <g class="cls-2">
          <rect class="cls-25" x="127.8" y="79.77" width="3.62" height="3.62" transform="translate(-19.73 115.54) rotate(-45)"/>
        </g>
        <g class="cls-6">
          <rect class="cls-25" x="124.37" y="79.79" width="3.61" height="3.61" transform="translate(-20.74 113.12) rotate(-45)"/>
        </g>
        <g class="cls-3">
          <g>
            <path class="cls-25" d="M168.99,65.67c0-1.69,1.37-3.06,3.06-3.06h6.12c1.69,0,3.06-1.37,3.06-3.06s-1.37-3.06-3.06-3.06h-1.69v-3.06c0-1.69,1.37-3.06,3.06-3.06h1.69c3.38,0,6.13,2.74,6.13,6.12v6.12c0,3.38-2.74,6.12-6.13,6.12h.11-12.36v-3.06h.01Z"/>
            <path class="cls-25" d="M178.18,62.62h-6.12c-1.69,0-3.06,1.37-3.06,3.06v3.06h9.19c1.69,0,3.06-1.37,3.06-3.06v-6.12c0,1.69-1.37,3.06-3.06,3.06"/>
          </g>
        </g>
        <g class="cls-12">
          <rect class="cls-25" x="153.49" y="63.14" width="9.3" height="6.97"/>
        </g>
        <g class="cls-13">
          <g>
            <path class="cls-25" d="M104.86,88.6h.64c.35,0,.54.01.54.55v2.51h.7l2.25-3.06h1.34l-2.65,3.65,2.87,3.8s-.24.28-.88.28c-.32,0-.43-.07-.64-.37l-2.33-3.08h-.67v3.43h-.64c-.35,0-.54-.01-.54-.55v-7.15h.01Z"/>
            <path class="cls-25" d="M115.71,96.3h-.64c-.35,0-.54-.01-.54-.55v-2.74c0-1.03-.25-1.2-1.02-1.2-.98,0-1.14.32-1.15,1.09v3.41h-.64c-.35,0-.54-.01-.54-.55v-4.95h.41c.55,0,.59.13.59.71.25-.42.72-.77,1.56-.77,1.62,0,1.97.76,1.97,2.42v3.14h0Z"/>
            <path class="cls-25" d="M120.2,93.53c0-1.28-.12-1.73-1.13-1.73s-1.13.44-1.13,1.73c0,1.56.25,1.77,1.13,1.77s1.13-.22,1.13-1.77M116.76,93.52c0-1.94.74-2.78,2.33-2.78,1.7,0,2.3.84,2.3,2.78,0,2.14-.88,2.84-2.31,2.84-1.61,0-2.32-.71-2.32-2.84"/>
            <path class="cls-25" d="M128.29,96.31s-.24.05-.82.05c-.85,0-1.05-.16-1.21-.86l-.6-2.59-.83,3.41s-.25.05-.85.05c-.85,0-1.02-.16-1.13-.86l-.73-4.7h1.15l.69,4.51h.05l1.03-4.18h1.22l1.03,4.18h.05l.68-4.51h1.17l-.92,5.52.02-.02Z"/>
            <path class="cls-25" d="M130.21,88.54h.63c.35,0,.54.01.54.55v7.21h-.63c-.35,0-.54-.01-.54-.55v-7.21Z"/>
            <path class="cls-25" d="M133.64,93.05h2.27c-.02-1-.25-1.24-1.09-1.24s-1.11.23-1.17,1.24M136.98,96.01s-.82.35-2.03.35c-1.67,0-2.52-.71-2.52-2.84,0-2.01.97-2.78,2.39-2.78s2.21.59,2.21,2.59c0,.28-.04.71-.04.71h-3.36c.06,1.06.41,1.27,1.44,1.27,1.13,0,1.79-.25,1.79-.25l.12.96h0Z"/>
            <path class="cls-25" d="M141.38,93.53c0-1.28-.02-1.73-1.09-1.73-1.01,0-1.1.44-1.1,1.73,0,1.56.24,1.77,1.1,1.77.99,0,1.09-.22,1.09-1.77M138,93.52c0-1.94.65-2.78,2.32-2.78.47,0,.8.1,1.04.28v-2.47h.63c.35,0,.54.01.54.55v7.21h-.41c-.48,0-.56-.16-.59-.57-.28.49-.73.62-1.35.62-1.56,0-2.19-.71-2.19-2.84"/>
            <path class="cls-25" d="M146.94,93.53c0-1.28-.04-1.73-1.1-1.73s-1.1.44-1.1,1.73c0,1.56.23,1.77,1.1,1.77,1,0,1.1-.22,1.1-1.77M143.54,93.52c0-1.94.74-2.78,2.33-2.78.62,0,1.01.15,1.24.49.04-.31.15-.43.57-.43h.41v5.49c0,1.83-1.04,2.23-2.6,2.23-1.04,0-1.5-.19-1.68-.29l-.08-1.07c.13.06.76.29,1.68.29,1.42,0,1.5-.31,1.51-1.46-.27.29-.67.37-1.17.37-1.56,0-2.2-.71-2.2-2.84"/>
            <path class="cls-25" d="M150.28,93.05h2.27c-.02-1-.25-1.24-1.09-1.24s-1.12.23-1.18,1.24M153.63,96.01s-.82.35-2.03.35c-1.67,0-2.52-.71-2.52-2.84,0-2.01.97-2.78,2.39-2.78s2.21.59,2.21,2.59c0,.28-.04.71-.04.71h-3.36c.06,1.06.41,1.27,1.44,1.27,1.13,0,1.79-.25,1.79-.25l.12.96h0Z"/>
            <path class="cls-25" d="M161.88,88.59c.42,0,.62.22.62.62s-.2.62-.62.62-.64-.22-.64-.62.22-.62.64-.62M160.41,88.59c.42,0,.64.22.64.62s-.22.62-.64.62-.62-.22-.62-.62.2-.62.62-.62M161.35,93.26v-1.01c-1.29.35-1.6.4-1.6,1.01s.12.69.72.69c.72,0,.85-.22.88-.69M162.43,94.35c0,.57.17.71,1.03.71l.19.04v1.13l-.19.04c-1.37,0-1.99-.3-2.03-1.86-.11.5-.43.75-1.15.75-1.4,0-1.53-.98-1.53-1.76,0-1.55,1.19-1.65,2.6-2.13v-.14c0-.54.19-.55.54-.55h.54v3.79-.02Z"/>
            <rect class="cls-25" x="163.33" y="95.06" width="1.91" height="1.2"/>
            <rect class="cls-25" x="165.01" y="95.06" width="1.91" height="1.2"/>
            <rect class="cls-25" x="166.68" y="95.06" width="1.91" height="1.2"/>
            <path class="cls-25" d="M170.71,88.81c.46,0,.64.22.64.62s-.18.62-.64.62-.63-.22-.63-.62.18-.62.63-.62M169.81,92.77c0,.43.03.62.82.62.59,0,.88-.08,1.02-.23,0-.72,0-1.2-.92-1.2-.74,0-.91.23-.91.8M168.3,96.22v-1.13l.19-.03h1.4c1.74,0,1.76-.33,1.76-1.05-.13.31-.43.53-1.11.53-1.62,0-1.69-.92-1.69-1.68,0-.97.43-2.1,1.91-2.1,1.31,0,1.92.77,1.92,2.84v.22c0,2.08-1.04,2.43-2.96,2.43h-1.22l-.19-.04h0Z"/>
            <path class="cls-25" d="M172.99,98.2l.19-1.22s.28.06.56.06c.85,0,1.17-.16,1.17-1.82,0-.54-.06-1.35-.19-2.48l1.09-.14c.06.51.08,1.49.23,2.03.07.28.29.44,1.01.44l.19.04v1.13l-.19.04c-.55,0-.9-.17-1.13-.43-.15,1.61-.83,2.49-2.16,2.49-.65,0-.78-.12-.78-.12"/>
            <rect class="cls-25" x="176.92" y="95.06" width="1.91" height="1.2"/>
            <path class="cls-25" d="M181.43,92.64c-.6,0-1.09.12-1.42.23.42.52,1.19,1.44,1.51,1.75.89-.43,1.15-.92,1.15-1.33s-.26-.65-1.25-.65M178.73,96.26l-.18-.04v-1.13l.18-.04h.16c.69,0,1.17-.04,1.52-.1-.35-.42-.9-1.05-1.37-1.71l.27-1.14c.34-.24,1.25-.55,2.19-.55,1.58,0,2.15.47,2.15,1.55,0,.65-.29,1.33-1.12,1.89.25.04.56.06.97.06h.48l.19.04v1.13l-.19.04h-.68c-.95,0-1.5-.16-1.97-.44-.56.27-1.24.44-2.42.44h-.18Z"/>
            <path class="cls-25" d="M186.57,95.09c.67,0,1.09-.05,1.33-.16-.32-1.16-.41-1.67-1.24-1.67-.62,0-.98.17-.98.98,0,.56,0,.84.89.84M183.98,95.06c.37,0,.65-.05.79-.23,0-.16-.02-.33-.02-.5,0-1.45.85-2.25,1.99-2.25,1.34,0,1.56.79,1.91,1.87.19.61.26,1.11.79,1.11l.19.04v1.13l-.19.04c-.59,0-.95-.21-1.18-.5-.23.42-.73.55-1.71.55-.77,0-1.28-.22-1.56-.74-.12.43-.4.7-1.01.7l-.19-.04v-1.13l.19-.04h0Z"/>
            <rect class="cls-25" x="189.3" y="95.06" width="1.91" height="1.2"/>
            <path class="cls-25" d="M193.32,88.5v5.5c0,1.21-.64,2.26-2.21,2.26l-.19-.04v-1.13l.19-.04c.64,0,1.1-.01,1.1-.65v-5.36c0-.54.19-.55.54-.55h.57Z"/>
            <path class="cls-25" d="M196.59,95.7c0,.54-.19.55-.54.55h-.56v-7.21c0-.54.19-.55.54-.55h.56v7.21Z"/>
          </g>
        </g>
        <g class="cls-14">
          <g>
            <rect class="cls-26" x="288.87" width="8.77" height="274.21"/>
            <rect class="cls-28" x="-2.24" width="291.12" height="7.77"/>
            <polygon class="cls-24" points="51.12 151.79 51.12 152.85 48.14 152.85 48.14 160.39 46.92 160.39 46.92 152.85 43.94 152.85 43.94 151.79 51.12 151.79"/>
            <path class="cls-24" d="M56.83,154.84c.32.28.48.74.48,1.38v4.17h-1.14v-3.7c0-.33-.03-.58-.1-.76s-.18-.31-.33-.39-.36-.12-.63-.12-.55.03-.84.11c-.3.07-.57.17-.83.29v4.58h-1.14v-9.13l1.14-.13v3.86c.73-.38,1.42-.57,2.1-.57.55,0,.98.14,1.3.42"/>
            <path class="cls-24" d="M63.84,157.68h-4.05c0,.66.17,1.15.48,1.45s.72.45,1.22.45c.35,0,.66-.04.92-.13.26-.09.55-.23.87-.41l.44.81c-.73.47-1.49.7-2.28.7-.85,0-1.53-.24-2.04-.71-.51-.47-.76-1.22-.76-2.25,0-.58.11-1.12.32-1.59.21-.48.53-.86.95-1.15.42-.29.94-.43,1.55-.43.51,0,.95.1,1.31.31.36.21.64.49.82.86.19.36.28.78.28,1.25l-.03.85h0ZM60.36,155.71c-.26.27-.43.65-.51,1.13h2.89v-.05c0-.5-.11-.87-.34-1.12-.22-.25-.55-.37-.96-.37-.46,0-.82.14-1.08.41"/>
            <polygon class="cls-24" points="69.82 159.35 74.04 159.35 74.04 160.39 68.6 160.39 68.6 151.79 73.98 151.79 73.98 152.82 69.82 152.82 69.82 155.5 73.46 155.5 73.33 156.51 69.82 156.51 69.82 159.35"/>
            <path class="cls-24" d="M79.53,154.88c.34.31.51.8.51,1.46v4.05h-1.04l-.07-.5c-.61.44-1.31.66-2.11.66-.34,0-.64-.06-.9-.19s-.47-.31-.62-.54-.22-.5-.22-.8c0-.49.17-.89.52-1.21.34-.32.81-.56,1.38-.71.58-.15,1.21-.24,1.91-.25v-.29c0-.4-.08-.69-.24-.87-.16-.18-.43-.27-.81-.27-.65,0-1.32.23-2.02.69l-.5-.8c.85-.58,1.74-.88,2.67-.88.68,0,1.19.15,1.53.46M76.52,159.41c.14.11.34.17.62.17.6,0,1.19-.18,1.77-.53v-1.38c-.77.04-1.39.15-1.87.36-.48.2-.72.49-.72.86,0,.23.07.4.21.52"/>
            <path class="cls-24" d="M85.09,154.44c.12.02.26.04.4.08l-.21,1.18c-.3-.11-.58-.16-.82-.16-.28,0-.54.06-.78.19-.24.12-.47.36-.69.7v3.96h-1.14v-5.83l1.14-.12v.84c.22-.28.48-.5.77-.64.29-.15.6-.22.93-.22.15,0,.29,0,.41.03"/>
            <polygon class="cls-24" points="86.62 160.39 86.62 151.25 87.76 151.12 87.76 160.39 86.62 160.39"/>
            <path class="cls-24" d="M94.52,154.57v.08l-2.22,6.15c-.19.54-.4.97-.62,1.29-.22.32-.47.56-.75.7-.28.15-.61.22-.99.22s-.77-.07-1.15-.2l.31-.88c.26.08.51.12.76.12.2,0,.38-.03.52-.09s.28-.18.42-.36.27-.44.4-.8l.16-.42h-.31l-2.23-5.74v-.08h1.21l1.37,3.72.15.4.21.62.33-1.02,1.28-3.72h1.17-.02Z"/>
            <path class="cls-24" d="M100.17,160c-.59-.36-1.03-.88-1.32-1.54-.29-.66-.43-1.45-.43-2.35,0-1.04.18-1.9.55-2.57.37-.67.85-1.15,1.44-1.46.59-.3,1.24-.46,1.95-.46.54,0,1.04.07,1.49.2s.89.33,1.31.58l-.53.93c-.69-.43-1.43-.65-2.22-.65-.92,0-1.6.3-2.04.9-.44.6-.66,1.42-.66,2.46s.23,1.91.69,2.52,1.14.92,2.03.92c.45,0,.86-.06,1.22-.17s.73-.28,1.09-.49l.49.89c-.47.27-.93.48-1.37.62-.45.14-.94.21-1.48.21-.89,0-1.62-.18-2.22-.54"/>
            <path class="cls-24" d="M110.9,154.84c.32.28.48.74.48,1.38v4.17h-1.14v-3.7c0-.33-.03-.58-.1-.76s-.18-.31-.33-.39-.36-.12-.63-.12-.55.03-.84.11c-.3.07-.57.17-.83.29v4.58h-1.14v-9.13l1.14-.13v3.86c.73-.38,1.43-.57,2.1-.57.55,0,.98.14,1.3.42"/>
            <path class="cls-24" d="M113.33,153.28c-.12-.07-.22-.17-.3-.3-.08-.12-.11-.26-.11-.4,0-.15.04-.29.11-.41.07-.12.17-.22.3-.3.12-.08.26-.11.4-.11.15,0,.29.04.41.11s.22.17.3.3c.08.12.11.26.11.41,0,.14-.04.27-.11.4-.07.12-.17.22-.3.3-.12.08-.26.11-.41.11-.14,0-.28-.04-.4-.11M113.17,160.39v-5.82l1.14-.13v5.95h-1.14Z"/>
            <polygon class="cls-24" points="116.17 160.39 116.17 151.25 117.31 151.12 117.31 160.39 116.17 160.39"/>
            <path class="cls-24" d="M124.11,151.12v9.27h-1.03l-.05-.42c-.32.19-.64.33-.97.43-.33.1-.63.15-.92.15-.51,0-.95-.12-1.31-.35-.36-.23-.64-.57-.83-1.01-.19-.44-.29-.95-.29-1.55,0-.67.13-1.25.39-1.74s.62-.86,1.07-1.11.96-.38,1.54-.38c.38,0,.8.06,1.26.17v-3.33l1.14-.13h0ZM120.32,159.09c.26.32.64.48,1.13.48s1.02-.15,1.51-.44v-3.61c-.4-.13-.79-.2-1.17-.2s-.68.08-.96.24-.5.42-.66.76-.25.77-.25,1.29c0,.66.13,1.15.4,1.47"/>
            <path class="cls-24" d="M130.51,154.84c.32.28.48.74.48,1.38v4.17h-1.14v-3.7c0-.33-.03-.58-.1-.76s-.18-.31-.33-.39c-.15-.08-.37-.12-.63-.12s-.55.03-.84.11c-.3.07-.57.17-.83.29v4.58h-1.14v-9.13l1.14-.13v3.86c.73-.38,1.42-.57,2.1-.57.55,0,.98.14,1.3.42"/>
            <path class="cls-24" d="M133.55,160.14c-.42-.27-.73-.64-.93-1.1s-.31-.99-.31-1.57c0-.71.13-1.29.4-1.75.26-.45.62-.79,1.07-.99.45-.21.96-.31,1.54-.31.62,0,1.14.14,1.55.4.42.27.73.64.93,1.1s.31.98.31,1.57c0,.72-.13,1.3-.4,1.76-.27.46-.62.79-1.08,1-.45.21-.96.31-1.54.31-.62,0-1.14-.13-1.55-.4M136.92,157.47c0-.65-.14-1.16-.42-1.55s-.7-.58-1.26-.58c-.62,0-1.06.19-1.33.56-.27.38-.4.9-.4,1.56s.14,1.18.43,1.57c.28.39.71.58,1.27.58,1.14,0,1.71-.72,1.71-2.15"/>
            <path class="cls-24" d="M140.28,160.14c-.42-.27-.73-.64-.93-1.1s-.31-.99-.31-1.57c0-.71.13-1.29.4-1.75.27-.45.62-.79,1.08-.99.45-.21.96-.31,1.54-.31.62,0,1.14.14,1.55.4.42.27.73.64.93,1.1s.31.98.31,1.57c0,.72-.13,1.3-.4,1.76-.27.46-.62.79-1.08,1-.45.21-.96.31-1.54.31-.62,0-1.14-.13-1.55-.4M143.65,157.47c0-.65-.14-1.16-.42-1.55s-.7-.58-1.26-.58c-.62,0-1.06.19-1.33.56-.27.38-.4.9-.4,1.56s.14,1.18.43,1.57c.28.39.71.58,1.27.58,1.14,0,1.71-.72,1.71-2.15"/>
            <path class="cls-24" d="M151.18,151.12v9.27h-1.04l-.05-.42c-.32.19-.64.33-.97.43-.33.1-.63.15-.92.15-.51,0-.95-.12-1.32-.35-.36-.23-.64-.57-.83-1.01-.19-.44-.29-.95-.29-1.55,0-.67.13-1.25.39-1.74s.62-.86,1.07-1.11c.45-.25.96-.38,1.54-.38.38,0,.8.06,1.26.17v-3.33l1.14-.13h.02ZM147.39,159.09c.27.32.64.48,1.13.48s1.02-.15,1.51-.44v-3.61c-.4-.13-.79-.2-1.17-.2s-.68.08-.96.24c-.28.16-.5.42-.66.76s-.24.77-.24,1.29c0,.66.13,1.15.4,1.47"/>
            <path class="cls-24" d="M163.64,162.29l-3.01-1.79c-.21.04-.46.05-.73.05-.86,0-1.59-.19-2.19-.56-.6-.38-1.06-.9-1.36-1.57-.31-.67-.46-1.46-.46-2.35,0-.99.19-1.82.56-2.48.37-.66.87-1.15,1.49-1.47.62-.32,1.31-.48,2.06-.48.86,0,1.59.19,2.19.56.6.38,1.06.9,1.36,1.57.31.67.46,1.46.46,2.35,0,.97-.19,1.8-.58,2.47s-.91,1.18-1.57,1.51l2.44,1.21-.65.98h-.01ZM157.46,157.86c.2.52.5.92.91,1.21s.92.44,1.53.44,1.15-.14,1.57-.43c.42-.29.74-.68.94-1.19.21-.5.31-1.09.31-1.76s-.1-1.3-.3-1.81c-.2-.52-.5-.92-.91-1.21-.41-.29-.92-.44-1.53-.44s-1.15.14-1.57.43c-.42.29-.74.68-.94,1.19-.21.51-.31,1.09-.31,1.77s.1,1.29.3,1.81"/>
            <path class="cls-24" d="M170.45,154.44v5.95h-1.02l-.07-.44c-.68.4-1.37.6-2.07.6-.54,0-.98-.15-1.32-.46-.34-.3-.51-.77-.51-1.39v-4.13l1.14-.13v3.93c0,.29.04.52.11.7.07.17.19.3.35.37.16.08.38.11.66.11.43,0,.96-.16,1.59-.49v-4.49l1.14-.13h0Z"/>
            <path class="cls-24" d="M176.22,154.88c.34.31.51.8.51,1.46v4.05h-1.04l-.07-.5c-.61.44-1.31.66-2.11.66-.34,0-.64-.06-.9-.19s-.47-.31-.62-.54-.22-.5-.22-.8c0-.49.17-.89.52-1.21s.8-.56,1.38-.71c.58-.15,1.21-.24,1.91-.25v-.29c0-.4-.08-.69-.24-.87s-.43-.27-.81-.27c-.65,0-1.32.23-2.02.69l-.5-.8c.85-.58,1.74-.88,2.67-.88.68,0,1.19.15,1.53.46M173.21,159.41c.14.11.34.17.62.17.6,0,1.19-.18,1.77-.53v-1.38c-.77.04-1.39.15-1.87.36-.48.2-.72.49-.72.86,0,.23.07.4.21.52"/>
            <polygon class="cls-24" points="178.52 160.39 178.52 151.25 179.67 151.12 179.67 160.39 178.52 160.39"/>
            <path class="cls-24" d="M181.68,153.28c-.12-.07-.22-.17-.3-.3-.08-.12-.11-.26-.11-.4,0-.15.04-.29.11-.41.08-.12.17-.22.3-.3.12-.08.26-.11.4-.11.15,0,.29.04.41.11.12.07.22.17.3.3.07.12.11.26.11.41,0,.14-.04.27-.11.4-.08.12-.18.22-.3.3-.12.08-.26.11-.41.11-.14,0-.27-.04-.4-.11M181.52,160.39v-5.82l1.14-.13v5.95h-1.14Z"/>
            <path class="cls-24" d="M188.2,160.18c-.46.25-.95.37-1.46.37-.55,0-.98-.16-1.3-.47s-.48-.79-.48-1.41v-3.19h-1.17v-.9h1.17v-1.32l1.14-.19v1.5h1.97l-.12.9h-1.85v3c0,.74.28,1.11.82,1.11.16,0,.31-.02.46-.05.15-.04.31-.09.49-.17l.32.81h0Z"/>
            <path class="cls-24" d="M194.23,154.57v.08l-2.22,6.15c-.2.54-.4.97-.62,1.29-.22.32-.47.56-.75.7-.28.15-.61.22-.99.22s-.77-.07-1.15-.2l.31-.88c.26.08.51.12.76.12.2,0,.38-.03.52-.09s.28-.18.42-.36.27-.44.4-.8l.16-.42h-.3l-2.23-5.74v-.08h1.21l1.37,3.72.15.4.21.62.33-1.02,1.27-3.72h1.17-.02Z"/>
            <polygon class="cls-24" points="204 152.82 199.84 152.82 199.84 155.71 203.47 155.71 203.34 156.75 199.84 156.75 199.84 160.39 198.62 160.39 198.62 151.79 204 151.79 204 152.82"/>
            <path class="cls-24" d="M208.37,154.44c.12.02.26.04.4.08l-.21,1.18c-.3-.11-.58-.16-.82-.16-.28,0-.55.06-.78.19-.24.12-.47.36-.69.7v3.96h-1.14v-5.83l1.14-.12v.84c.22-.28.48-.5.77-.64.29-.15.6-.22.93-.22.15,0,.29,0,.41.03"/>
            <path class="cls-24" d="M213.6,154.88c.34.31.51.8.51,1.46v4.05h-1.04l-.07-.5c-.61.44-1.31.66-2.11.66-.34,0-.64-.06-.9-.19s-.47-.31-.62-.54-.22-.5-.22-.8c0-.49.17-.89.52-1.21s.8-.56,1.38-.71c.58-.15,1.21-.24,1.91-.25v-.29c0-.4-.08-.69-.24-.87s-.43-.27-.81-.27c-.65,0-1.32.23-2.02.69l-.5-.8c.85-.58,1.74-.88,2.67-.88.68,0,1.19.15,1.53.46M210.59,159.41c.14.11.34.17.62.17.6,0,1.19-.18,1.77-.53v-1.38c-.77.04-1.39.15-1.87.36-.48.2-.72.49-.72.86,0,.23.07.4.21.52"/>
            <path class="cls-24" d="M223.9,154.84c.3.28.45.74.45,1.38v4.17h-1.14v-3.7c0-.33-.03-.58-.09-.76s-.16-.31-.29-.39c-.13-.08-.32-.12-.56-.12-.26,0-.53.04-.81.11-.28.08-.55.18-.8.3.02.18.03.31.03.4v4.17h-1.14v-3.7c0-.33-.03-.58-.09-.76s-.15-.31-.29-.39c-.13-.08-.32-.12-.56-.12s-.51.04-.78.11c-.27.08-.54.17-.78.29v4.58h-1.14v-5.82l1.14-.13v.56c.68-.39,1.35-.58,1.99-.58s1.11.22,1.38.65c.32-.19.68-.34,1.08-.47.4-.12.8-.19,1.19-.19.5,0,.91.14,1.21.42"/>
            <path class="cls-24" d="M230.88,157.68h-4.05c0,.66.17,1.15.48,1.45s.72.45,1.21.45c.35,0,.66-.04.92-.13.26-.09.55-.23.87-.41l.44.81c-.73.47-1.49.7-2.28.7-.85,0-1.53-.24-2.04-.71s-.76-1.22-.76-2.25c0-.58.11-1.12.32-1.59s.53-.86.95-1.15.94-.43,1.55-.43c.51,0,.95.1,1.31.31.36.21.64.49.82.86.19.36.28.78.28,1.25l-.03.85h0ZM227.41,155.71c-.26.27-.43.65-.51,1.13h2.89v-.05c0-.5-.11-.87-.34-1.12s-.55-.37-.96-.37c-.46,0-.82.14-1.08.41"/>
            <path class="cls-24" d="M239.95,154.57v.08l-1.75,5.74h-1.14l-1.06-3.56c-.14-.5-.24-.85-.28-1.05-.04.2-.12.54-.26,1.05l-1.06,3.56h-1.08l-1.91-5.74v-.08h1.25l1.05,3.65c.04.15.11.42.2.81.05-.31.12-.58.19-.81l1.06-3.65h1.25l1.06,3.65c.07.25.15.56.23.94.06-.37.12-.68.19-.94l.97-3.65h1.12-.03Z"/>
            <path class="cls-24" d="M241.61,160.14c-.42-.27-.73-.64-.93-1.1s-.31-.99-.31-1.57c0-.71.13-1.29.4-1.75.26-.45.62-.79,1.07-.99.45-.21.96-.31,1.54-.31.62,0,1.14.14,1.55.4.42.27.73.64.93,1.1s.31.98.31,1.57c0,.72-.13,1.3-.4,1.76-.27.46-.62.79-1.08,1-.45.21-.96.31-1.54.31-.62,0-1.14-.13-1.55-.4M244.98,157.47c0-.65-.14-1.16-.42-1.55s-.7-.58-1.26-.58c-.62,0-1.06.19-1.33.56-.27.38-.4.9-.4,1.56s.14,1.18.43,1.57c.28.39.71.58,1.27.58,1.14,0,1.71-.72,1.71-2.15"/>
            <path class="cls-24" d="M250.82,154.44c.12.02.26.04.4.08l-.21,1.18c-.3-.11-.58-.16-.82-.16-.28,0-.55.06-.78.19-.24.12-.47.36-.69.7v3.96h-1.14v-5.83l1.14-.12v.84c.22-.28.48-.5.77-.64.29-.15.6-.22.93-.22.15,0,.29,0,.41.03"/>
            <polygon class="cls-24" points="254.8 157.28 257.34 160.31 257.34 160.39 255.95 160.39 253.49 157.35 253.49 160.39 252.35 160.39 252.35 151.25 253.49 151.12 253.49 157.25 255.96 154.57 257.22 154.57 257.22 154.65 254.8 157.28"/>
            <path class="cls-24" d="M48.24,140.04c.36.38.61.73.77,1.05s.23.67.23,1.03-.1.68-.28.97c-.19.29-.45.52-.78.69s-.71.25-1.12.25c-.59,0-1.06-.15-1.39-.44-.34-.29-.51-.7-.51-1.24,0-.33.1-.7.29-1.11.19-.42.5-.91.92-1.47l-.28-.21.5-.92.11-.05c.67.59,1.19,1.08,1.55,1.45M46.32,137.43l-1.08-.76.65-1.01,1.08.74-.65,1.02h0ZM47.96,142.77c.19-.15.29-.36.29-.64s-.1-.56-.3-.85c-.2-.29-.49-.61-.88-.94-.35.38-.61.71-.76,1-.15.29-.22.55-.22.79,0,.26.1.47.29.63.19.15.45.23.78.23s.61-.08.8-.23M48.16,137.43l-1.08-.76.68-1.01,1.07.74-.68,1.02h.01Z"/>
            <path class="cls-24" d="M54.99,143.01c.08.06.11.15.11.27,0,.17-.06.32-.17.46-.11.14-.32.21-.62.21-.48,0-.85-.12-1.12-.36-.14.41-.39.79-.75,1.16-.36.37-.81.68-1.36.95s-1.17.47-1.86.59l-.56-.77.05-.11c1.19-.23,2.09-.57,2.67-1.01.59-.45.95-.96,1.1-1.55-.16-.46-.5-1.2-1.02-2.23l.77-.82h.13c.2.57.42,1.13.65,1.7l.13.35c.12.32.24.55.34.69s.23.24.38.29c.16.05.38.08.68.08.21,0,.36.03.43.09"/>
            <path class="cls-24" d="M54.56,142.93h1.06c.21,0,.36.03.43.09.08.06.11.14.11.26,0,.17-.06.32-.17.46-.11.14-.32.21-.62.21h-1.06s.25-1.02.25-1.02Z"/>
            <path class="cls-24" d="M55.62,142.93h1.06c.21,0,.36.03.43.09.08.06.11.14.11.26,0,.17-.06.32-.17.46-.12.14-.32.21-.62.21h-1.06s.25-1.02.25-1.02Z"/>
            <path class="cls-24" d="M56.69,142.93h1.06c.21,0,.36.03.43.09.08.06.11.14.11.26,0,.17-.06.32-.17.46-.11.14-.32.21-.62.21h-1.06s.25-1.02.25-1.02Z"/>
            <path class="cls-24" d="M64.71,143.01c.07.06.11.15.11.27,0,.17-.06.32-.17.46-.12.14-.32.21-.62.21-.7,0-1.33-.33-1.89-.98-.15.27-.38.48-.7.62s-.72.24-1.19.29c-.47.05-1.1.07-1.87.07h-.89l.25-1.03h1.38c.83,0,1.42-.05,1.76-.15.35-.1.58-.23.69-.4-.22-.36-.64-.83-1.26-1.42s-1.26-1.17-1.91-1.72l-.05-.08.28-1.35,4.35-2.46.09.04-.35,1.3-3.4,1.89c.67.63,1.23,1.17,1.66,1.61s.85.89,1.26,1.33c.33.37.58.65.77.83.19.18.38.32.58.42.2.1.42.15.67.15.21,0,.36.03.43.09"/>
            <path class="cls-24" d="M64.28,142.93h1.06c.21,0,.36.03.43.09.08.06.11.14.11.26,0,.17-.06.32-.17.46s-.32.21-.62.21h-1.06l.25-1.02Z"/>
            <path class="cls-24" d="M65.34,142.93h1.06c.21,0,.36.03.43.09.08.06.11.14.11.26,0,.17-.06.32-.17.46s-.32.21-.62.21h-1.06l.25-1.02Z"/>
            <path class="cls-24" d="M66.4,142.93h1.06c.21,0,.36.03.43.09.08.06.11.14.11.26,0,.17-.06.32-.17.46s-.32.21-.62.21h-1.06l.25-1.02Z"/>
            <path class="cls-24" d="M72.09,143.01c.07.06.11.15.11.27,0,.17-.06.32-.17.46-.12.14-.32.21-.62.21-.34,0-.68-.05-1.02-.15-.34-.1-.64-.27-.91-.5-.22.22-.49.38-.82.49-.32.11-.71.16-1.17.16h-.28l.26-1.04h.29c.52,0,.89-.08,1.12-.25.1-.14.19-.36.29-.67.09-.3.21-.75.35-1.35l1.02-.25.13.08c-.19.88-.41,1.56-.64,2.03.18.12.41.22.66.3.26.08.58.11.97.11.2,0,.34.03.42.09M69.78,146.72l-1.09-.76.68-1,1.09.73-.68,1.02h0Z"/>
            <path class="cls-24" d="M71.66,142.93h1.06c.21,0,.36.03.43.09.08.06.11.14.11.26,0,.17-.06.32-.17.46s-.32.21-.62.21h-1.06l.25-1.02Z"/>
            <path class="cls-24" d="M72.72,142.93h1.06c.21,0,.36.03.43.09.08.06.11.14.11.26,0,.17-.06.32-.17.46s-.32.21-.62.21h-1.06l.25-1.02Z"/>
            <path class="cls-24" d="M73.79,142.93h1.06c.21,0,.36.03.43.09.08.06.11.14.11.26,0,.17-.06.32-.17.46s-.32.21-.62.21h-1.06l.25-1.02Z"/>
            <path class="cls-24" d="M82.32,143c.09.06.13.15.13.27,0,.2-.08.37-.23.49-.15.12-.35.18-.6.18-.28,0-.53-.03-.75-.11-.22-.07-.41-.18-.59-.33-.1.2-.23.36-.4.45-.17.1-.38.15-.64.15-.38,0-.81-.09-1.29-.27-.48-.18-.93-.43-1.35-.74-.19.24-.36.42-.53.54s-.36.2-.59.24c-.23.04-.53.07-.9.07l.28-1.03c.19,0,.34-.02.46-.07s.23-.12.33-.24c.1-.11.23-.29.38-.52.11-.16.2-.32.28-.49.22-.4.42-.72.59-.98.17-.25.39-.47.64-.66s.54-.29.86-.29.59.09.81.27.4.4.55.65.34.63.59,1.14c.17.35.32.6.44.76.13.16.27.27.43.33s.38.09.66.09c.19,0,.34.03.42.09M79.44,143.01c.11-.05.21-.14.28-.25l-.11-.24c-.27-.65-.5-1.12-.69-1.39s-.37-.41-.54-.41c-.21,0-.42.14-.62.42-.2.28-.43.67-.68,1.17.35.23.7.42,1.06.56.36.15.65.22.88.22.17,0,.31-.03.43-.08"/>
            <path class="cls-24" d="M81.91,142.93h1.06c.21,0,.36.03.43.09.08.06.11.14.11.26,0,.17-.06.32-.17.46s-.32.21-.62.21h-1.06l.25-1.02Z"/>
            <path class="cls-24" d="M82.97,142.93h1.06c.21,0,.36.03.43.09.08.06.11.14.11.26,0,.17-.06.32-.17.46s-.32.21-.62.21h-1.06l.25-1.02Z"/>
            <path class="cls-24" d="M84.03,142.93h1.06c.21,0,.36.03.43.09.08.06.11.14.11.26,0,.17-.06.32-.17.46s-.32.21-.62.21h-1.06l.25-1.02Z"/>
            <path class="cls-24" d="M85.11,142.91c.28,0,.52-.02.72-.05.2-.03.37-.1.53-.21.06-.28.09-.63.09-1.05v-6.48l.93-.24.11.04v6.56c0,.63-.1,1.12-.31,1.48s-.5.61-.88.76-.86.22-1.45.22l.27-1.04h-.01Z"/>
            <polygon class="cls-24" points="89.29 144.02 89.21 143.98 89.21 135.14 90.18 134.88 90.25 134.94 90.23 143.82 89.29 144.02"/>
            <path class="cls-24" d="M100.77,143c.07.06.1.15.1.27,0,.17-.06.32-.18.46s-.33.21-.63.21c-.56,0-1.01-.08-1.37-.24-.35-.16-.61-.43-.77-.82-.35.08-.68.12-1,.12-.45,0-.85-.06-1.18-.19-.34-.12-.6-.3-.78-.52s-.27-.48-.27-.78c0-.34.12-.68.36-1.04s.59-.69,1.05-1.01c.46-.31,1.01-.57,1.65-.76v-.65l.94-.42.09.03v4.12c0,.34.05.58.16.74s.27.27.49.32.52.08.92.08c.21,0,.35.03.42.09M96.35,136.78l-1.08-.76.65-1.01,1.07.74-.65,1.02h.01ZM97.75,141.91v-2.12c-.59.19-1.09.42-1.49.7s-.64.56-.71.83c.07.22.25.39.54.5.29.12.59.17.9.17.25,0,.5-.03.76-.08M98.2,136.78l-1.07-.76.68-1.01,1.08.74-.68,1.02h-.01Z"/>
            <path class="cls-24" d="M100.32,142.93h1.06c.21,0,.36.03.43.09.08.06.11.14.11.26,0,.17-.06.32-.17.46s-.32.21-.62.21h-1.06l.25-1.02Z"/>
            <path class="cls-24" d="M101.39,142.93h1.06c.21,0,.36.03.43.09.08.06.11.14.11.26,0,.17-.06.32-.17.46s-.32.21-.62.21h-1.06l.25-1.02Z"/>
            <path class="cls-24" d="M102.45,142.93h1.06c.21,0,.36.03.43.09.08.06.11.14.11.26,0,.17-.06.32-.17.46s-.32.21-.62.21h-1.06l.25-1.02Z"/>
            <path class="cls-24" d="M103.52,142.91c.28,0,.52-.02.72-.05.2-.03.37-.1.53-.21.06-.28.09-.63.09-1.05v-6.48l.93-.24.11.04v6.56c0,.63-.1,1.12-.31,1.48s-.5.61-.88.76-.86.22-1.45.22l.27-1.04h-.01Z"/>
            <path class="cls-24" d="M113.13,143.01c.08.06.12.15.12.27,0,.17-.06.32-.18.46s-.33.21-.63.21h-.98c-.15.43-.39.82-.72,1.17s-.76.62-1.29.84c-.53.21-1.15.33-1.86.35l-.56-.77.07-.11c.82-.04,1.53-.18,2.12-.43.59-.25,1.01-.6,1.28-1.04h-.4c-.81,0-1.41-.15-1.81-.45s-.6-.71-.6-1.26c0-.41.09-.81.27-1.21.18-.4.42-.73.72-.98s.62-.38.97-.38c.39,0,.74.14,1.05.43.31.29.55.68.72,1.16s.25,1.01.25,1.58v.07h1.05c.21,0,.36.03.44.09M110.8,142.91v-.08c0-.37-.06-.72-.17-1.05-.12-.33-.27-.59-.46-.78s-.38-.29-.58-.29c-.17,0-.33.06-.5.18-.16.12-.3.29-.4.5-.11.22-.16.46-.16.74s.13.46.4.59c.27.13.7.19,1.3.19h.57Z"/>
            <path class="cls-24" d="M112.71,142.93h1.06c.21,0,.36.03.43.09.08.06.11.14.11.26,0,.17-.06.32-.17.46s-.32.21-.62.21h-1.06l.25-1.02Z"/>
            <path class="cls-24" d="M113.77,142.93h1.06c.21,0,.36.03.43.09.08.06.11.14.11.26,0,.17-.06.32-.17.46s-.32.21-.62.21h-1.06l.25-1.02Z"/>
            <path class="cls-24" d="M114.83,142.93h1.06c.21,0,.36.03.43.09.08.06.11.14.11.26,0,.17-.06.32-.17.46s-.32.21-.62.21h-1.06l.25-1.02Z"/>
            <path class="cls-24" d="M122.21,143.01c.07.06.11.15.11.26,0,.17-.06.32-.18.47-.12.14-.33.21-.63.21h-.84c-.31,0-.64-.03-.98-.1-.34-.07-.67-.16-.99-.27-.68.25-1.48.37-2.39.37h-.68l.27-1.03h1.26c.16,0,.27,0,.35,0-.24-.2-.42-.43-.56-.67-.13-.24-.2-.51-.2-.79,0-.38.1-.76.3-1.13s.46-.68.79-.92.67-.36,1.02-.36c.3,0,.59.1.86.31.27.2.5.46.66.78.17.32.25.63.25.95,0,.72-.24,1.32-.73,1.78.33.04.64.07.94.07h.92c.21,0,.36.03.43.09M117.93,141.98c.2.23.49.41.85.56.31-.16.55-.35.73-.58s.27-.48.27-.74c0-.19-.05-.37-.16-.55-.11-.18-.24-.32-.4-.43-.16-.11-.33-.17-.49-.17-.17,0-.34.06-.51.18-.17.12-.31.27-.42.46s-.17.37-.17.56c0,.25.1.48.31.71M119.06,137.52l-1.09-.76.68-1.01,1.09.74-.68,1.02h0Z"/>
            <path class="cls-24" d="M121.78,142.93h1.06c.21,0,.36.03.43.09.08.06.11.14.11.26,0,.17-.06.32-.17.46s-.32.21-.62.21h-1.06l.25-1.02Z"/>
            <path class="cls-24" d="M122.84,142.93h1.06c.21,0,.36.03.43.09.08.06.11.14.11.26,0,.17-.06.32-.17.46s-.32.21-.62.21h-1.06l.25-1.02Z"/>
            <path class="cls-24" d="M123.9,142.93h1.06c.21,0,.36.03.43.09.08.06.11.14.11.26,0,.17-.06.32-.17.46s-.32.21-.62.21h-1.06l.25-1.02Z"/>
            <path class="cls-24" d="M133.93,143.01c.07.06.11.15.11.26,0,.17-.06.32-.17.46-.12.14-.32.21-.62.21s-.63-.04-.95-.13c-.32-.09-.61-.23-.86-.42-.3.22-.7.37-1.21.44-.5.08-1.23.11-2.18.11h-3.35l.27-1.04h.54l.64-.62v-7.16l.95-.24.08.04v6.4c.68-.61,1.27-1.07,1.77-1.37.5-.31.95-.46,1.36-.46.35,0,.68.1.98.3s.54.46.72.79c.18.33.27.67.27,1.04s-.08.7-.23.98c.39.2.87.31,1.45.31.2,0,.34.03.42.09M130.11,142.85c.43-.04.76-.12.99-.23.07-.1.13-.22.17-.37s.07-.3.07-.46c0-.19-.05-.38-.15-.57-.1-.19-.24-.36-.41-.49s-.36-.2-.56-.2c-.37,0-.83.2-1.37.6-.54.4-1.21,1-2.02,1.79h1.16c.99,0,1.7-.02,2.13-.06"/>
            <path class="cls-24" d="M133.5,142.93h1.06c.21,0,.36.03.43.09.08.06.11.14.11.26,0,.17-.06.32-.17.46-.12.14-.32.21-.62.21h-1.06l.25-1.02Z"/>
            <path class="cls-24" d="M134.56,142.93h1.06c.21,0,.36.03.43.09.08.06.11.14.11.26,0,.17-.06.32-.17.46-.12.14-.32.21-.62.21h-1.06l.25-1.02Z"/>
            <path class="cls-24" d="M135.62,142.93h1.06c.21,0,.36.03.43.09.08.06.11.14.11.26,0,.17-.06.32-.17.46-.12.14-.32.21-.62.21h-1.06l.25-1.02Z"/>
            <path class="cls-24" d="M136.7,142.91c.28,0,.52-.02.72-.05s.37-.1.52-.21c.06-.28.09-.63.09-1.05v-6.48l.93-.24.11.04v6.56c0,.63-.1,1.12-.31,1.48-.21.36-.5.61-.88.76s-.86.22-1.45.22l.26-1.04h.01Z"/>
            <polygon class="cls-24" points="140.88 144.02 140.8 143.98 140.8 135.14 141.77 134.88 141.84 134.94 141.82 143.82 140.88 144.02"/>
            <path class="cls-24" d="M152.36,143c.07.06.1.15.1.27,0,.17-.06.32-.18.46s-.33.21-.63.21c-.56,0-1.01-.08-1.37-.24s-.61-.43-.77-.82c-.34.08-.68.12-.99.12-.45,0-.85-.06-1.18-.19-.34-.12-.6-.3-.78-.52s-.27-.48-.27-.78c0-.34.12-.68.36-1.04s.59-.69,1.05-1.01c.46-.31,1.01-.57,1.65-.76v-.65l.94-.42.09.03v4.12c0,.34.05.58.16.74s.27.27.49.32.52.08.92.08c.21,0,.35.03.42.09M147.94,136.78l-1.08-.76.65-1.01,1.07.74-.65,1.02h0ZM149.34,141.91v-2.12c-.59.19-1.09.42-1.49.7-.4.28-.64.56-.71.83.07.22.25.39.54.5.29.12.59.17.9.17.25,0,.5-.03.76-.08M149.79,136.78l-1.07-.76.68-1.01,1.07.74-.68,1.02h0Z"/>
            <path class="cls-24" d="M151.91,142.93h1.06c.21,0,.36.03.43.09.08.06.11.14.11.26,0,.17-.06.32-.17.46-.12.14-.32.21-.62.21h-1.06l.25-1.02Z"/>
            <path class="cls-24" d="M152.97,142.93h1.06c.21,0,.36.03.43.09.08.06.11.14.11.26,0,.17-.06.32-.17.46-.12.14-.32.21-.62.21h-1.06l.25-1.02Z"/>
            <path class="cls-24" d="M154.04,142.93h1.06c.21,0,.36.03.43.09.08.06.11.14.11.26,0,.17-.06.32-.17.46-.12.14-.32.21-.62.21h-1.06l.25-1.02Z"/>
            <path class="cls-24" d="M159.41,143.01c.07.06.11.15.11.27,0,.17-.06.32-.17.46-.12.14-.32.21-.62.21-.34,0-.66-.06-.96-.17-.31-.11-.55-.32-.72-.61-.21.28-.5.49-.86.6-.36.12-.8.18-1.33.18l.26-1.03c.28,0,.52-.02.72-.05s.37-.1.52-.2c.06-.28.09-.63.09-1.05v-6.48l.93-.24.11.04v6.52c0,.43.06.75.18.96s.28.34.49.4c.2.06.48.09.82.09.21,0,.36.03.43.09"/>
            <path class="cls-24" d="M158.97,142.93h1.06c.21,0,.36.03.43.09.08.06.11.14.11.26,0,.17-.06.32-.17.46-.12.14-.32.21-.62.21h-1.06l.25-1.02Z"/>
            <path class="cls-24" d="M160.04,142.93h1.06c.21,0,.36.03.43.09.08.06.11.14.11.26,0,.17-.06.32-.17.46-.12.14-.32.21-.62.21h-1.06l.25-1.02Z"/>
            <path class="cls-24" d="M161.1,142.93h1.06c.21,0,.36.03.43.09.08.06.11.14.11.26,0,.17-.06.32-.17.46-.12.14-.32.21-.62.21h-1.06l.25-1.02Z"/>
            <path class="cls-24" d="M168.18,141.1c.39.15.75.23,1.07.25l-.25.96c-.55.06-1.1.16-1.67.3-.56.14-1.2.34-1.92.58-.83.28-1.5.48-2.02.59-.51.11-1.01.17-1.49.17l.25-1.04c.42,0,.85-.04,1.28-.13.43-.08,1-.24,1.71-.46.83-.27,1.54-.45,2.11-.56-.32-.14-.63-.3-.93-.48-.5-.29-.92-.49-1.25-.61-.33-.11-.65-.17-.95-.17-.4,0-.84.08-1.33.25l-.04-.05.4-.96c.16-.08.35-.14.56-.19.21-.05.42-.07.61-.07.28,0,.6.07.94.2.35.13.82.36,1.42.69.6.33,1.1.57,1.49.72"/>
            <path class="cls-24" d="M174.59,143.01c.07.06.11.15.11.27,0,.17-.06.32-.17.46-.12.14-.32.21-.62.21-.48,0-.85-.12-1.11-.36-.14.41-.39.79-.75,1.16-.36.37-.81.68-1.36.95s-1.17.47-1.86.59l-.56-.77.05-.11c1.19-.23,2.09-.57,2.67-1.01.59-.45.95-.96,1.1-1.55-.16-.46-.5-1.2-1.02-2.23l.77-.82h.13c.2.57.42,1.13.65,1.7l.13.35c.12.32.24.55.34.69.1.14.23.24.38.29s.38.08.68.08c.21,0,.36.03.43.09"/>
            <path class="cls-24" d="M174.16,142.93h1.06c.21,0,.36.03.43.09.08.06.11.14.11.26,0,.17-.06.32-.17.46-.12.14-.32.21-.62.21h-1.06l.25-1.02Z"/>
            <path class="cls-24" d="M175.22,142.93h1.06c.21,0,.36.03.43.09.08.06.11.14.11.26,0,.17-.06.32-.17.46-.12.14-.32.21-.62.21h-1.06l.25-1.02Z"/>
            <path class="cls-24" d="M176.29,142.93h1.06c.21,0,.36.03.43.09.08.06.11.14.11.26,0,.17-.06.32-.17.46-.12.14-.32.21-.62.21h-1.06l.25-1.02Z"/>
            <path class="cls-24" d="M184.82,143c.09.06.13.15.13.27,0,.2-.08.37-.23.49-.15.12-.35.18-.6.18-.28,0-.53-.03-.75-.11-.22-.07-.41-.18-.59-.33-.1.2-.23.36-.4.45-.17.1-.38.15-.64.15-.38,0-.81-.09-1.29-.27-.48-.18-.93-.43-1.35-.74-.19.24-.36.42-.53.54s-.37.2-.59.24c-.23.04-.52.07-.9.07l.28-1.03c.19,0,.34-.02.46-.07.12-.05.23-.12.33-.24.1-.11.23-.29.38-.52.11-.16.2-.32.28-.49.22-.4.42-.72.59-.98.17-.25.39-.47.64-.66s.54-.29.86-.29.59.09.81.27c.22.18.4.4.55.65.15.25.34.63.59,1.14.17.35.32.6.44.76.13.16.27.27.43.33.16.06.38.09.66.09.2,0,.34.03.43.09M181.94,143.01c.12-.05.21-.14.28-.25l-.11-.24c-.28-.65-.51-1.12-.69-1.39-.18-.27-.37-.41-.54-.41-.21,0-.42.14-.62.42s-.43.67-.68,1.17c.35.23.7.42,1.06.56.36.15.65.22.88.22.17,0,.31-.03.43-.08"/>
            <path class="cls-24" d="M184.41,142.93h1.06c.21,0,.36.03.43.09.08.06.11.14.11.26,0,.17-.06.32-.17.46-.12.14-.32.21-.62.21h-1.06l.25-1.02Z"/>
            <path class="cls-24" d="M185.47,142.93h1.06c.21,0,.36.03.43.09.08.06.11.14.11.26,0,.17-.06.32-.17.46-.12.14-.32.21-.62.21h-1.06l.25-1.02Z"/>
            <path class="cls-24" d="M186.54,142.93h1.06c.21,0,.36.03.43.09.08.06.11.14.11.26,0,.17-.06.32-.17.46-.12.14-.32.21-.62.21h-1.06l.25-1.02Z"/>
            <path class="cls-24" d="M187.61,142.91c.28,0,.52-.02.72-.05s.37-.1.52-.21c.06-.28.09-.63.09-1.05v-6.48l.93-.24.11.04v6.56c0,.63-.1,1.12-.31,1.48-.21.36-.5.61-.88.76s-.86.22-1.45.22l.26-1.04h.01Z"/>
            <path class="cls-24" d="M197.56,140.04c.36.38.62.73.77,1.05.15.32.23.67.23,1.03s-.1.68-.29.97c-.19.29-.45.52-.78.69s-.71.25-1.12.25c-.59,0-1.06-.15-1.39-.44-.34-.29-.5-.7-.5-1.24,0-.33.09-.7.29-1.11.19-.42.5-.91.92-1.47l-.28-.21.5-.92.11-.05c.67.59,1.19,1.08,1.55,1.45M195.64,137.43l-1.08-.76.65-1.01,1.07.74-.65,1.02h0ZM197.28,142.77c.19-.15.29-.36.29-.64s-.1-.56-.3-.85c-.2-.29-.49-.61-.88-.94-.35.38-.61.71-.76,1s-.23.55-.23.79c0,.26.1.47.29.63.19.15.46.23.78.23.35,0,.61-.08.8-.23M197.49,137.43l-1.07-.76.68-1.01,1.07.74-.68,1.02h0Z"/>
            <path class="cls-24" d="M200.56,143.98c-.31-.03-.58-.07-.8-.12l.15-.97.07-.05c.19.05.43.08.72.1.3.02.54.03.74.03.48,0,.93-.05,1.36-.14.43-.09.71-.21.83-.36-.08-.49-.3-1.01-.67-1.56s-.83-1.1-1.39-1.63l.56-.98h.09c1.49,1.57,2.24,2.83,2.24,3.8,0,1.28-1.05,1.93-3.15,1.93-.19,0-.44,0-.75-.04"/>
            <path class="cls-24" d="M211.36,143.01c.08.06.12.15.12.27,0,.17-.06.32-.18.46s-.33.21-.63.21h-.98c-.15.43-.39.82-.72,1.17s-.76.62-1.29.84c-.53.21-1.15.33-1.86.35l-.56-.77.07-.11c.82-.04,1.53-.18,2.12-.43s1.01-.6,1.28-1.04h-.4c-.81,0-1.41-.15-1.81-.45s-.6-.71-.6-1.26c0-.41.09-.81.27-1.21.18-.4.42-.73.72-.98s.62-.38.97-.38c.39,0,.74.14,1.05.43s.55.68.72,1.16.25,1.01.25,1.58v.07h1.05c.21,0,.36.03.44.09M209.02,142.91v-.08c0-.37-.06-.72-.17-1.05-.12-.33-.27-.59-.46-.78s-.38-.29-.58-.29c-.17,0-.33.06-.5.18-.16.12-.3.29-.4.5-.11.22-.16.46-.16.74s.13.46.4.59c.27.13.7.19,1.3.19h.57Z"/>
            <path class="cls-24" d="M210.94,142.93h1.06c.21,0,.36.03.43.09.08.06.11.14.11.26,0,.17-.06.32-.17.46-.12.14-.32.21-.62.21h-1.06l.25-1.02Z"/>
            <path class="cls-24" d="M212,142.93h1.06c.21,0,.36.03.43.09.08.06.11.14.11.26,0,.17-.06.32-.17.46-.12.14-.32.21-.62.21h-1.06l.25-1.02Z"/>
            <path class="cls-24" d="M213.06,142.93h1.06c.21,0,.36.03.43.09.08.06.11.14.11.26,0,.17-.06.32-.17.46-.12.14-.32.21-.62.21h-1.06l.25-1.02Z"/>
            <path class="cls-24" d="M222.61,143.01c.07.06.11.15.11.27,0,.17-.05.32-.16.46s-.31.21-.61.21c-.58,0-1.08-.05-1.47-.14-.4-.09-.72-.23-.96-.42s-.45-.42-.6-.7c-.45.13-.96.3-1.51.49-.86.29-1.54.49-2.03.61-.5.11-.99.17-1.49.17l.25-1.04c.43,0,.86-.04,1.29-.13.43-.08.99-.24,1.69-.46.82-.27,1.52-.46,2.1-.57-.26-.11-.56-.27-.92-.46-.53-.29-.96-.49-1.28-.61-.32-.11-.63-.17-.92-.17-.42,0-.86.09-1.33.27l-.04-.05.4-.97c.16-.08.35-.14.56-.19.21-.05.42-.07.61-.07.27,0,.58.07.92.2s.81.35,1.41.66c.65.35,1.16.59,1.54.73.38.14.73.22,1.05.24l-.24.96c-.42.05-.75.1-1,.15.2.19.46.31.8.39.34.07.81.11,1.41.11.2,0,.34.03.41.09M217.52,146.72l-1.09-.76.68-1,1.09.73-.68,1.02h0Z"/>
            <path class="cls-24" d="M222.17,142.93h1.06c.21,0,.36.03.43.09.08.06.11.14.11.26,0,.17-.06.32-.17.46-.12.14-.32.21-.62.21h-1.06l.25-1.02Z"/>
            <path class="cls-24" d="M223.23,142.93h1.06c.21,0,.36.03.43.09.08.06.11.14.11.26,0,.17-.06.32-.17.46-.12.14-.32.21-.62.21h-1.06l.25-1.02Z"/>
            <path class="cls-24" d="M224.29,142.93h1.06c.21,0,.36.03.43.09.08.06.11.14.11.26,0,.17-.06.32-.17.46-.12.14-.32.21-.62.21h-1.06l.25-1.02Z"/>
            <path class="cls-24" d="M225.37,142.91c.28,0,.52-.02.72-.05s.37-.1.52-.21c.06-.28.09-.63.09-1.05v-6.48l.93-.24.11.04v6.56c0,.63-.1,1.12-.31,1.48-.21.36-.5.61-.88.76s-.86.22-1.45.22l.27-1.04h0Z"/>
            <polygon class="cls-24" points="229.55 144.02 229.47 143.98 229.47 135.14 230.44 134.88 230.5 134.94 230.49 143.82 229.55 144.02"/>
            <path class="cls-24" d="M233.65,145.53l.05-.11c.8-.14,1.47-.35,2.03-.62.56-.27.98-.57,1.26-.89.28-.32.42-.61.42-.88-.02-.26-.12-.61-.29-1.05-.18-.44-.4-.9-.66-1.37l.77-.81h.11c.28.52.51,1.05.69,1.6.18.54.26,1.01.26,1.39,0,.22-.03.45-.09.68s-.15.46-.26.67c-.18.32-.44.62-.8.91-.35.29-.78.54-1.28.76s-1.05.38-1.64.48l-.56-.77h-.01Z"/>
            <path class="cls-24" d="M240.55,143.46c-.41-.33-.61-.89-.61-1.7v-6.62l.96-.24.08.04v6.7c0,.35.05.61.15.79.1.18.26.31.48.38s.52.11.91.11c.2,0,.35.03.43.09.08.06.12.15.12.26,0,.17-.06.32-.18.46s-.33.21-.63.21c-.73,0-1.29-.16-1.7-.49"/>
            <path class="cls-24" d="M242.52,142.93h1.06c.21,0,.36.03.43.09.08.06.11.14.11.26,0,.17-.06.32-.17.46-.12.14-.32.21-.62.21h-1.06l.25-1.02Z"/>
            <path class="cls-24" d="M243.58,142.93h1.06c.21,0,.36.03.43.09.08.06.11.14.11.26,0,.17-.06.32-.17.46-.12.14-.32.21-.62.21h-1.06l.25-1.02Z"/>
            <path class="cls-24" d="M244.64,142.93h1.06c.21,0,.36.03.43.09.08.06.11.14.11.26,0,.17-.06.32-.17.46-.12.14-.32.21-.62.21h-1.06l.25-1.02Z"/>
            <path class="cls-24" d="M252.05,139.8c.3.2.54.46.72.79.18.33.26.67.26,1.04s-.07.69-.22.98-.33.54-.56.73c-.2.17-.45.3-.75.39s-.65.15-1.08.18c-.42.03-.96.05-1.63.05h-3.35l.26-1.04h.54l.64-.62v-7.16l.96-.24.08.04v6.4c.68-.61,1.27-1.07,1.77-1.37.5-.3.95-.46,1.36-.46.35,0,.68.1.98.3M252.01,142.25c.04-.15.07-.3.07-.46,0-.19-.05-.38-.15-.57-.1-.19-.24-.36-.41-.49s-.36-.2-.56-.2c-.37,0-.83.2-1.37.6-.54.4-1.21,1-2.02,1.79h1.15c.99,0,1.7-.02,2.13-.06.43-.04.76-.12.99-.23.07-.1.13-.22.17-.37"/>
            <path class="cls-24" d="M256.44,147.12c-.7.09-1.54.15-2.54.19l-.07-.72c.27,0,.47,0,.6,0-.16-.25-.24-.51-.24-.78,0-.32.1-.57.29-.76s.46-.29.8-.29c.29,0,.6.06.93.19l-.18.7c-.27-.1-.47-.15-.62-.15-.16,0-.28.05-.36.15-.09.1-.13.22-.13.36,0,.21.09.4.27.56.36-.03.76-.06,1.19-.11l.07.68h-.01ZM254.71,144.02l-.08-.04v-8.84l.97-.25.07.05v8.88l-.96.2h0Z"/>
          </g>
        </g>
      </g>
    </g>
  </g>
</svg>